G04 #@! TF.GenerationSoftware,KiCad,Pcbnew,5.1.5*
G04 #@! TF.CreationDate,2020-02-13T16:26:20+03:00*
G04 #@! TF.ProjectId,DC-Soft-Starter-V2,44432d53-6f66-4742-9d53-746172746572,rev?*
G04 #@! TF.SameCoordinates,Original*
G04 #@! TF.FileFunction,Soldermask,Top*
G04 #@! TF.FilePolarity,Negative*
%FSLAX46Y46*%
G04 Gerber Fmt 4.6, Leading zero omitted, Abs format (unit mm)*
G04 Created by KiCad (PCBNEW 5.1.5) date 2020-02-13 16:26:20*
%MOMM*%
%LPD*%
G04 APERTURE LIST*
%ADD10C,0.100000*%
G04 APERTURE END LIST*
D10*
G36*
X104376156Y-152604794D02*
G01*
X105097140Y-152748206D01*
X105888972Y-153076193D01*
X106601601Y-153552357D01*
X107207643Y-154158399D01*
X107683807Y-154871028D01*
X108011794Y-155662860D01*
X108179000Y-156503464D01*
X108179000Y-157360536D01*
X108011794Y-158201140D01*
X107683807Y-158992972D01*
X107207643Y-159705601D01*
X106601601Y-160311643D01*
X105888972Y-160787807D01*
X105097140Y-161115794D01*
X104376156Y-161259206D01*
X104256537Y-161283000D01*
X103399463Y-161283000D01*
X103279844Y-161259206D01*
X102558860Y-161115794D01*
X101767028Y-160787807D01*
X101054399Y-160311643D01*
X100448357Y-159705601D01*
X99972193Y-158992972D01*
X99644206Y-158201140D01*
X99477000Y-157360536D01*
X99477000Y-156503464D01*
X99644206Y-155662860D01*
X99972193Y-154871028D01*
X100448357Y-154158399D01*
X101054399Y-153552357D01*
X101767028Y-153076193D01*
X102558860Y-152748206D01*
X103279844Y-152604794D01*
X103399463Y-152581000D01*
X104256537Y-152581000D01*
X104376156Y-152604794D01*
G37*
G36*
X55176228Y-156232503D02*
G01*
X55331100Y-156296653D01*
X55470481Y-156389785D01*
X55589015Y-156508319D01*
X55682147Y-156647700D01*
X55746297Y-156802572D01*
X55779000Y-156966984D01*
X55779000Y-157134616D01*
X55746297Y-157299028D01*
X55682147Y-157453900D01*
X55589015Y-157593281D01*
X55470481Y-157711815D01*
X55331100Y-157804947D01*
X55176228Y-157869097D01*
X55011816Y-157901800D01*
X54844184Y-157901800D01*
X54679772Y-157869097D01*
X54524900Y-157804947D01*
X54385519Y-157711815D01*
X54266985Y-157593281D01*
X54173853Y-157453900D01*
X54109703Y-157299028D01*
X54077000Y-157134616D01*
X54077000Y-156966984D01*
X54109703Y-156802572D01*
X54173853Y-156647700D01*
X54266985Y-156508319D01*
X54385519Y-156389785D01*
X54524900Y-156296653D01*
X54679772Y-156232503D01*
X54844184Y-156199800D01*
X55011816Y-156199800D01*
X55176228Y-156232503D01*
G37*
G36*
X39936228Y-156232503D02*
G01*
X40091100Y-156296653D01*
X40230481Y-156389785D01*
X40349015Y-156508319D01*
X40442147Y-156647700D01*
X40506297Y-156802572D01*
X40539000Y-156966984D01*
X40539000Y-157134616D01*
X40506297Y-157299028D01*
X40442147Y-157453900D01*
X40349015Y-157593281D01*
X40230481Y-157711815D01*
X40091100Y-157804947D01*
X39936228Y-157869097D01*
X39771816Y-157901800D01*
X39604184Y-157901800D01*
X39439772Y-157869097D01*
X39284900Y-157804947D01*
X39145519Y-157711815D01*
X39026985Y-157593281D01*
X38933853Y-157453900D01*
X38869703Y-157299028D01*
X38837000Y-157134616D01*
X38837000Y-156966984D01*
X38869703Y-156802572D01*
X38933853Y-156647700D01*
X39026985Y-156508319D01*
X39145519Y-156389785D01*
X39284900Y-156296653D01*
X39439772Y-156232503D01*
X39604184Y-156199800D01*
X39771816Y-156199800D01*
X39936228Y-156232503D01*
G37*
G36*
X39936228Y-153692503D02*
G01*
X40091100Y-153756653D01*
X40230481Y-153849785D01*
X40349015Y-153968319D01*
X40442147Y-154107700D01*
X40506297Y-154262572D01*
X40539000Y-154426984D01*
X40539000Y-154594616D01*
X40506297Y-154759028D01*
X40442147Y-154913900D01*
X40349015Y-155053281D01*
X40230481Y-155171815D01*
X40091100Y-155264947D01*
X39936228Y-155329097D01*
X39771816Y-155361800D01*
X39604184Y-155361800D01*
X39439772Y-155329097D01*
X39284900Y-155264947D01*
X39145519Y-155171815D01*
X39026985Y-155053281D01*
X38933853Y-154913900D01*
X38869703Y-154759028D01*
X38837000Y-154594616D01*
X38837000Y-154426984D01*
X38869703Y-154262572D01*
X38933853Y-154107700D01*
X39026985Y-153968319D01*
X39145519Y-153849785D01*
X39284900Y-153756653D01*
X39439772Y-153692503D01*
X39604184Y-153659800D01*
X39771816Y-153659800D01*
X39936228Y-153692503D01*
G37*
G36*
X55176228Y-153692503D02*
G01*
X55331100Y-153756653D01*
X55470481Y-153849785D01*
X55589015Y-153968319D01*
X55682147Y-154107700D01*
X55746297Y-154262572D01*
X55779000Y-154426984D01*
X55779000Y-154594616D01*
X55746297Y-154759028D01*
X55682147Y-154913900D01*
X55589015Y-155053281D01*
X55470481Y-155171815D01*
X55331100Y-155264947D01*
X55176228Y-155329097D01*
X55011816Y-155361800D01*
X54844184Y-155361800D01*
X54679772Y-155329097D01*
X54524900Y-155264947D01*
X54385519Y-155171815D01*
X54266985Y-155053281D01*
X54173853Y-154913900D01*
X54109703Y-154759028D01*
X54077000Y-154594616D01*
X54077000Y-154426984D01*
X54109703Y-154262572D01*
X54173853Y-154107700D01*
X54266985Y-153968319D01*
X54385519Y-153849785D01*
X54524900Y-153756653D01*
X54679772Y-153692503D01*
X54844184Y-153659800D01*
X55011816Y-153659800D01*
X55176228Y-153692503D01*
G37*
G36*
X39936228Y-151152503D02*
G01*
X40091100Y-151216653D01*
X40230481Y-151309785D01*
X40349015Y-151428319D01*
X40442147Y-151567700D01*
X40506297Y-151722572D01*
X40539000Y-151886984D01*
X40539000Y-152054616D01*
X40506297Y-152219028D01*
X40442147Y-152373900D01*
X40349015Y-152513281D01*
X40230481Y-152631815D01*
X40091100Y-152724947D01*
X39936228Y-152789097D01*
X39771816Y-152821800D01*
X39604184Y-152821800D01*
X39439772Y-152789097D01*
X39284900Y-152724947D01*
X39145519Y-152631815D01*
X39026985Y-152513281D01*
X38933853Y-152373900D01*
X38869703Y-152219028D01*
X38837000Y-152054616D01*
X38837000Y-151886984D01*
X38869703Y-151722572D01*
X38933853Y-151567700D01*
X39026985Y-151428319D01*
X39145519Y-151309785D01*
X39284900Y-151216653D01*
X39439772Y-151152503D01*
X39604184Y-151119800D01*
X39771816Y-151119800D01*
X39936228Y-151152503D01*
G37*
G36*
X55176228Y-151152503D02*
G01*
X55331100Y-151216653D01*
X55470481Y-151309785D01*
X55589015Y-151428319D01*
X55682147Y-151567700D01*
X55746297Y-151722572D01*
X55779000Y-151886984D01*
X55779000Y-152054616D01*
X55746297Y-152219028D01*
X55682147Y-152373900D01*
X55589015Y-152513281D01*
X55470481Y-152631815D01*
X55331100Y-152724947D01*
X55176228Y-152789097D01*
X55011816Y-152821800D01*
X54844184Y-152821800D01*
X54679772Y-152789097D01*
X54524900Y-152724947D01*
X54385519Y-152631815D01*
X54266985Y-152513281D01*
X54173853Y-152373900D01*
X54109703Y-152219028D01*
X54077000Y-152054616D01*
X54077000Y-151886984D01*
X54109703Y-151722572D01*
X54173853Y-151567700D01*
X54266985Y-151428319D01*
X54385519Y-151309785D01*
X54524900Y-151216653D01*
X54679772Y-151152503D01*
X54844184Y-151119800D01*
X55011816Y-151119800D01*
X55176228Y-151152503D01*
G37*
G36*
X55176228Y-148612503D02*
G01*
X55331100Y-148676653D01*
X55470481Y-148769785D01*
X55589015Y-148888319D01*
X55682147Y-149027700D01*
X55746297Y-149182572D01*
X55779000Y-149346984D01*
X55779000Y-149514616D01*
X55746297Y-149679028D01*
X55682147Y-149833900D01*
X55589015Y-149973281D01*
X55470481Y-150091815D01*
X55331100Y-150184947D01*
X55176228Y-150249097D01*
X55011816Y-150281800D01*
X54844184Y-150281800D01*
X54679772Y-150249097D01*
X54524900Y-150184947D01*
X54385519Y-150091815D01*
X54266985Y-149973281D01*
X54173853Y-149833900D01*
X54109703Y-149679028D01*
X54077000Y-149514616D01*
X54077000Y-149346984D01*
X54109703Y-149182572D01*
X54173853Y-149027700D01*
X54266985Y-148888319D01*
X54385519Y-148769785D01*
X54524900Y-148676653D01*
X54679772Y-148612503D01*
X54844184Y-148579800D01*
X55011816Y-148579800D01*
X55176228Y-148612503D01*
G37*
G36*
X39936228Y-148612503D02*
G01*
X40091100Y-148676653D01*
X40230481Y-148769785D01*
X40349015Y-148888319D01*
X40442147Y-149027700D01*
X40506297Y-149182572D01*
X40539000Y-149346984D01*
X40539000Y-149514616D01*
X40506297Y-149679028D01*
X40442147Y-149833900D01*
X40349015Y-149973281D01*
X40230481Y-150091815D01*
X40091100Y-150184947D01*
X39936228Y-150249097D01*
X39771816Y-150281800D01*
X39604184Y-150281800D01*
X39439772Y-150249097D01*
X39284900Y-150184947D01*
X39145519Y-150091815D01*
X39026985Y-149973281D01*
X38933853Y-149833900D01*
X38869703Y-149679028D01*
X38837000Y-149514616D01*
X38837000Y-149346984D01*
X38869703Y-149182572D01*
X38933853Y-149027700D01*
X39026985Y-148888319D01*
X39145519Y-148769785D01*
X39284900Y-148676653D01*
X39439772Y-148612503D01*
X39604184Y-148579800D01*
X39771816Y-148579800D01*
X39936228Y-148612503D01*
G37*
G36*
X87739472Y-147099212D02*
G01*
X87835040Y-147108625D01*
X88080280Y-147183018D01*
X88306294Y-147303825D01*
X88310355Y-147307158D01*
X88504397Y-147466403D01*
X88624624Y-147612901D01*
X88666975Y-147664506D01*
X88787782Y-147890520D01*
X88862175Y-148135760D01*
X88887294Y-148390800D01*
X88862175Y-148645840D01*
X88787782Y-148891080D01*
X88666975Y-149117094D01*
X88624624Y-149168699D01*
X88504397Y-149315197D01*
X88357899Y-149435424D01*
X88306294Y-149477775D01*
X88080280Y-149598582D01*
X87835040Y-149672975D01*
X87773582Y-149679028D01*
X87643906Y-149691800D01*
X85516094Y-149691800D01*
X85386418Y-149679028D01*
X85324960Y-149672975D01*
X85079720Y-149598582D01*
X84853706Y-149477775D01*
X84802101Y-149435424D01*
X84655603Y-149315197D01*
X84535376Y-149168699D01*
X84493025Y-149117094D01*
X84372218Y-148891080D01*
X84297825Y-148645840D01*
X84272706Y-148390800D01*
X84297825Y-148135760D01*
X84372218Y-147890520D01*
X84493025Y-147664506D01*
X84535376Y-147612901D01*
X84655603Y-147466403D01*
X84849645Y-147307158D01*
X84853706Y-147303825D01*
X85079720Y-147183018D01*
X85324960Y-147108625D01*
X85420528Y-147099212D01*
X85516094Y-147089800D01*
X87643906Y-147089800D01*
X87739472Y-147099212D01*
G37*
G36*
X92524807Y-147220998D02*
G01*
X92562818Y-147232529D01*
X92597842Y-147251249D01*
X92628549Y-147276451D01*
X92653751Y-147307158D01*
X92672471Y-147342182D01*
X92684002Y-147380193D01*
X92688500Y-147425863D01*
X92688500Y-148234137D01*
X92684002Y-148279807D01*
X92672471Y-148317818D01*
X92653751Y-148352842D01*
X92628549Y-148383549D01*
X92597842Y-148408751D01*
X92562818Y-148427471D01*
X92524807Y-148439002D01*
X92479137Y-148443500D01*
X89395863Y-148443500D01*
X89350193Y-148439002D01*
X89312182Y-148427471D01*
X89277158Y-148408751D01*
X89246451Y-148383549D01*
X89221249Y-148352842D01*
X89202529Y-148317818D01*
X89190998Y-148279807D01*
X89186500Y-148234137D01*
X89186500Y-147425863D01*
X89190998Y-147380193D01*
X89202529Y-147342182D01*
X89221249Y-147307158D01*
X89246451Y-147276451D01*
X89277158Y-147251249D01*
X89312182Y-147232529D01*
X89350193Y-147220998D01*
X89395863Y-147216500D01*
X92479137Y-147216500D01*
X92524807Y-147220998D01*
G37*
G36*
X55176228Y-146072503D02*
G01*
X55331100Y-146136653D01*
X55470481Y-146229785D01*
X55589015Y-146348319D01*
X55682147Y-146487700D01*
X55746297Y-146642572D01*
X55779000Y-146806984D01*
X55779000Y-146974616D01*
X55746297Y-147139028D01*
X55682147Y-147293900D01*
X55589015Y-147433281D01*
X55470481Y-147551815D01*
X55331100Y-147644947D01*
X55176228Y-147709097D01*
X55011816Y-147741800D01*
X54844184Y-147741800D01*
X54679772Y-147709097D01*
X54524900Y-147644947D01*
X54385519Y-147551815D01*
X54266985Y-147433281D01*
X54173853Y-147293900D01*
X54109703Y-147139028D01*
X54077000Y-146974616D01*
X54077000Y-146806984D01*
X54109703Y-146642572D01*
X54173853Y-146487700D01*
X54266985Y-146348319D01*
X54385519Y-146229785D01*
X54524900Y-146136653D01*
X54679772Y-146072503D01*
X54844184Y-146039800D01*
X55011816Y-146039800D01*
X55176228Y-146072503D01*
G37*
G36*
X39936228Y-146072503D02*
G01*
X40091100Y-146136653D01*
X40230481Y-146229785D01*
X40349015Y-146348319D01*
X40442147Y-146487700D01*
X40506297Y-146642572D01*
X40539000Y-146806984D01*
X40539000Y-146974616D01*
X40506297Y-147139028D01*
X40442147Y-147293900D01*
X40349015Y-147433281D01*
X40230481Y-147551815D01*
X40091100Y-147644947D01*
X39936228Y-147709097D01*
X39771816Y-147741800D01*
X39604184Y-147741800D01*
X39439772Y-147709097D01*
X39284900Y-147644947D01*
X39145519Y-147551815D01*
X39026985Y-147433281D01*
X38933853Y-147293900D01*
X38869703Y-147139028D01*
X38837000Y-146974616D01*
X38837000Y-146806984D01*
X38869703Y-146642572D01*
X38933853Y-146487700D01*
X39026985Y-146348319D01*
X39145519Y-146229785D01*
X39284900Y-146136653D01*
X39439772Y-146072503D01*
X39604184Y-146039800D01*
X39771816Y-146039800D01*
X39936228Y-146072503D01*
G37*
G36*
X72453228Y-143830503D02*
G01*
X72608100Y-143894653D01*
X72747481Y-143987785D01*
X72866015Y-144106319D01*
X72959147Y-144245700D01*
X73023297Y-144400572D01*
X73056000Y-144564984D01*
X73056000Y-144732616D01*
X73023297Y-144897028D01*
X72959147Y-145051900D01*
X72866015Y-145191281D01*
X72747481Y-145309815D01*
X72608100Y-145402947D01*
X72453228Y-145467097D01*
X72288816Y-145499800D01*
X72121184Y-145499800D01*
X71956772Y-145467097D01*
X71801900Y-145402947D01*
X71662519Y-145309815D01*
X71543985Y-145191281D01*
X71450853Y-145051900D01*
X71386703Y-144897028D01*
X71354000Y-144732616D01*
X71354000Y-144564984D01*
X71386703Y-144400572D01*
X71450853Y-144245700D01*
X71543985Y-144106319D01*
X71662519Y-143987785D01*
X71801900Y-143894653D01*
X71956772Y-143830503D01*
X72121184Y-143797800D01*
X72288816Y-143797800D01*
X72453228Y-143830503D01*
G37*
G36*
X64833228Y-143830503D02*
G01*
X64988100Y-143894653D01*
X65127481Y-143987785D01*
X65246015Y-144106319D01*
X65339147Y-144245700D01*
X65403297Y-144400572D01*
X65436000Y-144564984D01*
X65436000Y-144732616D01*
X65403297Y-144897028D01*
X65339147Y-145051900D01*
X65246015Y-145191281D01*
X65127481Y-145309815D01*
X64988100Y-145402947D01*
X64833228Y-145467097D01*
X64668816Y-145499800D01*
X64501184Y-145499800D01*
X64336772Y-145467097D01*
X64181900Y-145402947D01*
X64042519Y-145309815D01*
X63923985Y-145191281D01*
X63830853Y-145051900D01*
X63766703Y-144897028D01*
X63734000Y-144732616D01*
X63734000Y-144564984D01*
X63766703Y-144400572D01*
X63830853Y-144245700D01*
X63923985Y-144106319D01*
X64042519Y-143987785D01*
X64181900Y-143894653D01*
X64336772Y-143830503D01*
X64501184Y-143797800D01*
X64668816Y-143797800D01*
X64833228Y-143830503D01*
G37*
G36*
X39936228Y-143532503D02*
G01*
X40091100Y-143596653D01*
X40230481Y-143689785D01*
X40349015Y-143808319D01*
X40442147Y-143947700D01*
X40506297Y-144102572D01*
X40539000Y-144266984D01*
X40539000Y-144434616D01*
X40506297Y-144599028D01*
X40442147Y-144753900D01*
X40349015Y-144893281D01*
X40230481Y-145011815D01*
X40091100Y-145104947D01*
X39936228Y-145169097D01*
X39771816Y-145201800D01*
X39604184Y-145201800D01*
X39439772Y-145169097D01*
X39284900Y-145104947D01*
X39145519Y-145011815D01*
X39026985Y-144893281D01*
X38933853Y-144753900D01*
X38869703Y-144599028D01*
X38837000Y-144434616D01*
X38837000Y-144266984D01*
X38869703Y-144102572D01*
X38933853Y-143947700D01*
X39026985Y-143808319D01*
X39145519Y-143689785D01*
X39284900Y-143596653D01*
X39439772Y-143532503D01*
X39604184Y-143499800D01*
X39771816Y-143499800D01*
X39936228Y-143532503D01*
G37*
G36*
X55176228Y-143532503D02*
G01*
X55331100Y-143596653D01*
X55470481Y-143689785D01*
X55589015Y-143808319D01*
X55682147Y-143947700D01*
X55746297Y-144102572D01*
X55779000Y-144266984D01*
X55779000Y-144434616D01*
X55746297Y-144599028D01*
X55682147Y-144753900D01*
X55589015Y-144893281D01*
X55470481Y-145011815D01*
X55331100Y-145104947D01*
X55176228Y-145169097D01*
X55011816Y-145201800D01*
X54844184Y-145201800D01*
X54679772Y-145169097D01*
X54524900Y-145104947D01*
X54385519Y-145011815D01*
X54266985Y-144893281D01*
X54173853Y-144753900D01*
X54109703Y-144599028D01*
X54077000Y-144434616D01*
X54077000Y-144266984D01*
X54109703Y-144102572D01*
X54173853Y-143947700D01*
X54266985Y-143808319D01*
X54385519Y-143689785D01*
X54524900Y-143596653D01*
X54679772Y-143532503D01*
X54844184Y-143499800D01*
X55011816Y-143499800D01*
X55176228Y-143532503D01*
G37*
G36*
X106713916Y-141108022D02*
G01*
X106979917Y-141160933D01*
X107119448Y-141218729D01*
X107316776Y-141300464D01*
X107619943Y-141503034D01*
X107877766Y-141760857D01*
X108080336Y-142064024D01*
X108140376Y-142208974D01*
X108207080Y-142370012D01*
X108219867Y-142400884D01*
X108291000Y-142758491D01*
X108291000Y-143123109D01*
X108276533Y-143195839D01*
X108219867Y-143480717D01*
X108175377Y-143588126D01*
X108080336Y-143817576D01*
X107877766Y-144120743D01*
X107619943Y-144378566D01*
X107316776Y-144581136D01*
X107119448Y-144662871D01*
X106979917Y-144720667D01*
X106919850Y-144732615D01*
X106622309Y-144791800D01*
X106257691Y-144791800D01*
X105960150Y-144732615D01*
X105900083Y-144720667D01*
X105760552Y-144662871D01*
X105563224Y-144581136D01*
X105260057Y-144378566D01*
X105002234Y-144120743D01*
X104799664Y-143817576D01*
X104704623Y-143588126D01*
X104660133Y-143480717D01*
X104603467Y-143195839D01*
X104589000Y-143123109D01*
X104589000Y-142758491D01*
X104660133Y-142400884D01*
X104672921Y-142370012D01*
X104739624Y-142208974D01*
X104799664Y-142064024D01*
X105002234Y-141760857D01*
X105260057Y-141503034D01*
X105563224Y-141300464D01*
X105760552Y-141218729D01*
X105900083Y-141160933D01*
X106166084Y-141108022D01*
X106257691Y-141089800D01*
X106622309Y-141089800D01*
X106713916Y-141108022D01*
G37*
G36*
X87739472Y-141649212D02*
G01*
X87835040Y-141658625D01*
X88080280Y-141733018D01*
X88306294Y-141853825D01*
X88355996Y-141894615D01*
X88504397Y-142016403D01*
X88624624Y-142162901D01*
X88666975Y-142214506D01*
X88787782Y-142440520D01*
X88862175Y-142685760D01*
X88887294Y-142940800D01*
X88862175Y-143195840D01*
X88787782Y-143441080D01*
X88666975Y-143667094D01*
X88624624Y-143718699D01*
X88504397Y-143865197D01*
X88357899Y-143985424D01*
X88306294Y-144027775D01*
X88269730Y-144047319D01*
X88155177Y-144108549D01*
X88080280Y-144148582D01*
X87835040Y-144222975D01*
X87739473Y-144232387D01*
X87643906Y-144241800D01*
X85516094Y-144241800D01*
X85420527Y-144232387D01*
X85324960Y-144222975D01*
X85079720Y-144148582D01*
X85004824Y-144108549D01*
X84890270Y-144047319D01*
X84853706Y-144027775D01*
X84802101Y-143985424D01*
X84655603Y-143865197D01*
X84535376Y-143718699D01*
X84493025Y-143667094D01*
X84372218Y-143441080D01*
X84297825Y-143195840D01*
X84272706Y-142940800D01*
X84297825Y-142685760D01*
X84372218Y-142440520D01*
X84493025Y-142214506D01*
X84535376Y-142162901D01*
X84655603Y-142016403D01*
X84804004Y-141894615D01*
X84853706Y-141853825D01*
X85079720Y-141733018D01*
X85324960Y-141658625D01*
X85420528Y-141649212D01*
X85516094Y-141639800D01*
X87643906Y-141639800D01*
X87739472Y-141649212D01*
G37*
G36*
X92524807Y-142945998D02*
G01*
X92562818Y-142957529D01*
X92597842Y-142976249D01*
X92628549Y-143001451D01*
X92653751Y-143032158D01*
X92672471Y-143067182D01*
X92684002Y-143105193D01*
X92688500Y-143150863D01*
X92688500Y-143959137D01*
X92684002Y-144004807D01*
X92672471Y-144042818D01*
X92653751Y-144077842D01*
X92628549Y-144108549D01*
X92597842Y-144133751D01*
X92562818Y-144152471D01*
X92524807Y-144164002D01*
X92479137Y-144168500D01*
X89395863Y-144168500D01*
X89350193Y-144164002D01*
X89312182Y-144152471D01*
X89277158Y-144133751D01*
X89246451Y-144108549D01*
X89221249Y-144077842D01*
X89202529Y-144042818D01*
X89190998Y-144004807D01*
X89186500Y-143959137D01*
X89186500Y-143150863D01*
X89190998Y-143105193D01*
X89202529Y-143067182D01*
X89221249Y-143032158D01*
X89246451Y-143001451D01*
X89277158Y-142976249D01*
X89312182Y-142957529D01*
X89350193Y-142945998D01*
X89395863Y-142941500D01*
X92479137Y-142941500D01*
X92524807Y-142945998D01*
G37*
G36*
X33847468Y-142208365D02*
G01*
X33886138Y-142220096D01*
X33921777Y-142239146D01*
X33953017Y-142264783D01*
X33978654Y-142296023D01*
X33997704Y-142331662D01*
X34009435Y-142370332D01*
X34014000Y-142416688D01*
X34014000Y-143492912D01*
X34009435Y-143539268D01*
X33997704Y-143577938D01*
X33978654Y-143613577D01*
X33953017Y-143644817D01*
X33921777Y-143670454D01*
X33886138Y-143689504D01*
X33847468Y-143701235D01*
X33801112Y-143705800D01*
X33149888Y-143705800D01*
X33103532Y-143701235D01*
X33064862Y-143689504D01*
X33029223Y-143670454D01*
X32997983Y-143644817D01*
X32972346Y-143613577D01*
X32953296Y-143577938D01*
X32941565Y-143539268D01*
X32937000Y-143492912D01*
X32937000Y-142416688D01*
X32941565Y-142370332D01*
X32953296Y-142331662D01*
X32972346Y-142296023D01*
X32997983Y-142264783D01*
X33029223Y-142239146D01*
X33064862Y-142220096D01*
X33103532Y-142208365D01*
X33149888Y-142203800D01*
X33801112Y-142203800D01*
X33847468Y-142208365D01*
G37*
G36*
X31972468Y-142208365D02*
G01*
X32011138Y-142220096D01*
X32046777Y-142239146D01*
X32078017Y-142264783D01*
X32103654Y-142296023D01*
X32122704Y-142331662D01*
X32134435Y-142370332D01*
X32139000Y-142416688D01*
X32139000Y-143492912D01*
X32134435Y-143539268D01*
X32122704Y-143577938D01*
X32103654Y-143613577D01*
X32078017Y-143644817D01*
X32046777Y-143670454D01*
X32011138Y-143689504D01*
X31972468Y-143701235D01*
X31926112Y-143705800D01*
X31274888Y-143705800D01*
X31228532Y-143701235D01*
X31189862Y-143689504D01*
X31154223Y-143670454D01*
X31122983Y-143644817D01*
X31097346Y-143613577D01*
X31078296Y-143577938D01*
X31066565Y-143539268D01*
X31062000Y-143492912D01*
X31062000Y-142416688D01*
X31066565Y-142370332D01*
X31078296Y-142331662D01*
X31097346Y-142296023D01*
X31122983Y-142264783D01*
X31154223Y-142239146D01*
X31189862Y-142220096D01*
X31228532Y-142208365D01*
X31274888Y-142203800D01*
X31926112Y-142203800D01*
X31972468Y-142208365D01*
G37*
G36*
X28767512Y-141820727D02*
G01*
X28916812Y-141850424D01*
X29080784Y-141918344D01*
X29228354Y-142016947D01*
X29353853Y-142142446D01*
X29452456Y-142290016D01*
X29520376Y-142453988D01*
X29555000Y-142628059D01*
X29555000Y-142805541D01*
X29520376Y-142979612D01*
X29452456Y-143143584D01*
X29353853Y-143291154D01*
X29228354Y-143416653D01*
X29080784Y-143515256D01*
X28916812Y-143583176D01*
X28767512Y-143612873D01*
X28742742Y-143617800D01*
X28565258Y-143617800D01*
X28540488Y-143612873D01*
X28391188Y-143583176D01*
X28227216Y-143515256D01*
X28079646Y-143416653D01*
X27954147Y-143291154D01*
X27855544Y-143143584D01*
X27787624Y-142979612D01*
X27753000Y-142805541D01*
X27753000Y-142628059D01*
X27787624Y-142453988D01*
X27855544Y-142290016D01*
X27954147Y-142142446D01*
X28079646Y-142016947D01*
X28227216Y-141918344D01*
X28391188Y-141850424D01*
X28540488Y-141820727D01*
X28565258Y-141815800D01*
X28742742Y-141815800D01*
X28767512Y-141820727D01*
G37*
G36*
X78250468Y-142520865D02*
G01*
X78289138Y-142532596D01*
X78324777Y-142551646D01*
X78356017Y-142577283D01*
X78381654Y-142608523D01*
X78400704Y-142644162D01*
X78412435Y-142682832D01*
X78417000Y-142729188D01*
X78417000Y-143380412D01*
X78412435Y-143426768D01*
X78400704Y-143465438D01*
X78381654Y-143501077D01*
X78356017Y-143532317D01*
X78324777Y-143557954D01*
X78289138Y-143577004D01*
X78250468Y-143588735D01*
X78204112Y-143593300D01*
X77127888Y-143593300D01*
X77081532Y-143588735D01*
X77042862Y-143577004D01*
X77007223Y-143557954D01*
X76975983Y-143532317D01*
X76950346Y-143501077D01*
X76931296Y-143465438D01*
X76919565Y-143426768D01*
X76915000Y-143380412D01*
X76915000Y-142729188D01*
X76919565Y-142682832D01*
X76931296Y-142644162D01*
X76950346Y-142608523D01*
X76975983Y-142577283D01*
X77007223Y-142551646D01*
X77042862Y-142532596D01*
X77081532Y-142520865D01*
X77127888Y-142516300D01*
X78204112Y-142516300D01*
X78250468Y-142520865D01*
G37*
G36*
X64833228Y-141290503D02*
G01*
X64988100Y-141354653D01*
X65127481Y-141447785D01*
X65246015Y-141566319D01*
X65339147Y-141705700D01*
X65403297Y-141860572D01*
X65436000Y-142024984D01*
X65436000Y-142192616D01*
X65403297Y-142357028D01*
X65339147Y-142511900D01*
X65246015Y-142651281D01*
X65127481Y-142769815D01*
X64988100Y-142862947D01*
X64833228Y-142927097D01*
X64668816Y-142959800D01*
X64501184Y-142959800D01*
X64336772Y-142927097D01*
X64181900Y-142862947D01*
X64042519Y-142769815D01*
X63923985Y-142651281D01*
X63830853Y-142511900D01*
X63766703Y-142357028D01*
X63734000Y-142192616D01*
X63734000Y-142024984D01*
X63766703Y-141860572D01*
X63830853Y-141705700D01*
X63923985Y-141566319D01*
X64042519Y-141447785D01*
X64181900Y-141354653D01*
X64336772Y-141290503D01*
X64501184Y-141257800D01*
X64668816Y-141257800D01*
X64833228Y-141290503D01*
G37*
G36*
X72453228Y-141290503D02*
G01*
X72608100Y-141354653D01*
X72747481Y-141447785D01*
X72866015Y-141566319D01*
X72959147Y-141705700D01*
X73023297Y-141860572D01*
X73056000Y-142024984D01*
X73056000Y-142192616D01*
X73023297Y-142357028D01*
X72959147Y-142511900D01*
X72866015Y-142651281D01*
X72747481Y-142769815D01*
X72608100Y-142862947D01*
X72453228Y-142927097D01*
X72288816Y-142959800D01*
X72121184Y-142959800D01*
X71956772Y-142927097D01*
X71801900Y-142862947D01*
X71662519Y-142769815D01*
X71543985Y-142651281D01*
X71450853Y-142511900D01*
X71386703Y-142357028D01*
X71354000Y-142192616D01*
X71354000Y-142024984D01*
X71386703Y-141860572D01*
X71450853Y-141705700D01*
X71543985Y-141566319D01*
X71662519Y-141447785D01*
X71801900Y-141354653D01*
X71956772Y-141290503D01*
X72121184Y-141257800D01*
X72288816Y-141257800D01*
X72453228Y-141290503D01*
G37*
G36*
X55176228Y-140992503D02*
G01*
X55331100Y-141056653D01*
X55470481Y-141149785D01*
X55589015Y-141268319D01*
X55682147Y-141407700D01*
X55746297Y-141562572D01*
X55779000Y-141726984D01*
X55779000Y-141894616D01*
X55746297Y-142059028D01*
X55682147Y-142213900D01*
X55589015Y-142353281D01*
X55470481Y-142471815D01*
X55331100Y-142564947D01*
X55176228Y-142629097D01*
X55011816Y-142661800D01*
X54844184Y-142661800D01*
X54679772Y-142629097D01*
X54524900Y-142564947D01*
X54385519Y-142471815D01*
X54266985Y-142353281D01*
X54173853Y-142213900D01*
X54109703Y-142059028D01*
X54077000Y-141894616D01*
X54077000Y-141726984D01*
X54109703Y-141562572D01*
X54173853Y-141407700D01*
X54266985Y-141268319D01*
X54385519Y-141149785D01*
X54524900Y-141056653D01*
X54679772Y-140992503D01*
X54844184Y-140959800D01*
X55011816Y-140959800D01*
X55176228Y-140992503D01*
G37*
G36*
X39936228Y-140992503D02*
G01*
X40091100Y-141056653D01*
X40230481Y-141149785D01*
X40349015Y-141268319D01*
X40442147Y-141407700D01*
X40506297Y-141562572D01*
X40539000Y-141726984D01*
X40539000Y-141894616D01*
X40506297Y-142059028D01*
X40442147Y-142213900D01*
X40349015Y-142353281D01*
X40230481Y-142471815D01*
X40091100Y-142564947D01*
X39936228Y-142629097D01*
X39771816Y-142661800D01*
X39604184Y-142661800D01*
X39439772Y-142629097D01*
X39284900Y-142564947D01*
X39145519Y-142471815D01*
X39026985Y-142353281D01*
X38933853Y-142213900D01*
X38869703Y-142059028D01*
X38837000Y-141894616D01*
X38837000Y-141726984D01*
X38869703Y-141562572D01*
X38933853Y-141407700D01*
X39026985Y-141268319D01*
X39145519Y-141149785D01*
X39284900Y-141056653D01*
X39439772Y-140992503D01*
X39604184Y-140959800D01*
X39771816Y-140959800D01*
X39936228Y-140992503D01*
G37*
G36*
X62272468Y-140895865D02*
G01*
X62311138Y-140907596D01*
X62346777Y-140926646D01*
X62378017Y-140952283D01*
X62403654Y-140983523D01*
X62422704Y-141019162D01*
X62434435Y-141057832D01*
X62439000Y-141104188D01*
X62439000Y-141755412D01*
X62434435Y-141801768D01*
X62422704Y-141840438D01*
X62403654Y-141876077D01*
X62378017Y-141907317D01*
X62346777Y-141932954D01*
X62311138Y-141952004D01*
X62272468Y-141963735D01*
X62226112Y-141968300D01*
X61149888Y-141968300D01*
X61103532Y-141963735D01*
X61064862Y-141952004D01*
X61029223Y-141932954D01*
X60997983Y-141907317D01*
X60972346Y-141876077D01*
X60953296Y-141840438D01*
X60941565Y-141801768D01*
X60937000Y-141755412D01*
X60937000Y-141104188D01*
X60941565Y-141057832D01*
X60953296Y-141019162D01*
X60972346Y-140983523D01*
X60997983Y-140952283D01*
X61029223Y-140926646D01*
X61064862Y-140907596D01*
X61103532Y-140895865D01*
X61149888Y-140891300D01*
X62226112Y-140891300D01*
X62272468Y-140895865D01*
G37*
G36*
X78250468Y-140645865D02*
G01*
X78289138Y-140657596D01*
X78324777Y-140676646D01*
X78356017Y-140702283D01*
X78381654Y-140733523D01*
X78400704Y-140769162D01*
X78412435Y-140807832D01*
X78417000Y-140854188D01*
X78417000Y-141505412D01*
X78412435Y-141551768D01*
X78400704Y-141590438D01*
X78381654Y-141626077D01*
X78356017Y-141657317D01*
X78324777Y-141682954D01*
X78289138Y-141702004D01*
X78250468Y-141713735D01*
X78204112Y-141718300D01*
X77127888Y-141718300D01*
X77081532Y-141713735D01*
X77042862Y-141702004D01*
X77007223Y-141682954D01*
X76975983Y-141657317D01*
X76950346Y-141626077D01*
X76931296Y-141590438D01*
X76919565Y-141551768D01*
X76915000Y-141505412D01*
X76915000Y-140854188D01*
X76919565Y-140807832D01*
X76931296Y-140769162D01*
X76950346Y-140733523D01*
X76975983Y-140702283D01*
X77007223Y-140676646D01*
X77042862Y-140657596D01*
X77081532Y-140645865D01*
X77127888Y-140641300D01*
X78204112Y-140641300D01*
X78250468Y-140645865D01*
G37*
G36*
X31972468Y-140008365D02*
G01*
X32011138Y-140020096D01*
X32046777Y-140039146D01*
X32078017Y-140064783D01*
X32103654Y-140096023D01*
X32122704Y-140131662D01*
X32134435Y-140170332D01*
X32139000Y-140216688D01*
X32139000Y-141292912D01*
X32134435Y-141339268D01*
X32122704Y-141377938D01*
X32103654Y-141413577D01*
X32078017Y-141444817D01*
X32046777Y-141470454D01*
X32011138Y-141489504D01*
X31972468Y-141501235D01*
X31926112Y-141505800D01*
X31274888Y-141505800D01*
X31228532Y-141501235D01*
X31189862Y-141489504D01*
X31154223Y-141470454D01*
X31122983Y-141444817D01*
X31097346Y-141413577D01*
X31078296Y-141377938D01*
X31066565Y-141339268D01*
X31062000Y-141292912D01*
X31062000Y-140216688D01*
X31066565Y-140170332D01*
X31078296Y-140131662D01*
X31097346Y-140096023D01*
X31122983Y-140064783D01*
X31154223Y-140039146D01*
X31189862Y-140020096D01*
X31228532Y-140008365D01*
X31274888Y-140003800D01*
X31926112Y-140003800D01*
X31972468Y-140008365D01*
G37*
G36*
X33847468Y-140008365D02*
G01*
X33886138Y-140020096D01*
X33921777Y-140039146D01*
X33953017Y-140064783D01*
X33978654Y-140096023D01*
X33997704Y-140131662D01*
X34009435Y-140170332D01*
X34014000Y-140216688D01*
X34014000Y-141292912D01*
X34009435Y-141339268D01*
X33997704Y-141377938D01*
X33978654Y-141413577D01*
X33953017Y-141444817D01*
X33921777Y-141470454D01*
X33886138Y-141489504D01*
X33847468Y-141501235D01*
X33801112Y-141505800D01*
X33149888Y-141505800D01*
X33103532Y-141501235D01*
X33064862Y-141489504D01*
X33029223Y-141470454D01*
X32997983Y-141444817D01*
X32972346Y-141413577D01*
X32953296Y-141377938D01*
X32941565Y-141339268D01*
X32937000Y-141292912D01*
X32937000Y-140216688D01*
X32941565Y-140170332D01*
X32953296Y-140131662D01*
X32972346Y-140096023D01*
X32997983Y-140064783D01*
X33029223Y-140039146D01*
X33064862Y-140020096D01*
X33103532Y-140008365D01*
X33149888Y-140003800D01*
X33801112Y-140003800D01*
X33847468Y-140008365D01*
G37*
G36*
X29555000Y-141077800D02*
G01*
X27753000Y-141077800D01*
X27753000Y-139275800D01*
X29555000Y-139275800D01*
X29555000Y-141077800D01*
G37*
G36*
X64833228Y-138750503D02*
G01*
X64988100Y-138814653D01*
X65127481Y-138907785D01*
X65246015Y-139026319D01*
X65339147Y-139165700D01*
X65403297Y-139320572D01*
X65436000Y-139484984D01*
X65436000Y-139652616D01*
X65403297Y-139817028D01*
X65339147Y-139971900D01*
X65246015Y-140111281D01*
X65127481Y-140229815D01*
X64988100Y-140322947D01*
X64833228Y-140387097D01*
X64668816Y-140419800D01*
X64501184Y-140419800D01*
X64336772Y-140387097D01*
X64181900Y-140322947D01*
X64042519Y-140229815D01*
X63923985Y-140111281D01*
X63830853Y-139971900D01*
X63766703Y-139817028D01*
X63734000Y-139652616D01*
X63734000Y-139484984D01*
X63766703Y-139320572D01*
X63830853Y-139165700D01*
X63923985Y-139026319D01*
X64042519Y-138907785D01*
X64181900Y-138814653D01*
X64336772Y-138750503D01*
X64501184Y-138717800D01*
X64668816Y-138717800D01*
X64833228Y-138750503D01*
G37*
G36*
X72453228Y-138750503D02*
G01*
X72608100Y-138814653D01*
X72747481Y-138907785D01*
X72866015Y-139026319D01*
X72959147Y-139165700D01*
X73023297Y-139320572D01*
X73056000Y-139484984D01*
X73056000Y-139652616D01*
X73023297Y-139817028D01*
X72959147Y-139971900D01*
X72866015Y-140111281D01*
X72747481Y-140229815D01*
X72608100Y-140322947D01*
X72453228Y-140387097D01*
X72288816Y-140419800D01*
X72121184Y-140419800D01*
X71956772Y-140387097D01*
X71801900Y-140322947D01*
X71662519Y-140229815D01*
X71543985Y-140111281D01*
X71450853Y-139971900D01*
X71386703Y-139817028D01*
X71354000Y-139652616D01*
X71354000Y-139484984D01*
X71386703Y-139320572D01*
X71450853Y-139165700D01*
X71543985Y-139026319D01*
X71662519Y-138907785D01*
X71801900Y-138814653D01*
X71956772Y-138750503D01*
X72121184Y-138717800D01*
X72288816Y-138717800D01*
X72453228Y-138750503D01*
G37*
G36*
X39936228Y-138452503D02*
G01*
X40091100Y-138516653D01*
X40230481Y-138609785D01*
X40349015Y-138728319D01*
X40442147Y-138867700D01*
X40506297Y-139022572D01*
X40539000Y-139186984D01*
X40539000Y-139354616D01*
X40506297Y-139519028D01*
X40442147Y-139673900D01*
X40349015Y-139813281D01*
X40230481Y-139931815D01*
X40091100Y-140024947D01*
X39936228Y-140089097D01*
X39771816Y-140121800D01*
X39604184Y-140121800D01*
X39439772Y-140089097D01*
X39284900Y-140024947D01*
X39145519Y-139931815D01*
X39026985Y-139813281D01*
X38933853Y-139673900D01*
X38869703Y-139519028D01*
X38837000Y-139354616D01*
X38837000Y-139186984D01*
X38869703Y-139022572D01*
X38933853Y-138867700D01*
X39026985Y-138728319D01*
X39145519Y-138609785D01*
X39284900Y-138516653D01*
X39439772Y-138452503D01*
X39604184Y-138419800D01*
X39771816Y-138419800D01*
X39936228Y-138452503D01*
G37*
G36*
X55176228Y-138452503D02*
G01*
X55331100Y-138516653D01*
X55470481Y-138609785D01*
X55589015Y-138728319D01*
X55682147Y-138867700D01*
X55746297Y-139022572D01*
X55779000Y-139186984D01*
X55779000Y-139354616D01*
X55746297Y-139519028D01*
X55682147Y-139673900D01*
X55589015Y-139813281D01*
X55470481Y-139931815D01*
X55331100Y-140024947D01*
X55176228Y-140089097D01*
X55011816Y-140121800D01*
X54844184Y-140121800D01*
X54679772Y-140089097D01*
X54524900Y-140024947D01*
X54385519Y-139931815D01*
X54266985Y-139813281D01*
X54173853Y-139673900D01*
X54109703Y-139519028D01*
X54077000Y-139354616D01*
X54077000Y-139186984D01*
X54109703Y-139022572D01*
X54173853Y-138867700D01*
X54266985Y-138728319D01*
X54385519Y-138609785D01*
X54524900Y-138516653D01*
X54679772Y-138452503D01*
X54844184Y-138419800D01*
X55011816Y-138419800D01*
X55176228Y-138452503D01*
G37*
G36*
X62272468Y-139020865D02*
G01*
X62311138Y-139032596D01*
X62346777Y-139051646D01*
X62378017Y-139077283D01*
X62403654Y-139108523D01*
X62422704Y-139144162D01*
X62434435Y-139182832D01*
X62439000Y-139229188D01*
X62439000Y-139880412D01*
X62434435Y-139926768D01*
X62422704Y-139965438D01*
X62403654Y-140001077D01*
X62378017Y-140032317D01*
X62346777Y-140057954D01*
X62311138Y-140077004D01*
X62272468Y-140088735D01*
X62226112Y-140093300D01*
X61149888Y-140093300D01*
X61103532Y-140088735D01*
X61064862Y-140077004D01*
X61029223Y-140057954D01*
X60997983Y-140032317D01*
X60972346Y-140001077D01*
X60953296Y-139965438D01*
X60941565Y-139926768D01*
X60937000Y-139880412D01*
X60937000Y-139229188D01*
X60941565Y-139182832D01*
X60953296Y-139144162D01*
X60972346Y-139108523D01*
X60997983Y-139077283D01*
X61029223Y-139051646D01*
X61064862Y-139032596D01*
X61103532Y-139020865D01*
X61149888Y-139016300D01*
X62226112Y-139016300D01*
X62272468Y-139020865D01*
G37*
G36*
X33847468Y-137808365D02*
G01*
X33886138Y-137820096D01*
X33921777Y-137839146D01*
X33953017Y-137864783D01*
X33978654Y-137896023D01*
X33997704Y-137931662D01*
X34009435Y-137970332D01*
X34014000Y-138016688D01*
X34014000Y-139092912D01*
X34009435Y-139139268D01*
X33997704Y-139177938D01*
X33978654Y-139213577D01*
X33953017Y-139244817D01*
X33921777Y-139270454D01*
X33886138Y-139289504D01*
X33847468Y-139301235D01*
X33801112Y-139305800D01*
X33149888Y-139305800D01*
X33103532Y-139301235D01*
X33064862Y-139289504D01*
X33029223Y-139270454D01*
X32997983Y-139244817D01*
X32972346Y-139213577D01*
X32953296Y-139177938D01*
X32941565Y-139139268D01*
X32937000Y-139092912D01*
X32937000Y-138016688D01*
X32941565Y-137970332D01*
X32953296Y-137931662D01*
X32972346Y-137896023D01*
X32997983Y-137864783D01*
X33029223Y-137839146D01*
X33064862Y-137820096D01*
X33103532Y-137808365D01*
X33149888Y-137803800D01*
X33801112Y-137803800D01*
X33847468Y-137808365D01*
G37*
G36*
X31972468Y-137808365D02*
G01*
X32011138Y-137820096D01*
X32046777Y-137839146D01*
X32078017Y-137864783D01*
X32103654Y-137896023D01*
X32122704Y-137931662D01*
X32134435Y-137970332D01*
X32139000Y-138016688D01*
X32139000Y-139092912D01*
X32134435Y-139139268D01*
X32122704Y-139177938D01*
X32103654Y-139213577D01*
X32078017Y-139244817D01*
X32046777Y-139270454D01*
X32011138Y-139289504D01*
X31972468Y-139301235D01*
X31926112Y-139305800D01*
X31274888Y-139305800D01*
X31228532Y-139301235D01*
X31189862Y-139289504D01*
X31154223Y-139270454D01*
X31122983Y-139244817D01*
X31097346Y-139213577D01*
X31078296Y-139177938D01*
X31066565Y-139139268D01*
X31062000Y-139092912D01*
X31062000Y-138016688D01*
X31066565Y-137970332D01*
X31078296Y-137931662D01*
X31097346Y-137896023D01*
X31122983Y-137864783D01*
X31154223Y-137839146D01*
X31189862Y-137820096D01*
X31228532Y-137808365D01*
X31274888Y-137803800D01*
X31926112Y-137803800D01*
X31972468Y-137808365D01*
G37*
G36*
X83801000Y-138791800D02*
G01*
X79199000Y-138791800D01*
X79199000Y-136189800D01*
X83801000Y-136189800D01*
X83801000Y-138791800D01*
G37*
G36*
X77184968Y-136808365D02*
G01*
X77223638Y-136820096D01*
X77259277Y-136839146D01*
X77290517Y-136864783D01*
X77316154Y-136896023D01*
X77335204Y-136931662D01*
X77346935Y-136970332D01*
X77351500Y-137016688D01*
X77351500Y-138092912D01*
X77346935Y-138139268D01*
X77335204Y-138177938D01*
X77316154Y-138213577D01*
X77290517Y-138244817D01*
X77259277Y-138270454D01*
X77223638Y-138289504D01*
X77184968Y-138301235D01*
X77138612Y-138305800D01*
X76487388Y-138305800D01*
X76441032Y-138301235D01*
X76402362Y-138289504D01*
X76366723Y-138270454D01*
X76335483Y-138244817D01*
X76309846Y-138213577D01*
X76290796Y-138177938D01*
X76279065Y-138139268D01*
X76274500Y-138092912D01*
X76274500Y-137016688D01*
X76279065Y-136970332D01*
X76290796Y-136931662D01*
X76309846Y-136896023D01*
X76335483Y-136864783D01*
X76366723Y-136839146D01*
X76402362Y-136820096D01*
X76441032Y-136808365D01*
X76487388Y-136803800D01*
X77138612Y-136803800D01*
X77184968Y-136808365D01*
G37*
G36*
X75309968Y-136808365D02*
G01*
X75348638Y-136820096D01*
X75384277Y-136839146D01*
X75415517Y-136864783D01*
X75441154Y-136896023D01*
X75460204Y-136931662D01*
X75471935Y-136970332D01*
X75476500Y-137016688D01*
X75476500Y-138092912D01*
X75471935Y-138139268D01*
X75460204Y-138177938D01*
X75441154Y-138213577D01*
X75415517Y-138244817D01*
X75384277Y-138270454D01*
X75348638Y-138289504D01*
X75309968Y-138301235D01*
X75263612Y-138305800D01*
X74612388Y-138305800D01*
X74566032Y-138301235D01*
X74527362Y-138289504D01*
X74491723Y-138270454D01*
X74460483Y-138244817D01*
X74434846Y-138213577D01*
X74415796Y-138177938D01*
X74404065Y-138139268D01*
X74399500Y-138092912D01*
X74399500Y-137016688D01*
X74404065Y-136970332D01*
X74415796Y-136931662D01*
X74434846Y-136896023D01*
X74460483Y-136864783D01*
X74491723Y-136839146D01*
X74527362Y-136820096D01*
X74566032Y-136808365D01*
X74612388Y-136803800D01*
X75263612Y-136803800D01*
X75309968Y-136808365D01*
G37*
G36*
X19572468Y-136608365D02*
G01*
X19611138Y-136620096D01*
X19646777Y-136639146D01*
X19678017Y-136664783D01*
X19703654Y-136696023D01*
X19722704Y-136731662D01*
X19734435Y-136770332D01*
X19739000Y-136816688D01*
X19739000Y-137892912D01*
X19734435Y-137939268D01*
X19722704Y-137977938D01*
X19703654Y-138013577D01*
X19678017Y-138044817D01*
X19646777Y-138070454D01*
X19611138Y-138089504D01*
X19572468Y-138101235D01*
X19526112Y-138105800D01*
X18874888Y-138105800D01*
X18828532Y-138101235D01*
X18789862Y-138089504D01*
X18754223Y-138070454D01*
X18722983Y-138044817D01*
X18697346Y-138013577D01*
X18678296Y-137977938D01*
X18666565Y-137939268D01*
X18662000Y-137892912D01*
X18662000Y-136816688D01*
X18666565Y-136770332D01*
X18678296Y-136731662D01*
X18697346Y-136696023D01*
X18722983Y-136664783D01*
X18754223Y-136639146D01*
X18789862Y-136620096D01*
X18828532Y-136608365D01*
X18874888Y-136603800D01*
X19526112Y-136603800D01*
X19572468Y-136608365D01*
G37*
G36*
X21447468Y-136608365D02*
G01*
X21486138Y-136620096D01*
X21521777Y-136639146D01*
X21553017Y-136664783D01*
X21578654Y-136696023D01*
X21597704Y-136731662D01*
X21609435Y-136770332D01*
X21614000Y-136816688D01*
X21614000Y-137892912D01*
X21609435Y-137939268D01*
X21597704Y-137977938D01*
X21578654Y-138013577D01*
X21553017Y-138044817D01*
X21521777Y-138070454D01*
X21486138Y-138089504D01*
X21447468Y-138101235D01*
X21401112Y-138105800D01*
X20749888Y-138105800D01*
X20703532Y-138101235D01*
X20664862Y-138089504D01*
X20629223Y-138070454D01*
X20597983Y-138044817D01*
X20572346Y-138013577D01*
X20553296Y-137977938D01*
X20541565Y-137939268D01*
X20537000Y-137892912D01*
X20537000Y-136816688D01*
X20541565Y-136770332D01*
X20553296Y-136731662D01*
X20572346Y-136696023D01*
X20597983Y-136664783D01*
X20629223Y-136639146D01*
X20664862Y-136620096D01*
X20703532Y-136608365D01*
X20749888Y-136603800D01*
X21401112Y-136603800D01*
X21447468Y-136608365D01*
G37*
G36*
X72453228Y-136210503D02*
G01*
X72608100Y-136274653D01*
X72747481Y-136367785D01*
X72866015Y-136486319D01*
X72959147Y-136625700D01*
X73023297Y-136780572D01*
X73056000Y-136944984D01*
X73056000Y-137112616D01*
X73023297Y-137277028D01*
X72959147Y-137431900D01*
X72866015Y-137571281D01*
X72747481Y-137689815D01*
X72608100Y-137782947D01*
X72453228Y-137847097D01*
X72288816Y-137879800D01*
X72121184Y-137879800D01*
X71956772Y-137847097D01*
X71801900Y-137782947D01*
X71662519Y-137689815D01*
X71543985Y-137571281D01*
X71450853Y-137431900D01*
X71386703Y-137277028D01*
X71354000Y-137112616D01*
X71354000Y-136944984D01*
X71386703Y-136780572D01*
X71450853Y-136625700D01*
X71543985Y-136486319D01*
X71662519Y-136367785D01*
X71801900Y-136274653D01*
X71956772Y-136210503D01*
X72121184Y-136177800D01*
X72288816Y-136177800D01*
X72453228Y-136210503D01*
G37*
G36*
X65436000Y-137879800D02*
G01*
X63734000Y-137879800D01*
X63734000Y-136177800D01*
X65436000Y-136177800D01*
X65436000Y-137879800D01*
G37*
G36*
X15917395Y-135746346D02*
G01*
X16090466Y-135818034D01*
X16167818Y-135869719D01*
X16246227Y-135922110D01*
X16378690Y-136054573D01*
X16378691Y-136054575D01*
X16482766Y-136210334D01*
X16554454Y-136383405D01*
X16591000Y-136567133D01*
X16591000Y-136754467D01*
X16554454Y-136938195D01*
X16482766Y-137111266D01*
X16481864Y-137112616D01*
X16378690Y-137267027D01*
X16246227Y-137399490D01*
X16197726Y-137431897D01*
X16090466Y-137503566D01*
X15917395Y-137575254D01*
X15733667Y-137611800D01*
X15546333Y-137611800D01*
X15362605Y-137575254D01*
X15189534Y-137503566D01*
X15082274Y-137431897D01*
X15033773Y-137399490D01*
X14901310Y-137267027D01*
X14798136Y-137112616D01*
X14797234Y-137111266D01*
X14725546Y-136938195D01*
X14689000Y-136754467D01*
X14689000Y-136567133D01*
X14725546Y-136383405D01*
X14797234Y-136210334D01*
X14901309Y-136054575D01*
X14901310Y-136054573D01*
X15033773Y-135922110D01*
X15112182Y-135869719D01*
X15189534Y-135818034D01*
X15362605Y-135746346D01*
X15546333Y-135709800D01*
X15733667Y-135709800D01*
X15917395Y-135746346D01*
G37*
G36*
X55176228Y-135912503D02*
G01*
X55331100Y-135976653D01*
X55470481Y-136069785D01*
X55589015Y-136188319D01*
X55682147Y-136327700D01*
X55746297Y-136482572D01*
X55779000Y-136646984D01*
X55779000Y-136814616D01*
X55746297Y-136979028D01*
X55682147Y-137133900D01*
X55589015Y-137273281D01*
X55470481Y-137391815D01*
X55331100Y-137484947D01*
X55176228Y-137549097D01*
X55011816Y-137581800D01*
X54844184Y-137581800D01*
X54679772Y-137549097D01*
X54524900Y-137484947D01*
X54385519Y-137391815D01*
X54266985Y-137273281D01*
X54173853Y-137133900D01*
X54109703Y-136979028D01*
X54077000Y-136814616D01*
X54077000Y-136646984D01*
X54109703Y-136482572D01*
X54173853Y-136327700D01*
X54266985Y-136188319D01*
X54385519Y-136069785D01*
X54524900Y-135976653D01*
X54679772Y-135912503D01*
X54844184Y-135879800D01*
X55011816Y-135879800D01*
X55176228Y-135912503D01*
G37*
G36*
X39936228Y-135912503D02*
G01*
X40091100Y-135976653D01*
X40230481Y-136069785D01*
X40349015Y-136188319D01*
X40442147Y-136327700D01*
X40506297Y-136482572D01*
X40539000Y-136646984D01*
X40539000Y-136814616D01*
X40506297Y-136979028D01*
X40442147Y-137133900D01*
X40349015Y-137273281D01*
X40230481Y-137391815D01*
X40091100Y-137484947D01*
X39936228Y-137549097D01*
X39771816Y-137581800D01*
X39604184Y-137581800D01*
X39439772Y-137549097D01*
X39284900Y-137484947D01*
X39145519Y-137391815D01*
X39026985Y-137273281D01*
X38933853Y-137133900D01*
X38869703Y-136979028D01*
X38837000Y-136814616D01*
X38837000Y-136646984D01*
X38869703Y-136482572D01*
X38933853Y-136327700D01*
X39026985Y-136188319D01*
X39145519Y-136069785D01*
X39284900Y-135976653D01*
X39439772Y-135912503D01*
X39604184Y-135879800D01*
X39771816Y-135879800D01*
X39936228Y-135912503D01*
G37*
G36*
X19922468Y-134758365D02*
G01*
X19961138Y-134770096D01*
X19996777Y-134789146D01*
X20028017Y-134814783D01*
X20053654Y-134846023D01*
X20072704Y-134881662D01*
X20084435Y-134920332D01*
X20089000Y-134966688D01*
X20089000Y-135617912D01*
X20084435Y-135664268D01*
X20072704Y-135702938D01*
X20053654Y-135738577D01*
X20028017Y-135769817D01*
X19996777Y-135795454D01*
X19961138Y-135814504D01*
X19922468Y-135826235D01*
X19876112Y-135830800D01*
X18799888Y-135830800D01*
X18753532Y-135826235D01*
X18714862Y-135814504D01*
X18679223Y-135795454D01*
X18647983Y-135769817D01*
X18622346Y-135738577D01*
X18603296Y-135702938D01*
X18591565Y-135664268D01*
X18587000Y-135617912D01*
X18587000Y-134966688D01*
X18591565Y-134920332D01*
X18603296Y-134881662D01*
X18622346Y-134846023D01*
X18647983Y-134814783D01*
X18679223Y-134789146D01*
X18714862Y-134770096D01*
X18753532Y-134758365D01*
X18799888Y-134753800D01*
X19876112Y-134753800D01*
X19922468Y-134758365D01*
G37*
G36*
X16591000Y-135071800D02*
G01*
X14689000Y-135071800D01*
X14689000Y-133169800D01*
X16591000Y-133169800D01*
X16591000Y-135071800D01*
G37*
G36*
X55176228Y-133372503D02*
G01*
X55331100Y-133436653D01*
X55470481Y-133529785D01*
X55589015Y-133648319D01*
X55682147Y-133787700D01*
X55746297Y-133942572D01*
X55779000Y-134106984D01*
X55779000Y-134274616D01*
X55746297Y-134439028D01*
X55682147Y-134593900D01*
X55589015Y-134733281D01*
X55470481Y-134851815D01*
X55331100Y-134944947D01*
X55176228Y-135009097D01*
X55011816Y-135041800D01*
X54844184Y-135041800D01*
X54679772Y-135009097D01*
X54524900Y-134944947D01*
X54385519Y-134851815D01*
X54266985Y-134733281D01*
X54173853Y-134593900D01*
X54109703Y-134439028D01*
X54077000Y-134274616D01*
X54077000Y-134106984D01*
X54109703Y-133942572D01*
X54173853Y-133787700D01*
X54266985Y-133648319D01*
X54385519Y-133529785D01*
X54524900Y-133436653D01*
X54679772Y-133372503D01*
X54844184Y-133339800D01*
X55011816Y-133339800D01*
X55176228Y-133372503D01*
G37*
G36*
X39936228Y-133372503D02*
G01*
X40091100Y-133436653D01*
X40230481Y-133529785D01*
X40349015Y-133648319D01*
X40442147Y-133787700D01*
X40506297Y-133942572D01*
X40539000Y-134106984D01*
X40539000Y-134274616D01*
X40506297Y-134439028D01*
X40442147Y-134593900D01*
X40349015Y-134733281D01*
X40230481Y-134851815D01*
X40091100Y-134944947D01*
X39936228Y-135009097D01*
X39771816Y-135041800D01*
X39604184Y-135041800D01*
X39439772Y-135009097D01*
X39284900Y-134944947D01*
X39145519Y-134851815D01*
X39026985Y-134733281D01*
X38933853Y-134593900D01*
X38869703Y-134439028D01*
X38837000Y-134274616D01*
X38837000Y-134106984D01*
X38869703Y-133942572D01*
X38933853Y-133787700D01*
X39026985Y-133648319D01*
X39145519Y-133529785D01*
X39284900Y-133436653D01*
X39439772Y-133372503D01*
X39604184Y-133339800D01*
X39771816Y-133339800D01*
X39936228Y-133372503D01*
G37*
G36*
X22172468Y-132608365D02*
G01*
X22211138Y-132620096D01*
X22246777Y-132639146D01*
X22278017Y-132664783D01*
X22303654Y-132696023D01*
X22322704Y-132731662D01*
X22334435Y-132770332D01*
X22339000Y-132816688D01*
X22339000Y-133892912D01*
X22334435Y-133939268D01*
X22322704Y-133977938D01*
X22303654Y-134013577D01*
X22278017Y-134044817D01*
X22246777Y-134070454D01*
X22211138Y-134089504D01*
X22172468Y-134101235D01*
X22126112Y-134105800D01*
X21474888Y-134105800D01*
X21428532Y-134101235D01*
X21389862Y-134089504D01*
X21354223Y-134070454D01*
X21322983Y-134044817D01*
X21297346Y-134013577D01*
X21278296Y-133977938D01*
X21266565Y-133939268D01*
X21262000Y-133892912D01*
X21262000Y-132816688D01*
X21266565Y-132770332D01*
X21278296Y-132731662D01*
X21297346Y-132696023D01*
X21322983Y-132664783D01*
X21354223Y-132639146D01*
X21389862Y-132620096D01*
X21428532Y-132608365D01*
X21474888Y-132603800D01*
X22126112Y-132603800D01*
X22172468Y-132608365D01*
G37*
G36*
X24047468Y-132608365D02*
G01*
X24086138Y-132620096D01*
X24121777Y-132639146D01*
X24153017Y-132664783D01*
X24178654Y-132696023D01*
X24197704Y-132731662D01*
X24209435Y-132770332D01*
X24214000Y-132816688D01*
X24214000Y-133892912D01*
X24209435Y-133939268D01*
X24197704Y-133977938D01*
X24178654Y-134013577D01*
X24153017Y-134044817D01*
X24121777Y-134070454D01*
X24086138Y-134089504D01*
X24047468Y-134101235D01*
X24001112Y-134105800D01*
X23349888Y-134105800D01*
X23303532Y-134101235D01*
X23264862Y-134089504D01*
X23229223Y-134070454D01*
X23197983Y-134044817D01*
X23172346Y-134013577D01*
X23153296Y-133977938D01*
X23141565Y-133939268D01*
X23137000Y-133892912D01*
X23137000Y-132816688D01*
X23141565Y-132770332D01*
X23153296Y-132731662D01*
X23172346Y-132696023D01*
X23197983Y-132664783D01*
X23229223Y-132639146D01*
X23264862Y-132620096D01*
X23303532Y-132608365D01*
X23349888Y-132603800D01*
X24001112Y-132603800D01*
X24047468Y-132608365D01*
G37*
G36*
X19922468Y-132883365D02*
G01*
X19961138Y-132895096D01*
X19996777Y-132914146D01*
X20028017Y-132939783D01*
X20053654Y-132971023D01*
X20072704Y-133006662D01*
X20084435Y-133045332D01*
X20089000Y-133091688D01*
X20089000Y-133742912D01*
X20084435Y-133789268D01*
X20072704Y-133827938D01*
X20053654Y-133863577D01*
X20028017Y-133894817D01*
X19996777Y-133920454D01*
X19961138Y-133939504D01*
X19922468Y-133951235D01*
X19876112Y-133955800D01*
X18799888Y-133955800D01*
X18753532Y-133951235D01*
X18714862Y-133939504D01*
X18679223Y-133920454D01*
X18647983Y-133894817D01*
X18622346Y-133863577D01*
X18603296Y-133827938D01*
X18591565Y-133789268D01*
X18587000Y-133742912D01*
X18587000Y-133091688D01*
X18591565Y-133045332D01*
X18603296Y-133006662D01*
X18622346Y-132971023D01*
X18647983Y-132939783D01*
X18679223Y-132914146D01*
X18714862Y-132895096D01*
X18753532Y-132883365D01*
X18799888Y-132878800D01*
X19876112Y-132878800D01*
X19922468Y-132883365D01*
G37*
G36*
X55176228Y-130832503D02*
G01*
X55331100Y-130896653D01*
X55470481Y-130989785D01*
X55589015Y-131108319D01*
X55682147Y-131247700D01*
X55746297Y-131402572D01*
X55779000Y-131566984D01*
X55779000Y-131734616D01*
X55746297Y-131899028D01*
X55682147Y-132053900D01*
X55589015Y-132193281D01*
X55470481Y-132311815D01*
X55331100Y-132404947D01*
X55176228Y-132469097D01*
X55011816Y-132501800D01*
X54844184Y-132501800D01*
X54679772Y-132469097D01*
X54524900Y-132404947D01*
X54385519Y-132311815D01*
X54266985Y-132193281D01*
X54173853Y-132053900D01*
X54109703Y-131899028D01*
X54077000Y-131734616D01*
X54077000Y-131566984D01*
X54109703Y-131402572D01*
X54173853Y-131247700D01*
X54266985Y-131108319D01*
X54385519Y-130989785D01*
X54524900Y-130896653D01*
X54679772Y-130832503D01*
X54844184Y-130799800D01*
X55011816Y-130799800D01*
X55176228Y-130832503D01*
G37*
G36*
X39936228Y-130832503D02*
G01*
X40091100Y-130896653D01*
X40230481Y-130989785D01*
X40349015Y-131108319D01*
X40442147Y-131247700D01*
X40506297Y-131402572D01*
X40539000Y-131566984D01*
X40539000Y-131734616D01*
X40506297Y-131899028D01*
X40442147Y-132053900D01*
X40349015Y-132193281D01*
X40230481Y-132311815D01*
X40091100Y-132404947D01*
X39936228Y-132469097D01*
X39771816Y-132501800D01*
X39604184Y-132501800D01*
X39439772Y-132469097D01*
X39284900Y-132404947D01*
X39145519Y-132311815D01*
X39026985Y-132193281D01*
X38933853Y-132053900D01*
X38869703Y-131899028D01*
X38837000Y-131734616D01*
X38837000Y-131566984D01*
X38869703Y-131402572D01*
X38933853Y-131247700D01*
X39026985Y-131108319D01*
X39145519Y-130989785D01*
X39284900Y-130896653D01*
X39439772Y-130832503D01*
X39604184Y-130799800D01*
X39771816Y-130799800D01*
X39936228Y-130832503D01*
G37*
G36*
X19859000Y-131743800D02*
G01*
X18557000Y-131743800D01*
X18557000Y-129441800D01*
X19859000Y-129441800D01*
X19859000Y-131743800D01*
G37*
G36*
X24419000Y-131743800D02*
G01*
X23117000Y-131743800D01*
X23117000Y-129441800D01*
X24419000Y-129441800D01*
X24419000Y-131743800D01*
G37*
G36*
X22139000Y-131743800D02*
G01*
X20837000Y-131743800D01*
X20837000Y-129441800D01*
X22139000Y-129441800D01*
X22139000Y-131743800D01*
G37*
G36*
X48533473Y-129892738D02*
G01*
X48661049Y-129945582D01*
X48775859Y-130022295D01*
X48873505Y-130119941D01*
X48950218Y-130234751D01*
X49003062Y-130362327D01*
X49030000Y-130497756D01*
X49030000Y-130635844D01*
X49003062Y-130771273D01*
X48950218Y-130898849D01*
X48873505Y-131013659D01*
X48775859Y-131111305D01*
X48661049Y-131188018D01*
X48533473Y-131240862D01*
X48398044Y-131267800D01*
X48259956Y-131267800D01*
X48124527Y-131240862D01*
X47996951Y-131188018D01*
X47882141Y-131111305D01*
X47784495Y-131013659D01*
X47707782Y-130898849D01*
X47654938Y-130771273D01*
X47628000Y-130635844D01*
X47628000Y-130497756D01*
X47654938Y-130362327D01*
X47707782Y-130234751D01*
X47784495Y-130119941D01*
X47882141Y-130022295D01*
X47996951Y-129945582D01*
X48124527Y-129892738D01*
X48259956Y-129865800D01*
X48398044Y-129865800D01*
X48533473Y-129892738D01*
G37*
G36*
X90467600Y-123353200D02*
G01*
X90467600Y-125791600D01*
X89197600Y-127061600D01*
X80048999Y-127061600D01*
X80024613Y-127064002D01*
X80001164Y-127071115D01*
X79979553Y-127082666D01*
X79960611Y-127098211D01*
X79945066Y-127117153D01*
X79933515Y-127138764D01*
X79926402Y-127162213D01*
X79924000Y-127186599D01*
X79924000Y-130674800D01*
X71822000Y-130674800D01*
X71822000Y-122572800D01*
X71841423Y-122572800D01*
X71865809Y-122570398D01*
X71889258Y-122563285D01*
X71910869Y-122551734D01*
X71929811Y-122536189D01*
X72636800Y-121829200D01*
X88943600Y-121829200D01*
X90467600Y-123353200D01*
G37*
G36*
X49030000Y-128727800D02*
G01*
X47755749Y-128727800D01*
X47731363Y-128730202D01*
X47707914Y-128737315D01*
X47686303Y-128748866D01*
X47667361Y-128764411D01*
X47651816Y-128783353D01*
X47640265Y-128804964D01*
X47633152Y-128828413D01*
X47630750Y-128852799D01*
X47633152Y-128877185D01*
X47640265Y-128900634D01*
X47651816Y-128922244D01*
X47680218Y-128964751D01*
X47733062Y-129092327D01*
X47760000Y-129227756D01*
X47760000Y-129365844D01*
X47733062Y-129501273D01*
X47680218Y-129628849D01*
X47603505Y-129743659D01*
X47505859Y-129841305D01*
X47391049Y-129918018D01*
X47263473Y-129970862D01*
X47128044Y-129997800D01*
X46989956Y-129997800D01*
X46854527Y-129970862D01*
X46726951Y-129918018D01*
X46612141Y-129841305D01*
X46514495Y-129743659D01*
X46437782Y-129628849D01*
X46384938Y-129501273D01*
X46358000Y-129365844D01*
X46358000Y-129227756D01*
X46384938Y-129092327D01*
X46437782Y-128964751D01*
X46514495Y-128849941D01*
X46612141Y-128752295D01*
X46726951Y-128675582D01*
X46854527Y-128622738D01*
X46989956Y-128595800D01*
X47128044Y-128595800D01*
X47263473Y-128622738D01*
X47391049Y-128675582D01*
X47433556Y-128703984D01*
X47455167Y-128715535D01*
X47478616Y-128722648D01*
X47503002Y-128725050D01*
X47527388Y-128722648D01*
X47550837Y-128715535D01*
X47572447Y-128703983D01*
X47591389Y-128688438D01*
X47606934Y-128669496D01*
X47618485Y-128647885D01*
X47625598Y-128624436D01*
X47628000Y-128600051D01*
X47628000Y-127325800D01*
X49030000Y-127325800D01*
X49030000Y-128727800D01*
G37*
G36*
X55176228Y-128292503D02*
G01*
X55331100Y-128356653D01*
X55470481Y-128449785D01*
X55589015Y-128568319D01*
X55682147Y-128707700D01*
X55746297Y-128862572D01*
X55779000Y-129026984D01*
X55779000Y-129194616D01*
X55746297Y-129359028D01*
X55682147Y-129513900D01*
X55589015Y-129653281D01*
X55470481Y-129771815D01*
X55331100Y-129864947D01*
X55176228Y-129929097D01*
X55011816Y-129961800D01*
X54844184Y-129961800D01*
X54679772Y-129929097D01*
X54524900Y-129864947D01*
X54385519Y-129771815D01*
X54266985Y-129653281D01*
X54173853Y-129513900D01*
X54109703Y-129359028D01*
X54077000Y-129194616D01*
X54077000Y-129026984D01*
X54109703Y-128862572D01*
X54173853Y-128707700D01*
X54266985Y-128568319D01*
X54385519Y-128449785D01*
X54524900Y-128356653D01*
X54679772Y-128292503D01*
X54844184Y-128259800D01*
X55011816Y-128259800D01*
X55176228Y-128292503D01*
G37*
G36*
X39936228Y-128292503D02*
G01*
X40091100Y-128356653D01*
X40230481Y-128449785D01*
X40349015Y-128568319D01*
X40442147Y-128707700D01*
X40506297Y-128862572D01*
X40539000Y-129026984D01*
X40539000Y-129194616D01*
X40506297Y-129359028D01*
X40442147Y-129513900D01*
X40349015Y-129653281D01*
X40230481Y-129771815D01*
X40091100Y-129864947D01*
X39936228Y-129929097D01*
X39771816Y-129961800D01*
X39604184Y-129961800D01*
X39439772Y-129929097D01*
X39284900Y-129864947D01*
X39145519Y-129771815D01*
X39026985Y-129653281D01*
X38933853Y-129513900D01*
X38869703Y-129359028D01*
X38837000Y-129194616D01*
X38837000Y-129026984D01*
X38869703Y-128862572D01*
X38933853Y-128707700D01*
X39026985Y-128568319D01*
X39145519Y-128449785D01*
X39284900Y-128356653D01*
X39439772Y-128292503D01*
X39604184Y-128259800D01*
X39771816Y-128259800D01*
X39936228Y-128292503D01*
G37*
G36*
X24439000Y-127543800D02*
G01*
X18537000Y-127543800D01*
X18537000Y-121041800D01*
X24439000Y-121041800D01*
X24439000Y-127543800D01*
G37*
G36*
X55176228Y-125752503D02*
G01*
X55331100Y-125816653D01*
X55470481Y-125909785D01*
X55589015Y-126028319D01*
X55682147Y-126167700D01*
X55746297Y-126322572D01*
X55779000Y-126486984D01*
X55779000Y-126654616D01*
X55746297Y-126819028D01*
X55682147Y-126973900D01*
X55589015Y-127113281D01*
X55470481Y-127231815D01*
X55331100Y-127324947D01*
X55176228Y-127389097D01*
X55011816Y-127421800D01*
X54844184Y-127421800D01*
X54679772Y-127389097D01*
X54524900Y-127324947D01*
X54385519Y-127231815D01*
X54266985Y-127113281D01*
X54173853Y-126973900D01*
X54109703Y-126819028D01*
X54077000Y-126654616D01*
X54077000Y-126486984D01*
X54109703Y-126322572D01*
X54173853Y-126167700D01*
X54266985Y-126028319D01*
X54385519Y-125909785D01*
X54524900Y-125816653D01*
X54679772Y-125752503D01*
X54844184Y-125719800D01*
X55011816Y-125719800D01*
X55176228Y-125752503D01*
G37*
G36*
X39936228Y-125752503D02*
G01*
X40091100Y-125816653D01*
X40230481Y-125909785D01*
X40349015Y-126028319D01*
X40442147Y-126167700D01*
X40506297Y-126322572D01*
X40539000Y-126486984D01*
X40539000Y-126654616D01*
X40506297Y-126819028D01*
X40442147Y-126973900D01*
X40349015Y-127113281D01*
X40230481Y-127231815D01*
X40091100Y-127324947D01*
X39936228Y-127389097D01*
X39771816Y-127421800D01*
X39604184Y-127421800D01*
X39439772Y-127389097D01*
X39284900Y-127324947D01*
X39145519Y-127231815D01*
X39026985Y-127113281D01*
X38933853Y-126973900D01*
X38869703Y-126819028D01*
X38837000Y-126654616D01*
X38837000Y-126486984D01*
X38869703Y-126322572D01*
X38933853Y-126167700D01*
X39026985Y-126028319D01*
X39145519Y-125909785D01*
X39284900Y-125816653D01*
X39439772Y-125752503D01*
X39604184Y-125719800D01*
X39771816Y-125719800D01*
X39936228Y-125752503D01*
G37*
G36*
X15245512Y-125096727D02*
G01*
X15394812Y-125126424D01*
X15558784Y-125194344D01*
X15706354Y-125292947D01*
X15831853Y-125418446D01*
X15930456Y-125566016D01*
X15998376Y-125729988D01*
X16033000Y-125904059D01*
X16033000Y-126081541D01*
X15998376Y-126255612D01*
X15930456Y-126419584D01*
X15831853Y-126567154D01*
X15706354Y-126692653D01*
X15558784Y-126791256D01*
X15394812Y-126859176D01*
X15245512Y-126888873D01*
X15220742Y-126893800D01*
X15043258Y-126893800D01*
X15018488Y-126888873D01*
X14869188Y-126859176D01*
X14705216Y-126791256D01*
X14557646Y-126692653D01*
X14432147Y-126567154D01*
X14333544Y-126419584D01*
X14265624Y-126255612D01*
X14231000Y-126081541D01*
X14231000Y-125904059D01*
X14265624Y-125729988D01*
X14333544Y-125566016D01*
X14432147Y-125418446D01*
X14557646Y-125292947D01*
X14705216Y-125194344D01*
X14869188Y-125126424D01*
X15018488Y-125096727D01*
X15043258Y-125091800D01*
X15220742Y-125091800D01*
X15245512Y-125096727D01*
G37*
G36*
X39936228Y-123212503D02*
G01*
X40091100Y-123276653D01*
X40230481Y-123369785D01*
X40349015Y-123488319D01*
X40442147Y-123627700D01*
X40506297Y-123782572D01*
X40539000Y-123946984D01*
X40539000Y-124114616D01*
X40506297Y-124279028D01*
X40442147Y-124433900D01*
X40349015Y-124573281D01*
X40230481Y-124691815D01*
X40091100Y-124784947D01*
X39936228Y-124849097D01*
X39771816Y-124881800D01*
X39604184Y-124881800D01*
X39439772Y-124849097D01*
X39284900Y-124784947D01*
X39145519Y-124691815D01*
X39026985Y-124573281D01*
X38933853Y-124433900D01*
X38869703Y-124279028D01*
X38837000Y-124114616D01*
X38837000Y-123946984D01*
X38869703Y-123782572D01*
X38933853Y-123627700D01*
X39026985Y-123488319D01*
X39145519Y-123369785D01*
X39284900Y-123276653D01*
X39439772Y-123212503D01*
X39604184Y-123179800D01*
X39771816Y-123179800D01*
X39936228Y-123212503D01*
G37*
G36*
X55176228Y-123212503D02*
G01*
X55331100Y-123276653D01*
X55470481Y-123369785D01*
X55589015Y-123488319D01*
X55682147Y-123627700D01*
X55746297Y-123782572D01*
X55779000Y-123946984D01*
X55779000Y-124114616D01*
X55746297Y-124279028D01*
X55682147Y-124433900D01*
X55589015Y-124573281D01*
X55470481Y-124691815D01*
X55331100Y-124784947D01*
X55176228Y-124849097D01*
X55011816Y-124881800D01*
X54844184Y-124881800D01*
X54679772Y-124849097D01*
X54524900Y-124784947D01*
X54385519Y-124691815D01*
X54266985Y-124573281D01*
X54173853Y-124433900D01*
X54109703Y-124279028D01*
X54077000Y-124114616D01*
X54077000Y-123946984D01*
X54109703Y-123782572D01*
X54173853Y-123627700D01*
X54266985Y-123488319D01*
X54385519Y-123369785D01*
X54524900Y-123276653D01*
X54679772Y-123212503D01*
X54844184Y-123179800D01*
X55011816Y-123179800D01*
X55176228Y-123212503D01*
G37*
G36*
X16033000Y-124353800D02*
G01*
X14231000Y-124353800D01*
X14231000Y-122551800D01*
X16033000Y-122551800D01*
X16033000Y-124353800D01*
G37*
G36*
X34105968Y-122308365D02*
G01*
X34144638Y-122320096D01*
X34180277Y-122339146D01*
X34211517Y-122364783D01*
X34237154Y-122396023D01*
X34256204Y-122431662D01*
X34267935Y-122470332D01*
X34272500Y-122516688D01*
X34272500Y-123592912D01*
X34267935Y-123639268D01*
X34256204Y-123677938D01*
X34237154Y-123713577D01*
X34211517Y-123744817D01*
X34180277Y-123770454D01*
X34144638Y-123789504D01*
X34105968Y-123801235D01*
X34059612Y-123805800D01*
X33408388Y-123805800D01*
X33362032Y-123801235D01*
X33323362Y-123789504D01*
X33287723Y-123770454D01*
X33256483Y-123744817D01*
X33230846Y-123713577D01*
X33211796Y-123677938D01*
X33200065Y-123639268D01*
X33195500Y-123592912D01*
X33195500Y-122516688D01*
X33200065Y-122470332D01*
X33211796Y-122431662D01*
X33230846Y-122396023D01*
X33256483Y-122364783D01*
X33287723Y-122339146D01*
X33323362Y-122320096D01*
X33362032Y-122308365D01*
X33408388Y-122303800D01*
X34059612Y-122303800D01*
X34105968Y-122308365D01*
G37*
G36*
X32230968Y-122308365D02*
G01*
X32269638Y-122320096D01*
X32305277Y-122339146D01*
X32336517Y-122364783D01*
X32362154Y-122396023D01*
X32381204Y-122431662D01*
X32392935Y-122470332D01*
X32397500Y-122516688D01*
X32397500Y-123592912D01*
X32392935Y-123639268D01*
X32381204Y-123677938D01*
X32362154Y-123713577D01*
X32336517Y-123744817D01*
X32305277Y-123770454D01*
X32269638Y-123789504D01*
X32230968Y-123801235D01*
X32184612Y-123805800D01*
X31533388Y-123805800D01*
X31487032Y-123801235D01*
X31448362Y-123789504D01*
X31412723Y-123770454D01*
X31381483Y-123744817D01*
X31355846Y-123713577D01*
X31336796Y-123677938D01*
X31325065Y-123639268D01*
X31320500Y-123592912D01*
X31320500Y-122516688D01*
X31325065Y-122470332D01*
X31336796Y-122431662D01*
X31355846Y-122396023D01*
X31381483Y-122364783D01*
X31412723Y-122339146D01*
X31448362Y-122320096D01*
X31487032Y-122308365D01*
X31533388Y-122303800D01*
X32184612Y-122303800D01*
X32230968Y-122308365D01*
G37*
G36*
X28767512Y-121820727D02*
G01*
X28916812Y-121850424D01*
X29080784Y-121918344D01*
X29228354Y-122016947D01*
X29353853Y-122142446D01*
X29452456Y-122290016D01*
X29520376Y-122453988D01*
X29555000Y-122628059D01*
X29555000Y-122805541D01*
X29520376Y-122979612D01*
X29452456Y-123143584D01*
X29353853Y-123291154D01*
X29228354Y-123416653D01*
X29080784Y-123515256D01*
X28916812Y-123583176D01*
X28767512Y-123612873D01*
X28742742Y-123617800D01*
X28565258Y-123617800D01*
X28540488Y-123612873D01*
X28391188Y-123583176D01*
X28227216Y-123515256D01*
X28079646Y-123416653D01*
X27954147Y-123291154D01*
X27855544Y-123143584D01*
X27787624Y-122979612D01*
X27753000Y-122805541D01*
X27753000Y-122628059D01*
X27787624Y-122453988D01*
X27855544Y-122290016D01*
X27954147Y-122142446D01*
X28079646Y-122016947D01*
X28227216Y-121918344D01*
X28391188Y-121850424D01*
X28540488Y-121820727D01*
X28565258Y-121815800D01*
X28742742Y-121815800D01*
X28767512Y-121820727D01*
G37*
G36*
X55176228Y-120672503D02*
G01*
X55331100Y-120736653D01*
X55470481Y-120829785D01*
X55589015Y-120948319D01*
X55682147Y-121087700D01*
X55746297Y-121242572D01*
X55779000Y-121406984D01*
X55779000Y-121574616D01*
X55746297Y-121739028D01*
X55682147Y-121893900D01*
X55589015Y-122033281D01*
X55470481Y-122151815D01*
X55331100Y-122244947D01*
X55176228Y-122309097D01*
X55011816Y-122341800D01*
X54844184Y-122341800D01*
X54679772Y-122309097D01*
X54524900Y-122244947D01*
X54385519Y-122151815D01*
X54266985Y-122033281D01*
X54173853Y-121893900D01*
X54109703Y-121739028D01*
X54077000Y-121574616D01*
X54077000Y-121406984D01*
X54109703Y-121242572D01*
X54173853Y-121087700D01*
X54266985Y-120948319D01*
X54385519Y-120829785D01*
X54524900Y-120736653D01*
X54679772Y-120672503D01*
X54844184Y-120639800D01*
X55011816Y-120639800D01*
X55176228Y-120672503D01*
G37*
G36*
X40539000Y-122341800D02*
G01*
X38837000Y-122341800D01*
X38837000Y-120639800D01*
X40539000Y-120639800D01*
X40539000Y-122341800D01*
G37*
G36*
X32794468Y-120501865D02*
G01*
X32833138Y-120513596D01*
X32868777Y-120532646D01*
X32900017Y-120558283D01*
X32925654Y-120589523D01*
X32944704Y-120625162D01*
X32956435Y-120663832D01*
X32961000Y-120710188D01*
X32961000Y-121361412D01*
X32956435Y-121407768D01*
X32944704Y-121446438D01*
X32925654Y-121482077D01*
X32900017Y-121513317D01*
X32868777Y-121538954D01*
X32833138Y-121558004D01*
X32794468Y-121569735D01*
X32748112Y-121574300D01*
X31671888Y-121574300D01*
X31625532Y-121569735D01*
X31586862Y-121558004D01*
X31551223Y-121538954D01*
X31519983Y-121513317D01*
X31494346Y-121482077D01*
X31475296Y-121446438D01*
X31463565Y-121407768D01*
X31459000Y-121361412D01*
X31459000Y-120710188D01*
X31463565Y-120663832D01*
X31475296Y-120625162D01*
X31494346Y-120589523D01*
X31519983Y-120558283D01*
X31551223Y-120532646D01*
X31586862Y-120513596D01*
X31625532Y-120501865D01*
X31671888Y-120497300D01*
X32748112Y-120497300D01*
X32794468Y-120501865D01*
G37*
G36*
X35272468Y-120501865D02*
G01*
X35311138Y-120513596D01*
X35346777Y-120532646D01*
X35378017Y-120558283D01*
X35403654Y-120589523D01*
X35422704Y-120625162D01*
X35434435Y-120663832D01*
X35439000Y-120710188D01*
X35439000Y-121361412D01*
X35434435Y-121407768D01*
X35422704Y-121446438D01*
X35403654Y-121482077D01*
X35378017Y-121513317D01*
X35346777Y-121538954D01*
X35311138Y-121558004D01*
X35272468Y-121569735D01*
X35226112Y-121574300D01*
X34149888Y-121574300D01*
X34103532Y-121569735D01*
X34064862Y-121558004D01*
X34029223Y-121538954D01*
X33997983Y-121513317D01*
X33972346Y-121482077D01*
X33953296Y-121446438D01*
X33941565Y-121407768D01*
X33937000Y-121361412D01*
X33937000Y-120710188D01*
X33941565Y-120663832D01*
X33953296Y-120625162D01*
X33972346Y-120589523D01*
X33997983Y-120558283D01*
X34029223Y-120532646D01*
X34064862Y-120513596D01*
X34103532Y-120501865D01*
X34149888Y-120497300D01*
X35226112Y-120497300D01*
X35272468Y-120501865D01*
G37*
G36*
X29555000Y-121077800D02*
G01*
X27753000Y-121077800D01*
X27753000Y-119275800D01*
X29555000Y-119275800D01*
X29555000Y-121077800D01*
G37*
G36*
X106689106Y-117219000D02*
G01*
X106899917Y-117260933D01*
X107032503Y-117315852D01*
X107236776Y-117400464D01*
X107539943Y-117603034D01*
X107797766Y-117860857D01*
X108000336Y-118164024D01*
X108064209Y-118318228D01*
X108128358Y-118473097D01*
X108139867Y-118500884D01*
X108204169Y-118824147D01*
X108211000Y-118858492D01*
X108211000Y-119223108D01*
X108139867Y-119580717D01*
X108097498Y-119683004D01*
X108000336Y-119917576D01*
X107797766Y-120220743D01*
X107539943Y-120478566D01*
X107236776Y-120681136D01*
X107102745Y-120736653D01*
X106899917Y-120820667D01*
X106721112Y-120856234D01*
X106542309Y-120891800D01*
X106177691Y-120891800D01*
X105998888Y-120856234D01*
X105820083Y-120820667D01*
X105617255Y-120736653D01*
X105483224Y-120681136D01*
X105180057Y-120478566D01*
X104922234Y-120220743D01*
X104719664Y-119917576D01*
X104622502Y-119683004D01*
X104580133Y-119580717D01*
X104509000Y-119223108D01*
X104509000Y-118858492D01*
X104515832Y-118824147D01*
X104580133Y-118500884D01*
X104591643Y-118473097D01*
X104655791Y-118318228D01*
X104719664Y-118164024D01*
X104922234Y-117860857D01*
X105180057Y-117603034D01*
X105483224Y-117400464D01*
X105687497Y-117315852D01*
X105820083Y-117260933D01*
X106030894Y-117219000D01*
X106177691Y-117189800D01*
X106542309Y-117189800D01*
X106689106Y-117219000D01*
G37*
G36*
X35272468Y-118626865D02*
G01*
X35311138Y-118638596D01*
X35346777Y-118657646D01*
X35378017Y-118683283D01*
X35403654Y-118714523D01*
X35422704Y-118750162D01*
X35434435Y-118788832D01*
X35439000Y-118835188D01*
X35439000Y-119486412D01*
X35434435Y-119532768D01*
X35422704Y-119571438D01*
X35403654Y-119607077D01*
X35378017Y-119638317D01*
X35346777Y-119663954D01*
X35311138Y-119683004D01*
X35272468Y-119694735D01*
X35226112Y-119699300D01*
X34149888Y-119699300D01*
X34103532Y-119694735D01*
X34064862Y-119683004D01*
X34029223Y-119663954D01*
X33997983Y-119638317D01*
X33972346Y-119607077D01*
X33953296Y-119571438D01*
X33941565Y-119532768D01*
X33937000Y-119486412D01*
X33937000Y-118835188D01*
X33941565Y-118788832D01*
X33953296Y-118750162D01*
X33972346Y-118714523D01*
X33997983Y-118683283D01*
X34029223Y-118657646D01*
X34064862Y-118638596D01*
X34103532Y-118626865D01*
X34149888Y-118622300D01*
X35226112Y-118622300D01*
X35272468Y-118626865D01*
G37*
G36*
X32794468Y-118626865D02*
G01*
X32833138Y-118638596D01*
X32868777Y-118657646D01*
X32900017Y-118683283D01*
X32925654Y-118714523D01*
X32944704Y-118750162D01*
X32956435Y-118788832D01*
X32961000Y-118835188D01*
X32961000Y-119486412D01*
X32956435Y-119532768D01*
X32944704Y-119571438D01*
X32925654Y-119607077D01*
X32900017Y-119638317D01*
X32868777Y-119663954D01*
X32833138Y-119683004D01*
X32794468Y-119694735D01*
X32748112Y-119699300D01*
X31671888Y-119699300D01*
X31625532Y-119694735D01*
X31586862Y-119683004D01*
X31551223Y-119663954D01*
X31519983Y-119638317D01*
X31494346Y-119607077D01*
X31475296Y-119571438D01*
X31463565Y-119532768D01*
X31459000Y-119486412D01*
X31459000Y-118835188D01*
X31463565Y-118788832D01*
X31475296Y-118750162D01*
X31494346Y-118714523D01*
X31519983Y-118683283D01*
X31551223Y-118657646D01*
X31586862Y-118638596D01*
X31625532Y-118626865D01*
X31671888Y-118622300D01*
X32748112Y-118622300D01*
X32794468Y-118626865D01*
G37*
G36*
X61245000Y-118921000D02*
G01*
X59543000Y-118921000D01*
X59543000Y-117219000D01*
X61245000Y-117219000D01*
X61245000Y-118921000D01*
G37*
G36*
X63142228Y-117251703D02*
G01*
X63297100Y-117315853D01*
X63436481Y-117408985D01*
X63555015Y-117527519D01*
X63648147Y-117666900D01*
X63712297Y-117821772D01*
X63745000Y-117986184D01*
X63745000Y-118153816D01*
X63712297Y-118318228D01*
X63648147Y-118473100D01*
X63555015Y-118612481D01*
X63436481Y-118731015D01*
X63297100Y-118824147D01*
X63142228Y-118888297D01*
X62977816Y-118921000D01*
X62810184Y-118921000D01*
X62645772Y-118888297D01*
X62490900Y-118824147D01*
X62351519Y-118731015D01*
X62232985Y-118612481D01*
X62139853Y-118473100D01*
X62075703Y-118318228D01*
X62043000Y-118153816D01*
X62043000Y-117986184D01*
X62075703Y-117821772D01*
X62139853Y-117666900D01*
X62232985Y-117527519D01*
X62351519Y-117408985D01*
X62490900Y-117315853D01*
X62645772Y-117251703D01*
X62810184Y-117219000D01*
X62977816Y-117219000D01*
X63142228Y-117251703D01*
G37*
G36*
X21047468Y-116608365D02*
G01*
X21086138Y-116620096D01*
X21121777Y-116639146D01*
X21153017Y-116664783D01*
X21178654Y-116696023D01*
X21197704Y-116731662D01*
X21209435Y-116770332D01*
X21214000Y-116816688D01*
X21214000Y-117892912D01*
X21209435Y-117939268D01*
X21197704Y-117977938D01*
X21178654Y-118013577D01*
X21153017Y-118044817D01*
X21121777Y-118070454D01*
X21086138Y-118089504D01*
X21047468Y-118101235D01*
X21001112Y-118105800D01*
X20349888Y-118105800D01*
X20303532Y-118101235D01*
X20264862Y-118089504D01*
X20229223Y-118070454D01*
X20197983Y-118044817D01*
X20172346Y-118013577D01*
X20153296Y-117977938D01*
X20141565Y-117939268D01*
X20137000Y-117892912D01*
X20137000Y-116816688D01*
X20141565Y-116770332D01*
X20153296Y-116731662D01*
X20172346Y-116696023D01*
X20197983Y-116664783D01*
X20229223Y-116639146D01*
X20264862Y-116620096D01*
X20303532Y-116608365D01*
X20349888Y-116603800D01*
X21001112Y-116603800D01*
X21047468Y-116608365D01*
G37*
G36*
X19172468Y-116608365D02*
G01*
X19211138Y-116620096D01*
X19246777Y-116639146D01*
X19278017Y-116664783D01*
X19303654Y-116696023D01*
X19322704Y-116731662D01*
X19334435Y-116770332D01*
X19339000Y-116816688D01*
X19339000Y-117892912D01*
X19334435Y-117939268D01*
X19322704Y-117977938D01*
X19303654Y-118013577D01*
X19278017Y-118044817D01*
X19246777Y-118070454D01*
X19211138Y-118089504D01*
X19172468Y-118101235D01*
X19126112Y-118105800D01*
X18474888Y-118105800D01*
X18428532Y-118101235D01*
X18389862Y-118089504D01*
X18354223Y-118070454D01*
X18322983Y-118044817D01*
X18297346Y-118013577D01*
X18278296Y-117977938D01*
X18266565Y-117939268D01*
X18262000Y-117892912D01*
X18262000Y-116816688D01*
X18266565Y-116770332D01*
X18278296Y-116731662D01*
X18297346Y-116696023D01*
X18322983Y-116664783D01*
X18354223Y-116639146D01*
X18389862Y-116620096D01*
X18428532Y-116608365D01*
X18474888Y-116603800D01*
X19126112Y-116603800D01*
X19172468Y-116608365D01*
G37*
G36*
X15917395Y-115746346D02*
G01*
X16090466Y-115818034D01*
X16090467Y-115818035D01*
X16246227Y-115922110D01*
X16378690Y-116054573D01*
X16378691Y-116054575D01*
X16482766Y-116210334D01*
X16554454Y-116383405D01*
X16591000Y-116567133D01*
X16591000Y-116754467D01*
X16554454Y-116938195D01*
X16482766Y-117111266D01*
X16482765Y-117111267D01*
X16378690Y-117267027D01*
X16246227Y-117399490D01*
X16167818Y-117451881D01*
X16090466Y-117503566D01*
X15917395Y-117575254D01*
X15733667Y-117611800D01*
X15546333Y-117611800D01*
X15362605Y-117575254D01*
X15189534Y-117503566D01*
X15112182Y-117451881D01*
X15033773Y-117399490D01*
X14901310Y-117267027D01*
X14797235Y-117111267D01*
X14797234Y-117111266D01*
X14725546Y-116938195D01*
X14689000Y-116754467D01*
X14689000Y-116567133D01*
X14725546Y-116383405D01*
X14797234Y-116210334D01*
X14901309Y-116054575D01*
X14901310Y-116054573D01*
X15033773Y-115922110D01*
X15189533Y-115818035D01*
X15189534Y-115818034D01*
X15362605Y-115746346D01*
X15546333Y-115709800D01*
X15733667Y-115709800D01*
X15917395Y-115746346D01*
G37*
G36*
X88905500Y-110259500D02*
G01*
X90493000Y-111847000D01*
X90493000Y-114704500D01*
X88715000Y-116482500D01*
X88708901Y-116482507D01*
X88708896Y-116482507D01*
X82510515Y-116489115D01*
X76802400Y-116495200D01*
X74019611Y-113712411D01*
X74000669Y-113696866D01*
X73979058Y-113685315D01*
X73955609Y-113678202D01*
X73931223Y-113675800D01*
X70173000Y-113675800D01*
X70176931Y-113612912D01*
X70209757Y-113087688D01*
X70210000Y-113079891D01*
X70210000Y-112969940D01*
X70212764Y-112941876D01*
X70216224Y-112930471D01*
X70221364Y-112901980D01*
X70221403Y-112901350D01*
X70257772Y-112319450D01*
X70256896Y-112294966D01*
X70251259Y-112271119D01*
X70241078Y-112248830D01*
X70229640Y-112232357D01*
X70229548Y-112232245D01*
X70219160Y-112212809D01*
X70212764Y-112191728D01*
X70210000Y-112163660D01*
X70210000Y-111699940D01*
X70212764Y-111671872D01*
X70219160Y-111650791D01*
X70229548Y-111631355D01*
X70243524Y-111614324D01*
X70260555Y-111600348D01*
X70279991Y-111589960D01*
X70301072Y-111583564D01*
X70329140Y-111580800D01*
X72142860Y-111580800D01*
X72170928Y-111583564D01*
X72192009Y-111589960D01*
X72211445Y-111600348D01*
X72229819Y-111615427D01*
X72250194Y-111629041D01*
X72272833Y-111638418D01*
X72309117Y-111643800D01*
X83194766Y-111643800D01*
X83219152Y-111641398D01*
X83242601Y-111634285D01*
X83264212Y-111622734D01*
X83283154Y-111607189D01*
X83291510Y-111597955D01*
X83294616Y-111594159D01*
X84397000Y-110246800D01*
X88905500Y-110259500D01*
G37*
G36*
X19522468Y-114958365D02*
G01*
X19561138Y-114970096D01*
X19596777Y-114989146D01*
X19628017Y-115014783D01*
X19653654Y-115046023D01*
X19672704Y-115081662D01*
X19684435Y-115120332D01*
X19689000Y-115166688D01*
X19689000Y-115817912D01*
X19684435Y-115864268D01*
X19672704Y-115902938D01*
X19653654Y-115938577D01*
X19628017Y-115969817D01*
X19596777Y-115995454D01*
X19561138Y-116014504D01*
X19522468Y-116026235D01*
X19476112Y-116030800D01*
X18399888Y-116030800D01*
X18353532Y-116026235D01*
X18314862Y-116014504D01*
X18279223Y-115995454D01*
X18247983Y-115969817D01*
X18222346Y-115938577D01*
X18203296Y-115902938D01*
X18191565Y-115864268D01*
X18187000Y-115817912D01*
X18187000Y-115166688D01*
X18191565Y-115120332D01*
X18203296Y-115081662D01*
X18222346Y-115046023D01*
X18247983Y-115014783D01*
X18279223Y-114989146D01*
X18314862Y-114970096D01*
X18353532Y-114958365D01*
X18399888Y-114953800D01*
X19476112Y-114953800D01*
X19522468Y-114958365D01*
G37*
G36*
X45582712Y-114007527D02*
G01*
X45732012Y-114037224D01*
X45895984Y-114105144D01*
X46043554Y-114203747D01*
X46169053Y-114329246D01*
X46267656Y-114476816D01*
X46335576Y-114640788D01*
X46370200Y-114814859D01*
X46370200Y-114992341D01*
X46335576Y-115166412D01*
X46267656Y-115330384D01*
X46169053Y-115477954D01*
X46043554Y-115603453D01*
X45895984Y-115702056D01*
X45732012Y-115769976D01*
X45582712Y-115799673D01*
X45557942Y-115804600D01*
X45380458Y-115804600D01*
X45355688Y-115799673D01*
X45206388Y-115769976D01*
X45042416Y-115702056D01*
X44894846Y-115603453D01*
X44769347Y-115477954D01*
X44670744Y-115330384D01*
X44602824Y-115166412D01*
X44568200Y-114992341D01*
X44568200Y-114814859D01*
X44602824Y-114640788D01*
X44670744Y-114476816D01*
X44769347Y-114329246D01*
X44894846Y-114203747D01*
X45042416Y-114105144D01*
X45206388Y-114037224D01*
X45355688Y-114007527D01*
X45380458Y-114002600D01*
X45557942Y-114002600D01*
X45582712Y-114007527D01*
G37*
G36*
X40502712Y-114007527D02*
G01*
X40652012Y-114037224D01*
X40815984Y-114105144D01*
X40963554Y-114203747D01*
X41089053Y-114329246D01*
X41187656Y-114476816D01*
X41255576Y-114640788D01*
X41290200Y-114814859D01*
X41290200Y-114992341D01*
X41255576Y-115166412D01*
X41187656Y-115330384D01*
X41089053Y-115477954D01*
X40963554Y-115603453D01*
X40815984Y-115702056D01*
X40652012Y-115769976D01*
X40502712Y-115799673D01*
X40477942Y-115804600D01*
X40300458Y-115804600D01*
X40275688Y-115799673D01*
X40126388Y-115769976D01*
X39962416Y-115702056D01*
X39814846Y-115603453D01*
X39689347Y-115477954D01*
X39590744Y-115330384D01*
X39522824Y-115166412D01*
X39488200Y-114992341D01*
X39488200Y-114814859D01*
X39522824Y-114640788D01*
X39590744Y-114476816D01*
X39689347Y-114329246D01*
X39814846Y-114203747D01*
X39962416Y-114105144D01*
X40126388Y-114037224D01*
X40275688Y-114007527D01*
X40300458Y-114002600D01*
X40477942Y-114002600D01*
X40502712Y-114007527D01*
G37*
G36*
X43042712Y-114007527D02*
G01*
X43192012Y-114037224D01*
X43355984Y-114105144D01*
X43503554Y-114203747D01*
X43629053Y-114329246D01*
X43727656Y-114476816D01*
X43795576Y-114640788D01*
X43830200Y-114814859D01*
X43830200Y-114992341D01*
X43795576Y-115166412D01*
X43727656Y-115330384D01*
X43629053Y-115477954D01*
X43503554Y-115603453D01*
X43355984Y-115702056D01*
X43192012Y-115769976D01*
X43042712Y-115799673D01*
X43017942Y-115804600D01*
X42840458Y-115804600D01*
X42815688Y-115799673D01*
X42666388Y-115769976D01*
X42502416Y-115702056D01*
X42354846Y-115603453D01*
X42229347Y-115477954D01*
X42130744Y-115330384D01*
X42062824Y-115166412D01*
X42028200Y-114992341D01*
X42028200Y-114814859D01*
X42062824Y-114640788D01*
X42130744Y-114476816D01*
X42229347Y-114329246D01*
X42354846Y-114203747D01*
X42502416Y-114105144D01*
X42666388Y-114037224D01*
X42815688Y-114007527D01*
X42840458Y-114002600D01*
X43017942Y-114002600D01*
X43042712Y-114007527D01*
G37*
G36*
X48910200Y-115804600D02*
G01*
X47108200Y-115804600D01*
X47108200Y-114002600D01*
X48910200Y-114002600D01*
X48910200Y-115804600D01*
G37*
G36*
X16591000Y-115071800D02*
G01*
X14689000Y-115071800D01*
X14689000Y-113169800D01*
X16591000Y-113169800D01*
X16591000Y-115071800D01*
G37*
G36*
X21109968Y-113008365D02*
G01*
X21148638Y-113020096D01*
X21184277Y-113039146D01*
X21215517Y-113064783D01*
X21241154Y-113096023D01*
X21260204Y-113131662D01*
X21271935Y-113170332D01*
X21276500Y-113216688D01*
X21276500Y-114292912D01*
X21271935Y-114339268D01*
X21260204Y-114377938D01*
X21241154Y-114413577D01*
X21215517Y-114444817D01*
X21184277Y-114470454D01*
X21148638Y-114489504D01*
X21109968Y-114501235D01*
X21063612Y-114505800D01*
X20412388Y-114505800D01*
X20366032Y-114501235D01*
X20327362Y-114489504D01*
X20291723Y-114470454D01*
X20260483Y-114444817D01*
X20234846Y-114413577D01*
X20215796Y-114377938D01*
X20204065Y-114339268D01*
X20199500Y-114292912D01*
X20199500Y-113216688D01*
X20204065Y-113170332D01*
X20215796Y-113131662D01*
X20234846Y-113096023D01*
X20260483Y-113064783D01*
X20291723Y-113039146D01*
X20327362Y-113020096D01*
X20366032Y-113008365D01*
X20412388Y-113003800D01*
X21063612Y-113003800D01*
X21109968Y-113008365D01*
G37*
G36*
X22984968Y-113008365D02*
G01*
X23023638Y-113020096D01*
X23059277Y-113039146D01*
X23090517Y-113064783D01*
X23116154Y-113096023D01*
X23135204Y-113131662D01*
X23146935Y-113170332D01*
X23151500Y-113216688D01*
X23151500Y-114292912D01*
X23146935Y-114339268D01*
X23135204Y-114377938D01*
X23116154Y-114413577D01*
X23090517Y-114444817D01*
X23059277Y-114470454D01*
X23023638Y-114489504D01*
X22984968Y-114501235D01*
X22938612Y-114505800D01*
X22287388Y-114505800D01*
X22241032Y-114501235D01*
X22202362Y-114489504D01*
X22166723Y-114470454D01*
X22135483Y-114444817D01*
X22109846Y-114413577D01*
X22090796Y-114377938D01*
X22079065Y-114339268D01*
X22074500Y-114292912D01*
X22074500Y-113216688D01*
X22079065Y-113170332D01*
X22090796Y-113131662D01*
X22109846Y-113096023D01*
X22135483Y-113064783D01*
X22166723Y-113039146D01*
X22202362Y-113020096D01*
X22241032Y-113008365D01*
X22287388Y-113003800D01*
X22938612Y-113003800D01*
X22984968Y-113008365D01*
G37*
G36*
X19522468Y-113083365D02*
G01*
X19561138Y-113095096D01*
X19596777Y-113114146D01*
X19628017Y-113139783D01*
X19653654Y-113171023D01*
X19672704Y-113206662D01*
X19684435Y-113245332D01*
X19689000Y-113291688D01*
X19689000Y-113942912D01*
X19684435Y-113989268D01*
X19672704Y-114027938D01*
X19653654Y-114063577D01*
X19628017Y-114094817D01*
X19596777Y-114120454D01*
X19561138Y-114139504D01*
X19522468Y-114151235D01*
X19476112Y-114155800D01*
X18399888Y-114155800D01*
X18353532Y-114151235D01*
X18314862Y-114139504D01*
X18279223Y-114120454D01*
X18247983Y-114094817D01*
X18222346Y-114063577D01*
X18203296Y-114027938D01*
X18191565Y-113989268D01*
X18187000Y-113942912D01*
X18187000Y-113291688D01*
X18191565Y-113245332D01*
X18203296Y-113206662D01*
X18222346Y-113171023D01*
X18247983Y-113139783D01*
X18279223Y-113114146D01*
X18314862Y-113095096D01*
X18353532Y-113083365D01*
X18399888Y-113078800D01*
X19476112Y-113078800D01*
X19522468Y-113083365D01*
G37*
G36*
X61288968Y-112328365D02*
G01*
X61327638Y-112340096D01*
X61363277Y-112359146D01*
X61394517Y-112384783D01*
X61420154Y-112416023D01*
X61439204Y-112451662D01*
X61450935Y-112490332D01*
X61455500Y-112536688D01*
X61455500Y-113612912D01*
X61450935Y-113659268D01*
X61439204Y-113697938D01*
X61420154Y-113733577D01*
X61394517Y-113764817D01*
X61363277Y-113790454D01*
X61327638Y-113809504D01*
X61288968Y-113821235D01*
X61242612Y-113825800D01*
X60591388Y-113825800D01*
X60545032Y-113821235D01*
X60506362Y-113809504D01*
X60470723Y-113790454D01*
X60439483Y-113764817D01*
X60413846Y-113733577D01*
X60394796Y-113697938D01*
X60383065Y-113659268D01*
X60378500Y-113612912D01*
X60378500Y-112536688D01*
X60383065Y-112490332D01*
X60394796Y-112451662D01*
X60413846Y-112416023D01*
X60439483Y-112384783D01*
X60470723Y-112359146D01*
X60506362Y-112340096D01*
X60545032Y-112328365D01*
X60591388Y-112323800D01*
X61242612Y-112323800D01*
X61288968Y-112328365D01*
G37*
G36*
X63163968Y-112328365D02*
G01*
X63202638Y-112340096D01*
X63238277Y-112359146D01*
X63269517Y-112384783D01*
X63295154Y-112416023D01*
X63314204Y-112451662D01*
X63325935Y-112490332D01*
X63330500Y-112536688D01*
X63330500Y-113612912D01*
X63325935Y-113659268D01*
X63314204Y-113697938D01*
X63295154Y-113733577D01*
X63269517Y-113764817D01*
X63238277Y-113790454D01*
X63202638Y-113809504D01*
X63163968Y-113821235D01*
X63117612Y-113825800D01*
X62466388Y-113825800D01*
X62420032Y-113821235D01*
X62381362Y-113809504D01*
X62345723Y-113790454D01*
X62314483Y-113764817D01*
X62288846Y-113733577D01*
X62269796Y-113697938D01*
X62258065Y-113659268D01*
X62253500Y-113612912D01*
X62253500Y-112536688D01*
X62258065Y-112490332D01*
X62269796Y-112451662D01*
X62288846Y-112416023D01*
X62314483Y-112384783D01*
X62345723Y-112359146D01*
X62381362Y-112340096D01*
X62420032Y-112328365D01*
X62466388Y-112323800D01*
X63117612Y-112323800D01*
X63163968Y-112328365D01*
G37*
G36*
X66458928Y-112853564D02*
G01*
X66480009Y-112859960D01*
X66499445Y-112870348D01*
X66516476Y-112884324D01*
X66530452Y-112901355D01*
X66540840Y-112920791D01*
X66547236Y-112941872D01*
X66550000Y-112969940D01*
X66550000Y-113433660D01*
X66547236Y-113461728D01*
X66540840Y-113482809D01*
X66530452Y-113502245D01*
X66516476Y-113519276D01*
X66499445Y-113533252D01*
X66480009Y-113543640D01*
X66458928Y-113550036D01*
X66430860Y-113552800D01*
X64617140Y-113552800D01*
X64589072Y-113550036D01*
X64567991Y-113543640D01*
X64548555Y-113533252D01*
X64531524Y-113519276D01*
X64517548Y-113502245D01*
X64507160Y-113482809D01*
X64500764Y-113461728D01*
X64498000Y-113433660D01*
X64498000Y-112969940D01*
X64500764Y-112941872D01*
X64507160Y-112920791D01*
X64517548Y-112901355D01*
X64531524Y-112884324D01*
X64548555Y-112870348D01*
X64567991Y-112859960D01*
X64589072Y-112853564D01*
X64617140Y-112850800D01*
X66430860Y-112850800D01*
X66458928Y-112853564D01*
G37*
G36*
X52351968Y-111673165D02*
G01*
X52390638Y-111684896D01*
X52426277Y-111703946D01*
X52457517Y-111729583D01*
X52483154Y-111760823D01*
X52502204Y-111796462D01*
X52513935Y-111835132D01*
X52518500Y-111881488D01*
X52518500Y-112957712D01*
X52513935Y-113004068D01*
X52502204Y-113042738D01*
X52483154Y-113078377D01*
X52457517Y-113109617D01*
X52426277Y-113135254D01*
X52390638Y-113154304D01*
X52351968Y-113166035D01*
X52305612Y-113170600D01*
X51654388Y-113170600D01*
X51608032Y-113166035D01*
X51569362Y-113154304D01*
X51533723Y-113135254D01*
X51502483Y-113109617D01*
X51476846Y-113078377D01*
X51457796Y-113042738D01*
X51446065Y-113004068D01*
X51441500Y-112957712D01*
X51441500Y-111881488D01*
X51446065Y-111835132D01*
X51457796Y-111796462D01*
X51476846Y-111760823D01*
X51502483Y-111729583D01*
X51533723Y-111703946D01*
X51569362Y-111684896D01*
X51608032Y-111673165D01*
X51654388Y-111668600D01*
X52305612Y-111668600D01*
X52351968Y-111673165D01*
G37*
G36*
X54226968Y-111673165D02*
G01*
X54265638Y-111684896D01*
X54301277Y-111703946D01*
X54332517Y-111729583D01*
X54358154Y-111760823D01*
X54377204Y-111796462D01*
X54388935Y-111835132D01*
X54393500Y-111881488D01*
X54393500Y-112957712D01*
X54388935Y-113004068D01*
X54377204Y-113042738D01*
X54358154Y-113078377D01*
X54332517Y-113109617D01*
X54301277Y-113135254D01*
X54265638Y-113154304D01*
X54226968Y-113166035D01*
X54180612Y-113170600D01*
X53529388Y-113170600D01*
X53483032Y-113166035D01*
X53444362Y-113154304D01*
X53408723Y-113135254D01*
X53377483Y-113109617D01*
X53351846Y-113078377D01*
X53332796Y-113042738D01*
X53321065Y-113004068D01*
X53316500Y-112957712D01*
X53316500Y-111881488D01*
X53321065Y-111835132D01*
X53332796Y-111796462D01*
X53351846Y-111760823D01*
X53377483Y-111729583D01*
X53408723Y-111703946D01*
X53444362Y-111684896D01*
X53483032Y-111673165D01*
X53529388Y-111668600D01*
X54180612Y-111668600D01*
X54226968Y-111673165D01*
G37*
G36*
X102303807Y-111512498D02*
G01*
X102341818Y-111524029D01*
X102376842Y-111542749D01*
X102407549Y-111567951D01*
X102432751Y-111598658D01*
X102451471Y-111633682D01*
X102463002Y-111671693D01*
X102467500Y-111717363D01*
X102467500Y-112525637D01*
X102463002Y-112571307D01*
X102451471Y-112609318D01*
X102432751Y-112644342D01*
X102407549Y-112675049D01*
X102376842Y-112700251D01*
X102341818Y-112718971D01*
X102303807Y-112730502D01*
X102258137Y-112735000D01*
X99174863Y-112735000D01*
X99129193Y-112730502D01*
X99091182Y-112718971D01*
X99056158Y-112700251D01*
X99025451Y-112675049D01*
X99000249Y-112644342D01*
X98981529Y-112609318D01*
X98969998Y-112571307D01*
X98965500Y-112525637D01*
X98965500Y-111717363D01*
X98969998Y-111671693D01*
X98981529Y-111633682D01*
X99000249Y-111598658D01*
X99025451Y-111567951D01*
X99056158Y-111542749D01*
X99091182Y-111524029D01*
X99129193Y-111512498D01*
X99174863Y-111508000D01*
X102258137Y-111508000D01*
X102303807Y-111512498D01*
G37*
G36*
X111701807Y-111512498D02*
G01*
X111739818Y-111524029D01*
X111774842Y-111542749D01*
X111805549Y-111567951D01*
X111830751Y-111598658D01*
X111849471Y-111633682D01*
X111861002Y-111671693D01*
X111865500Y-111717363D01*
X111865500Y-112525637D01*
X111861002Y-112571307D01*
X111849471Y-112609318D01*
X111830751Y-112644342D01*
X111805549Y-112675049D01*
X111774842Y-112700251D01*
X111739818Y-112718971D01*
X111701807Y-112730502D01*
X111656137Y-112735000D01*
X108572863Y-112735000D01*
X108527193Y-112730502D01*
X108489182Y-112718971D01*
X108454158Y-112700251D01*
X108423451Y-112675049D01*
X108398249Y-112644342D01*
X108379529Y-112609318D01*
X108367998Y-112571307D01*
X108363500Y-112525637D01*
X108363500Y-111717363D01*
X108367998Y-111671693D01*
X108379529Y-111633682D01*
X108398249Y-111598658D01*
X108423451Y-111567951D01*
X108454158Y-111542749D01*
X108489182Y-111524029D01*
X108527193Y-111512498D01*
X108572863Y-111508000D01*
X111656137Y-111508000D01*
X111701807Y-111512498D01*
G37*
G36*
X107002807Y-111512498D02*
G01*
X107040818Y-111524029D01*
X107075842Y-111542749D01*
X107106549Y-111567951D01*
X107131751Y-111598658D01*
X107150471Y-111633682D01*
X107162002Y-111671693D01*
X107166500Y-111717363D01*
X107166500Y-112525637D01*
X107162002Y-112571307D01*
X107150471Y-112609318D01*
X107131751Y-112644342D01*
X107106549Y-112675049D01*
X107075842Y-112700251D01*
X107040818Y-112718971D01*
X107002807Y-112730502D01*
X106957137Y-112735000D01*
X103873863Y-112735000D01*
X103828193Y-112730502D01*
X103790182Y-112718971D01*
X103755158Y-112700251D01*
X103724451Y-112675049D01*
X103699249Y-112644342D01*
X103680529Y-112609318D01*
X103668998Y-112571307D01*
X103664500Y-112525637D01*
X103664500Y-111717363D01*
X103668998Y-111671693D01*
X103680529Y-111633682D01*
X103699249Y-111598658D01*
X103724451Y-111567951D01*
X103755158Y-111542749D01*
X103790182Y-111524029D01*
X103828193Y-111512498D01*
X103873863Y-111508000D01*
X106957137Y-111508000D01*
X107002807Y-111512498D01*
G37*
G36*
X97604807Y-111491998D02*
G01*
X97642818Y-111503529D01*
X97677842Y-111522249D01*
X97708549Y-111547451D01*
X97733751Y-111578158D01*
X97752471Y-111613182D01*
X97764002Y-111651193D01*
X97768500Y-111696863D01*
X97768500Y-112505137D01*
X97764002Y-112550807D01*
X97752471Y-112588818D01*
X97733751Y-112623842D01*
X97708549Y-112654549D01*
X97677842Y-112679751D01*
X97642818Y-112698471D01*
X97604807Y-112710002D01*
X97559137Y-112714500D01*
X94475863Y-112714500D01*
X94430193Y-112710002D01*
X94392182Y-112698471D01*
X94357158Y-112679751D01*
X94326451Y-112654549D01*
X94301249Y-112623842D01*
X94282529Y-112588818D01*
X94270998Y-112550807D01*
X94266500Y-112505137D01*
X94266500Y-111696863D01*
X94270998Y-111651193D01*
X94282529Y-111613182D01*
X94301249Y-111578158D01*
X94326451Y-111547451D01*
X94357158Y-111522249D01*
X94392182Y-111503529D01*
X94430193Y-111491998D01*
X94475863Y-111487500D01*
X97559137Y-111487500D01*
X97604807Y-111491998D01*
G37*
G36*
X66458928Y-111583564D02*
G01*
X66480009Y-111589960D01*
X66499445Y-111600348D01*
X66516476Y-111614324D01*
X66530452Y-111631355D01*
X66540840Y-111650791D01*
X66547236Y-111671872D01*
X66550000Y-111699940D01*
X66550000Y-112163660D01*
X66547236Y-112191728D01*
X66540840Y-112212809D01*
X66530452Y-112232245D01*
X66516476Y-112249276D01*
X66499445Y-112263252D01*
X66480009Y-112273640D01*
X66458928Y-112280036D01*
X66430860Y-112282800D01*
X64617140Y-112282800D01*
X64589072Y-112280036D01*
X64567991Y-112273640D01*
X64548555Y-112263252D01*
X64531524Y-112249276D01*
X64517548Y-112232245D01*
X64507160Y-112212809D01*
X64500764Y-112191728D01*
X64498000Y-112163660D01*
X64498000Y-111699940D01*
X64500764Y-111671872D01*
X64507160Y-111650791D01*
X64517548Y-111631355D01*
X64531524Y-111614324D01*
X64548555Y-111600348D01*
X64567991Y-111589960D01*
X64589072Y-111583564D01*
X64617140Y-111580800D01*
X66430860Y-111580800D01*
X66458928Y-111583564D01*
G37*
G36*
X19847000Y-112223800D02*
G01*
X18545000Y-112223800D01*
X18545000Y-109921800D01*
X19847000Y-109921800D01*
X19847000Y-112223800D01*
G37*
G36*
X22127000Y-112223800D02*
G01*
X20825000Y-112223800D01*
X20825000Y-109921800D01*
X22127000Y-109921800D01*
X22127000Y-112223800D01*
G37*
G36*
X24407000Y-112223800D02*
G01*
X23105000Y-112223800D01*
X23105000Y-109921800D01*
X24407000Y-109921800D01*
X24407000Y-112223800D01*
G37*
G36*
X61725468Y-110684365D02*
G01*
X61764138Y-110696096D01*
X61799777Y-110715146D01*
X61831017Y-110740783D01*
X61856654Y-110772023D01*
X61875704Y-110807662D01*
X61887435Y-110846332D01*
X61892000Y-110892688D01*
X61892000Y-111543912D01*
X61887435Y-111590268D01*
X61875704Y-111628938D01*
X61856654Y-111664577D01*
X61831017Y-111695817D01*
X61799777Y-111721454D01*
X61764138Y-111740504D01*
X61725468Y-111752235D01*
X61679112Y-111756800D01*
X60602888Y-111756800D01*
X60556532Y-111752235D01*
X60517862Y-111740504D01*
X60482223Y-111721454D01*
X60450983Y-111695817D01*
X60425346Y-111664577D01*
X60406296Y-111628938D01*
X60394565Y-111590268D01*
X60390000Y-111543912D01*
X60390000Y-110892688D01*
X60394565Y-110846332D01*
X60406296Y-110807662D01*
X60425346Y-110772023D01*
X60450983Y-110740783D01*
X60482223Y-110715146D01*
X60517862Y-110696096D01*
X60556532Y-110684365D01*
X60602888Y-110679800D01*
X61679112Y-110679800D01*
X61725468Y-110684365D01*
G37*
G36*
X63884468Y-110684365D02*
G01*
X63923138Y-110696096D01*
X63958777Y-110715146D01*
X63990017Y-110740783D01*
X64015654Y-110772023D01*
X64034704Y-110807662D01*
X64046435Y-110846332D01*
X64051000Y-110892688D01*
X64051000Y-111543912D01*
X64046435Y-111590268D01*
X64034704Y-111628938D01*
X64015654Y-111664577D01*
X63990017Y-111695817D01*
X63958777Y-111721454D01*
X63923138Y-111740504D01*
X63884468Y-111752235D01*
X63838112Y-111756800D01*
X62761888Y-111756800D01*
X62715532Y-111752235D01*
X62676862Y-111740504D01*
X62641223Y-111721454D01*
X62609983Y-111695817D01*
X62584346Y-111664577D01*
X62565296Y-111628938D01*
X62553565Y-111590268D01*
X62549000Y-111543912D01*
X62549000Y-110892688D01*
X62553565Y-110846332D01*
X62565296Y-110807662D01*
X62584346Y-110772023D01*
X62609983Y-110740783D01*
X62641223Y-110715146D01*
X62676862Y-110696096D01*
X62715532Y-110684365D01*
X62761888Y-110679800D01*
X63838112Y-110679800D01*
X63884468Y-110684365D01*
G37*
G36*
X51899468Y-109950665D02*
G01*
X51938138Y-109962396D01*
X51973777Y-109981446D01*
X52005017Y-110007083D01*
X52030654Y-110038323D01*
X52049704Y-110073962D01*
X52061435Y-110112632D01*
X52066000Y-110158988D01*
X52066000Y-110810212D01*
X52061435Y-110856568D01*
X52049704Y-110895238D01*
X52030654Y-110930877D01*
X52005017Y-110962117D01*
X51973777Y-110987754D01*
X51938138Y-111006804D01*
X51899468Y-111018535D01*
X51853112Y-111023100D01*
X50776888Y-111023100D01*
X50730532Y-111018535D01*
X50691862Y-111006804D01*
X50656223Y-110987754D01*
X50624983Y-110962117D01*
X50599346Y-110930877D01*
X50580296Y-110895238D01*
X50568565Y-110856568D01*
X50564000Y-110810212D01*
X50564000Y-110158988D01*
X50568565Y-110112632D01*
X50580296Y-110073962D01*
X50599346Y-110038323D01*
X50624983Y-110007083D01*
X50656223Y-109981446D01*
X50691862Y-109962396D01*
X50730532Y-109950665D01*
X50776888Y-109946100D01*
X51853112Y-109946100D01*
X51899468Y-109950665D01*
G37*
G36*
X66458928Y-110313564D02*
G01*
X66480009Y-110319960D01*
X66499445Y-110330348D01*
X66516476Y-110344324D01*
X66530452Y-110361355D01*
X66540840Y-110380791D01*
X66547236Y-110401872D01*
X66550000Y-110429940D01*
X66550000Y-110893660D01*
X66547236Y-110921728D01*
X66540840Y-110942809D01*
X66530452Y-110962245D01*
X66516476Y-110979276D01*
X66499445Y-110993252D01*
X66480009Y-111003640D01*
X66458928Y-111010036D01*
X66430860Y-111012800D01*
X64617140Y-111012800D01*
X64589072Y-111010036D01*
X64567991Y-111003640D01*
X64548555Y-110993252D01*
X64531524Y-110979276D01*
X64517548Y-110962245D01*
X64507160Y-110942809D01*
X64500764Y-110921728D01*
X64498000Y-110893660D01*
X64498000Y-110429940D01*
X64500764Y-110401872D01*
X64507160Y-110380791D01*
X64517548Y-110361355D01*
X64531524Y-110344324D01*
X64548555Y-110330348D01*
X64567991Y-110319960D01*
X64589072Y-110313564D01*
X64617140Y-110310800D01*
X66430860Y-110310800D01*
X66458928Y-110313564D01*
G37*
G36*
X80051000Y-106922360D02*
G01*
X80052508Y-106941719D01*
X80052929Y-106944405D01*
X80053600Y-106944800D01*
X80052972Y-106945420D01*
X80052604Y-106954428D01*
X80051000Y-106967888D01*
X80051000Y-106970709D01*
X80035816Y-106975315D01*
X80014205Y-106986866D01*
X79995821Y-107001857D01*
X75998664Y-110949050D01*
X75989600Y-110958000D01*
X72299125Y-110958000D01*
X72274739Y-110960402D01*
X72251290Y-110967515D01*
X72219827Y-110986373D01*
X72211444Y-110993252D01*
X72192009Y-111003640D01*
X72170928Y-111010036D01*
X72142860Y-111012800D01*
X70329140Y-111012800D01*
X70301072Y-111010036D01*
X70279991Y-111003640D01*
X70260555Y-110993252D01*
X70243524Y-110979276D01*
X70229548Y-110962245D01*
X70219160Y-110942809D01*
X70212764Y-110921728D01*
X70210000Y-110893660D01*
X70210000Y-110429940D01*
X70212764Y-110401872D01*
X70219159Y-110380793D01*
X70234441Y-110352202D01*
X70243818Y-110329563D01*
X70249200Y-110293278D01*
X70249200Y-109760322D01*
X70246798Y-109735936D01*
X70234441Y-109701398D01*
X70219159Y-109672807D01*
X70212764Y-109651728D01*
X70210000Y-109623660D01*
X70210000Y-109159940D01*
X70212764Y-109131872D01*
X70219159Y-109110793D01*
X70234441Y-109082202D01*
X70243818Y-109059563D01*
X70249200Y-109023278D01*
X70249200Y-108875200D01*
X72156201Y-108875200D01*
X72180587Y-108872798D01*
X72204036Y-108865685D01*
X72225647Y-108854134D01*
X72244589Y-108838589D01*
X72260134Y-108819647D01*
X72271685Y-108798036D01*
X72278798Y-108774587D01*
X72281200Y-108750201D01*
X72281200Y-107090799D01*
X72278798Y-107066413D01*
X72271685Y-107042964D01*
X72260134Y-107021353D01*
X72244589Y-107002411D01*
X72225647Y-106986866D01*
X72204036Y-106975315D01*
X72180587Y-106968202D01*
X72156201Y-106965800D01*
X71949000Y-106965800D01*
X71949000Y-98863800D01*
X80051000Y-98863800D01*
X80051000Y-106922360D01*
G37*
G36*
X44846000Y-110798600D02*
G01*
X38344000Y-110798600D01*
X38344000Y-104896600D01*
X44846000Y-104896600D01*
X44846000Y-110798600D01*
G37*
G36*
X49046000Y-110778600D02*
G01*
X46744000Y-110778600D01*
X46744000Y-109476600D01*
X49046000Y-109476600D01*
X49046000Y-110778600D01*
G37*
G36*
X61725468Y-108809365D02*
G01*
X61764138Y-108821096D01*
X61799777Y-108840146D01*
X61831017Y-108865783D01*
X61856654Y-108897023D01*
X61875704Y-108932662D01*
X61887435Y-108971332D01*
X61892000Y-109017688D01*
X61892000Y-109668912D01*
X61887435Y-109715268D01*
X61875704Y-109753938D01*
X61856654Y-109789577D01*
X61831017Y-109820817D01*
X61799777Y-109846454D01*
X61764138Y-109865504D01*
X61725468Y-109877235D01*
X61679112Y-109881800D01*
X60602888Y-109881800D01*
X60556532Y-109877235D01*
X60517862Y-109865504D01*
X60482223Y-109846454D01*
X60450983Y-109820817D01*
X60425346Y-109789577D01*
X60406296Y-109753938D01*
X60394565Y-109715268D01*
X60390000Y-109668912D01*
X60390000Y-109017688D01*
X60394565Y-108971332D01*
X60406296Y-108932662D01*
X60425346Y-108897023D01*
X60450983Y-108865783D01*
X60482223Y-108840146D01*
X60517862Y-108821096D01*
X60556532Y-108809365D01*
X60602888Y-108804800D01*
X61679112Y-108804800D01*
X61725468Y-108809365D01*
G37*
G36*
X63884468Y-108809365D02*
G01*
X63923138Y-108821096D01*
X63958777Y-108840146D01*
X63990017Y-108865783D01*
X64015654Y-108897023D01*
X64034704Y-108932662D01*
X64046435Y-108971332D01*
X64051000Y-109017688D01*
X64051000Y-109668912D01*
X64046435Y-109715268D01*
X64034704Y-109753938D01*
X64015654Y-109789577D01*
X63990017Y-109820817D01*
X63958777Y-109846454D01*
X63923138Y-109865504D01*
X63884468Y-109877235D01*
X63838112Y-109881800D01*
X62761888Y-109881800D01*
X62715532Y-109877235D01*
X62676862Y-109865504D01*
X62641223Y-109846454D01*
X62609983Y-109820817D01*
X62584346Y-109789577D01*
X62565296Y-109753938D01*
X62553565Y-109715268D01*
X62549000Y-109668912D01*
X62549000Y-109017688D01*
X62553565Y-108971332D01*
X62565296Y-108932662D01*
X62584346Y-108897023D01*
X62609983Y-108865783D01*
X62641223Y-108840146D01*
X62676862Y-108821096D01*
X62715532Y-108809365D01*
X62761888Y-108804800D01*
X63838112Y-108804800D01*
X63884468Y-108809365D01*
G37*
G36*
X66458928Y-109043564D02*
G01*
X66480009Y-109049960D01*
X66499445Y-109060348D01*
X66516476Y-109074324D01*
X66530452Y-109091355D01*
X66540840Y-109110791D01*
X66547236Y-109131872D01*
X66550000Y-109159940D01*
X66550000Y-109623660D01*
X66547236Y-109651728D01*
X66540840Y-109672809D01*
X66530452Y-109692245D01*
X66516476Y-109709276D01*
X66499445Y-109723252D01*
X66480009Y-109733640D01*
X66458928Y-109740036D01*
X66430860Y-109742800D01*
X64617140Y-109742800D01*
X64589072Y-109740036D01*
X64567991Y-109733640D01*
X64548555Y-109723252D01*
X64531524Y-109709276D01*
X64517548Y-109692245D01*
X64507160Y-109672809D01*
X64500764Y-109651728D01*
X64498000Y-109623660D01*
X64498000Y-109159940D01*
X64500764Y-109131872D01*
X64507160Y-109110791D01*
X64517548Y-109091355D01*
X64531524Y-109074324D01*
X64548555Y-109060348D01*
X64567991Y-109049960D01*
X64589072Y-109043564D01*
X64617140Y-109040800D01*
X66430860Y-109040800D01*
X66458928Y-109043564D01*
G37*
G36*
X51899468Y-108075665D02*
G01*
X51938138Y-108087396D01*
X51973777Y-108106446D01*
X52005017Y-108132083D01*
X52030654Y-108163323D01*
X52049704Y-108198962D01*
X52061435Y-108237632D01*
X52066000Y-108283988D01*
X52066000Y-108935212D01*
X52061435Y-108981568D01*
X52049704Y-109020238D01*
X52030654Y-109055877D01*
X52005017Y-109087117D01*
X51973777Y-109112754D01*
X51938138Y-109131804D01*
X51899468Y-109143535D01*
X51853112Y-109148100D01*
X50776888Y-109148100D01*
X50730532Y-109143535D01*
X50691862Y-109131804D01*
X50656223Y-109112754D01*
X50624983Y-109087117D01*
X50599346Y-109055877D01*
X50580296Y-109020238D01*
X50568565Y-108981568D01*
X50564000Y-108935212D01*
X50564000Y-108283988D01*
X50568565Y-108237632D01*
X50580296Y-108198962D01*
X50599346Y-108163323D01*
X50624983Y-108132083D01*
X50656223Y-108106446D01*
X50691862Y-108087396D01*
X50730532Y-108075665D01*
X50776888Y-108071100D01*
X51853112Y-108071100D01*
X51899468Y-108075665D01*
G37*
G36*
X49046000Y-108498600D02*
G01*
X46744000Y-108498600D01*
X46744000Y-107196600D01*
X49046000Y-107196600D01*
X49046000Y-108498600D01*
G37*
G36*
X102303807Y-107237498D02*
G01*
X102341818Y-107249029D01*
X102376842Y-107267749D01*
X102407549Y-107292951D01*
X102432751Y-107323658D01*
X102451471Y-107358682D01*
X102463002Y-107396693D01*
X102467500Y-107442363D01*
X102467500Y-108250637D01*
X102463002Y-108296307D01*
X102451471Y-108334318D01*
X102432751Y-108369342D01*
X102407549Y-108400049D01*
X102376842Y-108425251D01*
X102341818Y-108443971D01*
X102303807Y-108455502D01*
X102258137Y-108460000D01*
X99174863Y-108460000D01*
X99129193Y-108455502D01*
X99091182Y-108443971D01*
X99056158Y-108425251D01*
X99025451Y-108400049D01*
X99000249Y-108369342D01*
X98981529Y-108334318D01*
X98969998Y-108296307D01*
X98965500Y-108250637D01*
X98965500Y-107442363D01*
X98969998Y-107396693D01*
X98981529Y-107358682D01*
X99000249Y-107323658D01*
X99025451Y-107292951D01*
X99056158Y-107267749D01*
X99091182Y-107249029D01*
X99129193Y-107237498D01*
X99174863Y-107233000D01*
X102258137Y-107233000D01*
X102303807Y-107237498D01*
G37*
G36*
X107002807Y-107237498D02*
G01*
X107040818Y-107249029D01*
X107075842Y-107267749D01*
X107106549Y-107292951D01*
X107131751Y-107323658D01*
X107150471Y-107358682D01*
X107162002Y-107396693D01*
X107166500Y-107442363D01*
X107166500Y-108250637D01*
X107162002Y-108296307D01*
X107150471Y-108334318D01*
X107131751Y-108369342D01*
X107106549Y-108400049D01*
X107075842Y-108425251D01*
X107040818Y-108443971D01*
X107002807Y-108455502D01*
X106957137Y-108460000D01*
X103873863Y-108460000D01*
X103828193Y-108455502D01*
X103790182Y-108443971D01*
X103755158Y-108425251D01*
X103724451Y-108400049D01*
X103699249Y-108369342D01*
X103680529Y-108334318D01*
X103668998Y-108296307D01*
X103664500Y-108250637D01*
X103664500Y-107442363D01*
X103668998Y-107396693D01*
X103680529Y-107358682D01*
X103699249Y-107323658D01*
X103724451Y-107292951D01*
X103755158Y-107267749D01*
X103790182Y-107249029D01*
X103828193Y-107237498D01*
X103873863Y-107233000D01*
X106957137Y-107233000D01*
X107002807Y-107237498D01*
G37*
G36*
X111701807Y-107237498D02*
G01*
X111739818Y-107249029D01*
X111774842Y-107267749D01*
X111805549Y-107292951D01*
X111830751Y-107323658D01*
X111849471Y-107358682D01*
X111861002Y-107396693D01*
X111865500Y-107442363D01*
X111865500Y-108250637D01*
X111861002Y-108296307D01*
X111849471Y-108334318D01*
X111830751Y-108369342D01*
X111805549Y-108400049D01*
X111774842Y-108425251D01*
X111739818Y-108443971D01*
X111701807Y-108455502D01*
X111656137Y-108460000D01*
X108572863Y-108460000D01*
X108527193Y-108455502D01*
X108489182Y-108443971D01*
X108454158Y-108425251D01*
X108423451Y-108400049D01*
X108398249Y-108369342D01*
X108379529Y-108334318D01*
X108367998Y-108296307D01*
X108363500Y-108250637D01*
X108363500Y-107442363D01*
X108367998Y-107396693D01*
X108379529Y-107358682D01*
X108398249Y-107323658D01*
X108423451Y-107292951D01*
X108454158Y-107267749D01*
X108489182Y-107249029D01*
X108527193Y-107237498D01*
X108572863Y-107233000D01*
X111656137Y-107233000D01*
X111701807Y-107237498D01*
G37*
G36*
X97604807Y-107216998D02*
G01*
X97642818Y-107228529D01*
X97677842Y-107247249D01*
X97708549Y-107272451D01*
X97733751Y-107303158D01*
X97752471Y-107338182D01*
X97764002Y-107376193D01*
X97768500Y-107421863D01*
X97768500Y-108230137D01*
X97764002Y-108275807D01*
X97752471Y-108313818D01*
X97733751Y-108348842D01*
X97708549Y-108379549D01*
X97677842Y-108404751D01*
X97642818Y-108423471D01*
X97604807Y-108435002D01*
X97559137Y-108439500D01*
X94475863Y-108439500D01*
X94430193Y-108435002D01*
X94392182Y-108423471D01*
X94357158Y-108404751D01*
X94326451Y-108379549D01*
X94301249Y-108348842D01*
X94282529Y-108313818D01*
X94270998Y-108275807D01*
X94266500Y-108230137D01*
X94266500Y-107421863D01*
X94270998Y-107376193D01*
X94282529Y-107338182D01*
X94301249Y-107303158D01*
X94326451Y-107272451D01*
X94357158Y-107247249D01*
X94392182Y-107228529D01*
X94430193Y-107216998D01*
X94475863Y-107212500D01*
X97559137Y-107212500D01*
X97604807Y-107216998D01*
G37*
G36*
X24427000Y-108023800D02*
G01*
X18525000Y-108023800D01*
X18525000Y-101521800D01*
X24427000Y-101521800D01*
X24427000Y-108023800D01*
G37*
G36*
X51899468Y-106551665D02*
G01*
X51938138Y-106563396D01*
X51973777Y-106582446D01*
X52005017Y-106608083D01*
X52030654Y-106639323D01*
X52049704Y-106674962D01*
X52061435Y-106713632D01*
X52066000Y-106759988D01*
X52066000Y-107411212D01*
X52061435Y-107457568D01*
X52049704Y-107496238D01*
X52030654Y-107531877D01*
X52005017Y-107563117D01*
X51973777Y-107588754D01*
X51938138Y-107607804D01*
X51899468Y-107619535D01*
X51853112Y-107624100D01*
X50776888Y-107624100D01*
X50730532Y-107619535D01*
X50691862Y-107607804D01*
X50656223Y-107588754D01*
X50624983Y-107563117D01*
X50599346Y-107531877D01*
X50580296Y-107496238D01*
X50568565Y-107457568D01*
X50564000Y-107411212D01*
X50564000Y-106759988D01*
X50568565Y-106713632D01*
X50580296Y-106674962D01*
X50599346Y-106639323D01*
X50624983Y-106608083D01*
X50656223Y-106582446D01*
X50691862Y-106563396D01*
X50730532Y-106551665D01*
X50776888Y-106547100D01*
X51853112Y-106547100D01*
X51899468Y-106551665D01*
G37*
G36*
X15245512Y-105096727D02*
G01*
X15394812Y-105126424D01*
X15558784Y-105194344D01*
X15706354Y-105292947D01*
X15831853Y-105418446D01*
X15930456Y-105566016D01*
X15998376Y-105729988D01*
X16033000Y-105904059D01*
X16033000Y-106081541D01*
X15998376Y-106255612D01*
X15930456Y-106419584D01*
X15831853Y-106567154D01*
X15706354Y-106692653D01*
X15558784Y-106791256D01*
X15394812Y-106859176D01*
X15245512Y-106888873D01*
X15220742Y-106893800D01*
X15043258Y-106893800D01*
X15018488Y-106888873D01*
X14869188Y-106859176D01*
X14705216Y-106791256D01*
X14557646Y-106692653D01*
X14432147Y-106567154D01*
X14333544Y-106419584D01*
X14265624Y-106255612D01*
X14231000Y-106081541D01*
X14231000Y-105904059D01*
X14265624Y-105729988D01*
X14333544Y-105566016D01*
X14432147Y-105418446D01*
X14557646Y-105292947D01*
X14705216Y-105194344D01*
X14869188Y-105126424D01*
X15018488Y-105096727D01*
X15043258Y-105091800D01*
X15220742Y-105091800D01*
X15245512Y-105096727D01*
G37*
G36*
X29847468Y-104808365D02*
G01*
X29886138Y-104820096D01*
X29921777Y-104839146D01*
X29953017Y-104864783D01*
X29978654Y-104896023D01*
X29997704Y-104931662D01*
X30009435Y-104970332D01*
X30014000Y-105016688D01*
X30014000Y-106092912D01*
X30009435Y-106139268D01*
X29997704Y-106177938D01*
X29978654Y-106213577D01*
X29953017Y-106244817D01*
X29921777Y-106270454D01*
X29886138Y-106289504D01*
X29847468Y-106301235D01*
X29801112Y-106305800D01*
X29149888Y-106305800D01*
X29103532Y-106301235D01*
X29064862Y-106289504D01*
X29029223Y-106270454D01*
X28997983Y-106244817D01*
X28972346Y-106213577D01*
X28953296Y-106177938D01*
X28941565Y-106139268D01*
X28937000Y-106092912D01*
X28937000Y-105016688D01*
X28941565Y-104970332D01*
X28953296Y-104931662D01*
X28972346Y-104896023D01*
X28997983Y-104864783D01*
X29029223Y-104839146D01*
X29064862Y-104820096D01*
X29103532Y-104808365D01*
X29149888Y-104803800D01*
X29801112Y-104803800D01*
X29847468Y-104808365D01*
G37*
G36*
X27972468Y-104808365D02*
G01*
X28011138Y-104820096D01*
X28046777Y-104839146D01*
X28078017Y-104864783D01*
X28103654Y-104896023D01*
X28122704Y-104931662D01*
X28134435Y-104970332D01*
X28139000Y-105016688D01*
X28139000Y-106092912D01*
X28134435Y-106139268D01*
X28122704Y-106177938D01*
X28103654Y-106213577D01*
X28078017Y-106244817D01*
X28046777Y-106270454D01*
X28011138Y-106289504D01*
X27972468Y-106301235D01*
X27926112Y-106305800D01*
X27274888Y-106305800D01*
X27228532Y-106301235D01*
X27189862Y-106289504D01*
X27154223Y-106270454D01*
X27122983Y-106244817D01*
X27097346Y-106213577D01*
X27078296Y-106177938D01*
X27066565Y-106139268D01*
X27062000Y-106092912D01*
X27062000Y-105016688D01*
X27066565Y-104970332D01*
X27078296Y-104931662D01*
X27097346Y-104896023D01*
X27122983Y-104864783D01*
X27154223Y-104839146D01*
X27189862Y-104820096D01*
X27228532Y-104808365D01*
X27274888Y-104803800D01*
X27926112Y-104803800D01*
X27972468Y-104808365D01*
G37*
G36*
X49046000Y-106218600D02*
G01*
X46744000Y-106218600D01*
X46744000Y-104916600D01*
X49046000Y-104916600D01*
X49046000Y-106218600D01*
G37*
G36*
X51899468Y-104676665D02*
G01*
X51938138Y-104688396D01*
X51973777Y-104707446D01*
X52005017Y-104733083D01*
X52030654Y-104764323D01*
X52049704Y-104799962D01*
X52061435Y-104838632D01*
X52066000Y-104884988D01*
X52066000Y-105536212D01*
X52061435Y-105582568D01*
X52049704Y-105621238D01*
X52030654Y-105656877D01*
X52005017Y-105688117D01*
X51973777Y-105713754D01*
X51938138Y-105732804D01*
X51899468Y-105744535D01*
X51853112Y-105749100D01*
X50776888Y-105749100D01*
X50730532Y-105744535D01*
X50691862Y-105732804D01*
X50656223Y-105713754D01*
X50624983Y-105688117D01*
X50599346Y-105656877D01*
X50580296Y-105621238D01*
X50568565Y-105582568D01*
X50564000Y-105536212D01*
X50564000Y-104884988D01*
X50568565Y-104838632D01*
X50580296Y-104799962D01*
X50599346Y-104764323D01*
X50624983Y-104733083D01*
X50656223Y-104707446D01*
X50691862Y-104688396D01*
X50730532Y-104676665D01*
X50776888Y-104672100D01*
X51853112Y-104672100D01*
X51899468Y-104676665D01*
G37*
G36*
X16033000Y-104353800D02*
G01*
X14231000Y-104353800D01*
X14231000Y-102551800D01*
X16033000Y-102551800D01*
X16033000Y-104353800D01*
G37*
G36*
X28767512Y-101820727D02*
G01*
X28916812Y-101850424D01*
X29080784Y-101918344D01*
X29228354Y-102016947D01*
X29353853Y-102142446D01*
X29452456Y-102290016D01*
X29520376Y-102453988D01*
X29550073Y-102603288D01*
X29555000Y-102628058D01*
X29555000Y-102805542D01*
X29551142Y-102824939D01*
X29520376Y-102979612D01*
X29452456Y-103143584D01*
X29353853Y-103291154D01*
X29228354Y-103416653D01*
X29080784Y-103515256D01*
X28916812Y-103583176D01*
X28767512Y-103612873D01*
X28742742Y-103617800D01*
X28565258Y-103617800D01*
X28540488Y-103612873D01*
X28391188Y-103583176D01*
X28227216Y-103515256D01*
X28079646Y-103416653D01*
X27954147Y-103291154D01*
X27855544Y-103143584D01*
X27787624Y-102979612D01*
X27756858Y-102824939D01*
X27753000Y-102805542D01*
X27753000Y-102628058D01*
X27757927Y-102603288D01*
X27787624Y-102453988D01*
X27855544Y-102290016D01*
X27954147Y-102142446D01*
X28079646Y-102016947D01*
X28227216Y-101918344D01*
X28391188Y-101850424D01*
X28540488Y-101820727D01*
X28565258Y-101815800D01*
X28742742Y-101815800D01*
X28767512Y-101820727D01*
G37*
G36*
X32320968Y-101406365D02*
G01*
X32359638Y-101418096D01*
X32395277Y-101437146D01*
X32426517Y-101462783D01*
X32452154Y-101494023D01*
X32471204Y-101529662D01*
X32482935Y-101568332D01*
X32487500Y-101614688D01*
X32487500Y-102690912D01*
X32482935Y-102737268D01*
X32471204Y-102775938D01*
X32452154Y-102811577D01*
X32426517Y-102842817D01*
X32395277Y-102868454D01*
X32359638Y-102887504D01*
X32320968Y-102899235D01*
X32274612Y-102903800D01*
X31623388Y-102903800D01*
X31577032Y-102899235D01*
X31538362Y-102887504D01*
X31502723Y-102868454D01*
X31471483Y-102842817D01*
X31445846Y-102811577D01*
X31426796Y-102775938D01*
X31415065Y-102737268D01*
X31410500Y-102690912D01*
X31410500Y-101614688D01*
X31415065Y-101568332D01*
X31426796Y-101529662D01*
X31445846Y-101494023D01*
X31471483Y-101462783D01*
X31502723Y-101437146D01*
X31538362Y-101418096D01*
X31577032Y-101406365D01*
X31623388Y-101401800D01*
X32274612Y-101401800D01*
X32320968Y-101406365D01*
G37*
G36*
X34195968Y-101406365D02*
G01*
X34234638Y-101418096D01*
X34270277Y-101437146D01*
X34301517Y-101462783D01*
X34327154Y-101494023D01*
X34346204Y-101529662D01*
X34357935Y-101568332D01*
X34362500Y-101614688D01*
X34362500Y-102690912D01*
X34357935Y-102737268D01*
X34346204Y-102775938D01*
X34327154Y-102811577D01*
X34301517Y-102842817D01*
X34270277Y-102868454D01*
X34234638Y-102887504D01*
X34195968Y-102899235D01*
X34149612Y-102903800D01*
X33498388Y-102903800D01*
X33452032Y-102899235D01*
X33413362Y-102887504D01*
X33377723Y-102868454D01*
X33346483Y-102842817D01*
X33320846Y-102811577D01*
X33301796Y-102775938D01*
X33290065Y-102737268D01*
X33285500Y-102690912D01*
X33285500Y-101614688D01*
X33290065Y-101568332D01*
X33301796Y-101529662D01*
X33320846Y-101494023D01*
X33346483Y-101462783D01*
X33377723Y-101437146D01*
X33413362Y-101418096D01*
X33452032Y-101406365D01*
X33498388Y-101401800D01*
X34149612Y-101401800D01*
X34195968Y-101406365D01*
G37*
G36*
X29555000Y-101077800D02*
G01*
X27753000Y-101077800D01*
X27753000Y-99275800D01*
X29555000Y-99275800D01*
X29555000Y-101077800D01*
G37*
G36*
X32320968Y-99120365D02*
G01*
X32359638Y-99132096D01*
X32395277Y-99151146D01*
X32426517Y-99176783D01*
X32452154Y-99208023D01*
X32471204Y-99243662D01*
X32482935Y-99282332D01*
X32487500Y-99328688D01*
X32487500Y-100404912D01*
X32482935Y-100451268D01*
X32471204Y-100489938D01*
X32452154Y-100525577D01*
X32426517Y-100556817D01*
X32395277Y-100582454D01*
X32359638Y-100601504D01*
X32320968Y-100613235D01*
X32274612Y-100617800D01*
X31623388Y-100617800D01*
X31577032Y-100613235D01*
X31538362Y-100601504D01*
X31502723Y-100582454D01*
X31471483Y-100556817D01*
X31445846Y-100525577D01*
X31426796Y-100489938D01*
X31415065Y-100451268D01*
X31410500Y-100404912D01*
X31410500Y-99328688D01*
X31415065Y-99282332D01*
X31426796Y-99243662D01*
X31445846Y-99208023D01*
X31471483Y-99176783D01*
X31502723Y-99151146D01*
X31538362Y-99132096D01*
X31577032Y-99120365D01*
X31623388Y-99115800D01*
X32274612Y-99115800D01*
X32320968Y-99120365D01*
G37*
G36*
X34195968Y-99120365D02*
G01*
X34234638Y-99132096D01*
X34270277Y-99151146D01*
X34301517Y-99176783D01*
X34327154Y-99208023D01*
X34346204Y-99243662D01*
X34357935Y-99282332D01*
X34362500Y-99328688D01*
X34362500Y-100404912D01*
X34357935Y-100451268D01*
X34346204Y-100489938D01*
X34327154Y-100525577D01*
X34301517Y-100556817D01*
X34270277Y-100582454D01*
X34234638Y-100601504D01*
X34195968Y-100613235D01*
X34149612Y-100617800D01*
X33498388Y-100617800D01*
X33452032Y-100613235D01*
X33413362Y-100601504D01*
X33377723Y-100582454D01*
X33346483Y-100556817D01*
X33320846Y-100525577D01*
X33301796Y-100489938D01*
X33290065Y-100451268D01*
X33285500Y-100404912D01*
X33285500Y-99328688D01*
X33290065Y-99282332D01*
X33301796Y-99243662D01*
X33320846Y-99208023D01*
X33346483Y-99176783D01*
X33377723Y-99151146D01*
X33413362Y-99132096D01*
X33452032Y-99120365D01*
X33498388Y-99115800D01*
X34149612Y-99115800D01*
X34195968Y-99120365D01*
G37*
G36*
X15914968Y-98764365D02*
G01*
X15953638Y-98776096D01*
X15989277Y-98795146D01*
X16020517Y-98820783D01*
X16046154Y-98852023D01*
X16065204Y-98887662D01*
X16076935Y-98926332D01*
X16081500Y-98972688D01*
X16081500Y-100048912D01*
X16076935Y-100095268D01*
X16065204Y-100133938D01*
X16046154Y-100169577D01*
X16020517Y-100200817D01*
X15989277Y-100226454D01*
X15953638Y-100245504D01*
X15914968Y-100257235D01*
X15868612Y-100261800D01*
X15217388Y-100261800D01*
X15171032Y-100257235D01*
X15132362Y-100245504D01*
X15096723Y-100226454D01*
X15065483Y-100200817D01*
X15039846Y-100169577D01*
X15020796Y-100133938D01*
X15009065Y-100095268D01*
X15004500Y-100048912D01*
X15004500Y-98972688D01*
X15009065Y-98926332D01*
X15020796Y-98887662D01*
X15039846Y-98852023D01*
X15065483Y-98820783D01*
X15096723Y-98795146D01*
X15132362Y-98776096D01*
X15171032Y-98764365D01*
X15217388Y-98759800D01*
X15868612Y-98759800D01*
X15914968Y-98764365D01*
G37*
G36*
X17789968Y-98764365D02*
G01*
X17828638Y-98776096D01*
X17864277Y-98795146D01*
X17895517Y-98820783D01*
X17921154Y-98852023D01*
X17940204Y-98887662D01*
X17951935Y-98926332D01*
X17956500Y-98972688D01*
X17956500Y-100048912D01*
X17951935Y-100095268D01*
X17940204Y-100133938D01*
X17921154Y-100169577D01*
X17895517Y-100200817D01*
X17864277Y-100226454D01*
X17828638Y-100245504D01*
X17789968Y-100257235D01*
X17743612Y-100261800D01*
X17092388Y-100261800D01*
X17046032Y-100257235D01*
X17007362Y-100245504D01*
X16971723Y-100226454D01*
X16940483Y-100200817D01*
X16914846Y-100169577D01*
X16895796Y-100133938D01*
X16884065Y-100095268D01*
X16879500Y-100048912D01*
X16879500Y-98972688D01*
X16884065Y-98926332D01*
X16895796Y-98887662D01*
X16914846Y-98852023D01*
X16940483Y-98820783D01*
X16971723Y-98795146D01*
X17007362Y-98776096D01*
X17046032Y-98764365D01*
X17092388Y-98759800D01*
X17743612Y-98759800D01*
X17789968Y-98764365D01*
G37*
G36*
X15917395Y-95812346D02*
G01*
X16090466Y-95884034D01*
X16090467Y-95884035D01*
X16246227Y-95988110D01*
X16378690Y-96120573D01*
X16378691Y-96120575D01*
X16482766Y-96276334D01*
X16554454Y-96449405D01*
X16591000Y-96633133D01*
X16591000Y-96820467D01*
X16554454Y-97004195D01*
X16482766Y-97177266D01*
X16482765Y-97177267D01*
X16378690Y-97333027D01*
X16246227Y-97465490D01*
X16167818Y-97517881D01*
X16090466Y-97569566D01*
X15917395Y-97641254D01*
X15733667Y-97677800D01*
X15546333Y-97677800D01*
X15362605Y-97641254D01*
X15189534Y-97569566D01*
X15112182Y-97517881D01*
X15033773Y-97465490D01*
X14901310Y-97333027D01*
X14797235Y-97177267D01*
X14797234Y-97177266D01*
X14725546Y-97004195D01*
X14689000Y-96820467D01*
X14689000Y-96633133D01*
X14725546Y-96449405D01*
X14797234Y-96276334D01*
X14901309Y-96120575D01*
X14901310Y-96120573D01*
X15033773Y-95988110D01*
X15189533Y-95884035D01*
X15189534Y-95884034D01*
X15362605Y-95812346D01*
X15546333Y-95775800D01*
X15733667Y-95775800D01*
X15917395Y-95812346D01*
G37*
G36*
X16591000Y-95137800D02*
G01*
X14689000Y-95137800D01*
X14689000Y-93235800D01*
X16591000Y-93235800D01*
X16591000Y-95137800D01*
G37*
G36*
X95153985Y-88244660D02*
G01*
X95266748Y-88267090D01*
X95398741Y-88321763D01*
X95585408Y-88399083D01*
X95872196Y-88590709D01*
X96116091Y-88834604D01*
X96307717Y-89121392D01*
X96439710Y-89440053D01*
X96507000Y-89778340D01*
X96507000Y-90123260D01*
X96439710Y-90461547D01*
X96307717Y-90780208D01*
X96116091Y-91066996D01*
X95872196Y-91310891D01*
X95585408Y-91502517D01*
X95398741Y-91579837D01*
X95266748Y-91634510D01*
X95153985Y-91656940D01*
X94928460Y-91701800D01*
X94583540Y-91701800D01*
X94358015Y-91656940D01*
X94245252Y-91634510D01*
X94113259Y-91579837D01*
X93926592Y-91502517D01*
X93639804Y-91310891D01*
X93395909Y-91066996D01*
X93204283Y-90780208D01*
X93072290Y-90461547D01*
X93005000Y-90123260D01*
X93005000Y-89778340D01*
X93072290Y-89440053D01*
X93204283Y-89121392D01*
X93395909Y-88834604D01*
X93639804Y-88590709D01*
X93926592Y-88399083D01*
X94113259Y-88321763D01*
X94245252Y-88267090D01*
X94358015Y-88244660D01*
X94583540Y-88199800D01*
X94928460Y-88199800D01*
X95153985Y-88244660D01*
G37*
G36*
X79862564Y-85140189D02*
G01*
X80053833Y-85219415D01*
X80053835Y-85219416D01*
X80225973Y-85334435D01*
X80372365Y-85480827D01*
X80487385Y-85652967D01*
X80566611Y-85844236D01*
X80607000Y-86047284D01*
X80607000Y-86254316D01*
X80566611Y-86457364D01*
X80487385Y-86648633D01*
X80487384Y-86648635D01*
X80372365Y-86820773D01*
X80225973Y-86967165D01*
X80053835Y-87082184D01*
X80053834Y-87082185D01*
X80053833Y-87082185D01*
X79862564Y-87161411D01*
X79659516Y-87201800D01*
X79452484Y-87201800D01*
X79249436Y-87161411D01*
X79058167Y-87082185D01*
X79058166Y-87082185D01*
X79058165Y-87082184D01*
X78886027Y-86967165D01*
X78739635Y-86820773D01*
X78624616Y-86648635D01*
X78624615Y-86648633D01*
X78545389Y-86457364D01*
X78505000Y-86254316D01*
X78505000Y-86047284D01*
X78545389Y-85844236D01*
X78624615Y-85652967D01*
X78739635Y-85480827D01*
X78886027Y-85334435D01*
X79058165Y-85219416D01*
X79058167Y-85219415D01*
X79249436Y-85140189D01*
X79452484Y-85099800D01*
X79659516Y-85099800D01*
X79862564Y-85140189D01*
G37*
G36*
X80234210Y-74909289D02*
G01*
X80320950Y-74935602D01*
X80400889Y-74978330D01*
X80470962Y-75035838D01*
X80528470Y-75105911D01*
X80571198Y-75185850D01*
X80597511Y-75272590D01*
X80607000Y-75368940D01*
X80607000Y-76532660D01*
X80597511Y-76629010D01*
X80571198Y-76715750D01*
X80528470Y-76795689D01*
X80470962Y-76865762D01*
X80400889Y-76923270D01*
X80320950Y-76965998D01*
X80234210Y-76992311D01*
X80137860Y-77001800D01*
X78974140Y-77001800D01*
X78877790Y-76992311D01*
X78791050Y-76965998D01*
X78711111Y-76923270D01*
X78641038Y-76865762D01*
X78583530Y-76795689D01*
X78540802Y-76715750D01*
X78514489Y-76629010D01*
X78505000Y-76532660D01*
X78505000Y-75368940D01*
X78514489Y-75272590D01*
X78540802Y-75185850D01*
X78583530Y-75105911D01*
X78641038Y-75035838D01*
X78711111Y-74978330D01*
X78791050Y-74935602D01*
X78877790Y-74909289D01*
X78974140Y-74899800D01*
X80137860Y-74899800D01*
X80234210Y-74909289D01*
G37*
G36*
X59738228Y-74664503D02*
G01*
X59893100Y-74728653D01*
X60032481Y-74821785D01*
X60151015Y-74940319D01*
X60244147Y-75079700D01*
X60308297Y-75234572D01*
X60341000Y-75398984D01*
X60341000Y-75566616D01*
X60308297Y-75731028D01*
X60244147Y-75885900D01*
X60151015Y-76025281D01*
X60032481Y-76143815D01*
X59893100Y-76236947D01*
X59738228Y-76301097D01*
X59573816Y-76333800D01*
X59406184Y-76333800D01*
X59241772Y-76301097D01*
X59086900Y-76236947D01*
X58947519Y-76143815D01*
X58828985Y-76025281D01*
X58735853Y-75885900D01*
X58671703Y-75731028D01*
X58639000Y-75566616D01*
X58639000Y-75398984D01*
X58671703Y-75234572D01*
X58735853Y-75079700D01*
X58828985Y-74940319D01*
X58947519Y-74821785D01*
X59086900Y-74728653D01*
X59241772Y-74664503D01*
X59406184Y-74631800D01*
X59573816Y-74631800D01*
X59738228Y-74664503D01*
G37*
G36*
X62278228Y-74664503D02*
G01*
X62433100Y-74728653D01*
X62572481Y-74821785D01*
X62691015Y-74940319D01*
X62784147Y-75079700D01*
X62848297Y-75234572D01*
X62881000Y-75398984D01*
X62881000Y-75566616D01*
X62848297Y-75731028D01*
X62784147Y-75885900D01*
X62691015Y-76025281D01*
X62572481Y-76143815D01*
X62433100Y-76236947D01*
X62278228Y-76301097D01*
X62113816Y-76333800D01*
X61946184Y-76333800D01*
X61781772Y-76301097D01*
X61626900Y-76236947D01*
X61487519Y-76143815D01*
X61368985Y-76025281D01*
X61275853Y-75885900D01*
X61211703Y-75731028D01*
X61179000Y-75566616D01*
X61179000Y-75398984D01*
X61211703Y-75234572D01*
X61275853Y-75079700D01*
X61368985Y-74940319D01*
X61487519Y-74821785D01*
X61626900Y-74728653D01*
X61781772Y-74664503D01*
X61946184Y-74631800D01*
X62113816Y-74631800D01*
X62278228Y-74664503D01*
G37*
G36*
X29518000Y-48507023D02*
G01*
X29520402Y-48531409D01*
X29527515Y-48554858D01*
X29539066Y-48576469D01*
X29554611Y-48595411D01*
X34053389Y-53094189D01*
X34072331Y-53109734D01*
X34093942Y-53121285D01*
X34117391Y-53128398D01*
X34141777Y-53130800D01*
X88192000Y-53130800D01*
X94288000Y-59226800D01*
X94288000Y-71926800D01*
X93780000Y-73196800D01*
X93776150Y-73199688D01*
X93776146Y-73199691D01*
X93361213Y-73510890D01*
X92764000Y-73958800D01*
X91494000Y-73958800D01*
X88025730Y-70599084D01*
X87696409Y-70280071D01*
X87692000Y-70275800D01*
X87682593Y-66243805D01*
X87676117Y-63468134D01*
X87673658Y-63443754D01*
X87666490Y-63420322D01*
X87654889Y-63398738D01*
X87641034Y-63381593D01*
X83910857Y-59518966D01*
X83892189Y-59503093D01*
X83870783Y-59491167D01*
X83847462Y-59483646D01*
X83820941Y-59480800D01*
X50092000Y-59480800D01*
X47334250Y-56723050D01*
X47315308Y-56707505D01*
X47293697Y-56695954D01*
X47270248Y-56688841D01*
X47246736Y-56686442D01*
X29143144Y-56559843D01*
X29137000Y-56559800D01*
X26470000Y-53892800D01*
X26470000Y-25444800D01*
X29518000Y-22396800D01*
X29518000Y-48507023D01*
G37*
G36*
X18024000Y-70591800D02*
G01*
X15422000Y-70591800D01*
X15422000Y-68689800D01*
X18024000Y-68689800D01*
X18024000Y-70591800D01*
G37*
G36*
X22024000Y-70591800D02*
G01*
X19422000Y-70591800D01*
X19422000Y-68689800D01*
X22024000Y-68689800D01*
X22024000Y-70591800D01*
G37*
G36*
X26239000Y-70455800D02*
G01*
X24437000Y-70455800D01*
X24437000Y-68653800D01*
X26239000Y-68653800D01*
X26239000Y-70455800D01*
G37*
G36*
X30531512Y-68658727D02*
G01*
X30680812Y-68688424D01*
X30844784Y-68756344D01*
X30992354Y-68854947D01*
X31117853Y-68980446D01*
X31216456Y-69128016D01*
X31284376Y-69291988D01*
X31307500Y-69408245D01*
X31316886Y-69455428D01*
X31319000Y-69466059D01*
X31319000Y-69643541D01*
X31284376Y-69817612D01*
X31216456Y-69981584D01*
X31117853Y-70129154D01*
X30992354Y-70254653D01*
X30844784Y-70353256D01*
X30680812Y-70421176D01*
X30531512Y-70450873D01*
X30506742Y-70455800D01*
X30329258Y-70455800D01*
X30304488Y-70450873D01*
X30155188Y-70421176D01*
X29991216Y-70353256D01*
X29843646Y-70254653D01*
X29718147Y-70129154D01*
X29619544Y-69981584D01*
X29551624Y-69817612D01*
X29517000Y-69643541D01*
X29517000Y-69466059D01*
X29519115Y-69455428D01*
X29528500Y-69408245D01*
X29551624Y-69291988D01*
X29619544Y-69128016D01*
X29718147Y-68980446D01*
X29843646Y-68854947D01*
X29991216Y-68756344D01*
X30155188Y-68688424D01*
X30304488Y-68658727D01*
X30329258Y-68653800D01*
X30506742Y-68653800D01*
X30531512Y-68658727D01*
G37*
G36*
X49191512Y-68658727D02*
G01*
X49340812Y-68688424D01*
X49504784Y-68756344D01*
X49652354Y-68854947D01*
X49777853Y-68980446D01*
X49876456Y-69128016D01*
X49944376Y-69291988D01*
X49967500Y-69408245D01*
X49976886Y-69455428D01*
X49979000Y-69466059D01*
X49979000Y-69643541D01*
X49944376Y-69817612D01*
X49876456Y-69981584D01*
X49777853Y-70129154D01*
X49652354Y-70254653D01*
X49504784Y-70353256D01*
X49340812Y-70421176D01*
X49191512Y-70450873D01*
X49166742Y-70455800D01*
X48989258Y-70455800D01*
X48964488Y-70450873D01*
X48815188Y-70421176D01*
X48651216Y-70353256D01*
X48503646Y-70254653D01*
X48378147Y-70129154D01*
X48279544Y-69981584D01*
X48211624Y-69817612D01*
X48177000Y-69643541D01*
X48177000Y-69466059D01*
X48179115Y-69455428D01*
X48188500Y-69408245D01*
X48211624Y-69291988D01*
X48279544Y-69128016D01*
X48378147Y-68980446D01*
X48503646Y-68854947D01*
X48651216Y-68756344D01*
X48815188Y-68688424D01*
X48964488Y-68658727D01*
X48989258Y-68653800D01*
X49166742Y-68653800D01*
X49191512Y-68658727D01*
G37*
G36*
X33071512Y-68658727D02*
G01*
X33220812Y-68688424D01*
X33384784Y-68756344D01*
X33532354Y-68854947D01*
X33657853Y-68980446D01*
X33756456Y-69128016D01*
X33824376Y-69291988D01*
X33847500Y-69408245D01*
X33856886Y-69455428D01*
X33859000Y-69466059D01*
X33859000Y-69643541D01*
X33824376Y-69817612D01*
X33756456Y-69981584D01*
X33657853Y-70129154D01*
X33532354Y-70254653D01*
X33384784Y-70353256D01*
X33220812Y-70421176D01*
X33071512Y-70450873D01*
X33046742Y-70455800D01*
X32869258Y-70455800D01*
X32844488Y-70450873D01*
X32695188Y-70421176D01*
X32531216Y-70353256D01*
X32383646Y-70254653D01*
X32258147Y-70129154D01*
X32159544Y-69981584D01*
X32091624Y-69817612D01*
X32057000Y-69643541D01*
X32057000Y-69466059D01*
X32059115Y-69455428D01*
X32068500Y-69408245D01*
X32091624Y-69291988D01*
X32159544Y-69128016D01*
X32258147Y-68980446D01*
X32383646Y-68854947D01*
X32531216Y-68756344D01*
X32695188Y-68688424D01*
X32844488Y-68658727D01*
X32869258Y-68653800D01*
X33046742Y-68653800D01*
X33071512Y-68658727D01*
G37*
G36*
X46651512Y-68658727D02*
G01*
X46800812Y-68688424D01*
X46964784Y-68756344D01*
X47112354Y-68854947D01*
X47237853Y-68980446D01*
X47336456Y-69128016D01*
X47404376Y-69291988D01*
X47427500Y-69408245D01*
X47436886Y-69455428D01*
X47439000Y-69466059D01*
X47439000Y-69643541D01*
X47404376Y-69817612D01*
X47336456Y-69981584D01*
X47237853Y-70129154D01*
X47112354Y-70254653D01*
X46964784Y-70353256D01*
X46800812Y-70421176D01*
X46651512Y-70450873D01*
X46626742Y-70455800D01*
X46449258Y-70455800D01*
X46424488Y-70450873D01*
X46275188Y-70421176D01*
X46111216Y-70353256D01*
X45963646Y-70254653D01*
X45838147Y-70129154D01*
X45739544Y-69981584D01*
X45671624Y-69817612D01*
X45637000Y-69643541D01*
X45637000Y-69466059D01*
X45639115Y-69455428D01*
X45648500Y-69408245D01*
X45671624Y-69291988D01*
X45739544Y-69128016D01*
X45838147Y-68980446D01*
X45963646Y-68854947D01*
X46111216Y-68756344D01*
X46275188Y-68688424D01*
X46424488Y-68658727D01*
X46449258Y-68653800D01*
X46626742Y-68653800D01*
X46651512Y-68658727D01*
G37*
G36*
X35611512Y-68658727D02*
G01*
X35760812Y-68688424D01*
X35924784Y-68756344D01*
X36072354Y-68854947D01*
X36197853Y-68980446D01*
X36296456Y-69128016D01*
X36364376Y-69291988D01*
X36387500Y-69408245D01*
X36396886Y-69455428D01*
X36399000Y-69466059D01*
X36399000Y-69643541D01*
X36364376Y-69817612D01*
X36296456Y-69981584D01*
X36197853Y-70129154D01*
X36072354Y-70254653D01*
X35924784Y-70353256D01*
X35760812Y-70421176D01*
X35611512Y-70450873D01*
X35586742Y-70455800D01*
X35409258Y-70455800D01*
X35384488Y-70450873D01*
X35235188Y-70421176D01*
X35071216Y-70353256D01*
X34923646Y-70254653D01*
X34798147Y-70129154D01*
X34699544Y-69981584D01*
X34631624Y-69817612D01*
X34597000Y-69643541D01*
X34597000Y-69466059D01*
X34599115Y-69455428D01*
X34608500Y-69408245D01*
X34631624Y-69291988D01*
X34699544Y-69128016D01*
X34798147Y-68980446D01*
X34923646Y-68854947D01*
X35071216Y-68756344D01*
X35235188Y-68688424D01*
X35384488Y-68658727D01*
X35409258Y-68653800D01*
X35586742Y-68653800D01*
X35611512Y-68658727D01*
G37*
G36*
X27991512Y-68658727D02*
G01*
X28140812Y-68688424D01*
X28304784Y-68756344D01*
X28452354Y-68854947D01*
X28577853Y-68980446D01*
X28676456Y-69128016D01*
X28744376Y-69291988D01*
X28767500Y-69408245D01*
X28776886Y-69455428D01*
X28779000Y-69466059D01*
X28779000Y-69643541D01*
X28744376Y-69817612D01*
X28676456Y-69981584D01*
X28577853Y-70129154D01*
X28452354Y-70254653D01*
X28304784Y-70353256D01*
X28140812Y-70421176D01*
X27991512Y-70450873D01*
X27966742Y-70455800D01*
X27789258Y-70455800D01*
X27764488Y-70450873D01*
X27615188Y-70421176D01*
X27451216Y-70353256D01*
X27303646Y-70254653D01*
X27178147Y-70129154D01*
X27079544Y-69981584D01*
X27011624Y-69817612D01*
X26977000Y-69643541D01*
X26977000Y-69466059D01*
X26979115Y-69455428D01*
X26988500Y-69408245D01*
X27011624Y-69291988D01*
X27079544Y-69128016D01*
X27178147Y-68980446D01*
X27303646Y-68854947D01*
X27451216Y-68756344D01*
X27615188Y-68688424D01*
X27764488Y-68658727D01*
X27789258Y-68653800D01*
X27966742Y-68653800D01*
X27991512Y-68658727D01*
G37*
G36*
X52519000Y-70455800D02*
G01*
X50717000Y-70455800D01*
X50717000Y-68653800D01*
X52519000Y-68653800D01*
X52519000Y-70455800D01*
G37*
G36*
X69465428Y-67409564D02*
G01*
X69486509Y-67415960D01*
X69505945Y-67426348D01*
X69522976Y-67440324D01*
X69536952Y-67457355D01*
X69547340Y-67476791D01*
X69553736Y-67497872D01*
X69556500Y-67525940D01*
X69556500Y-69339660D01*
X69553736Y-69367728D01*
X69547340Y-69388809D01*
X69536952Y-69408245D01*
X69522976Y-69425276D01*
X69505945Y-69439252D01*
X69486509Y-69449640D01*
X69465428Y-69456036D01*
X69437360Y-69458800D01*
X68973640Y-69458800D01*
X68945572Y-69456036D01*
X68924491Y-69449640D01*
X68905055Y-69439252D01*
X68888024Y-69425276D01*
X68874048Y-69408245D01*
X68863660Y-69388809D01*
X68857264Y-69367728D01*
X68854500Y-69339660D01*
X68854500Y-67525940D01*
X68857264Y-67497872D01*
X68863660Y-67476791D01*
X68874048Y-67457355D01*
X68888024Y-67440324D01*
X68905055Y-67426348D01*
X68924491Y-67415960D01*
X68945572Y-67409564D01*
X68973640Y-67406800D01*
X69437360Y-67406800D01*
X69465428Y-67409564D01*
G37*
G36*
X68195428Y-67409564D02*
G01*
X68216509Y-67415960D01*
X68235945Y-67426348D01*
X68252976Y-67440324D01*
X68266952Y-67457355D01*
X68277340Y-67476791D01*
X68283736Y-67497872D01*
X68286500Y-67525940D01*
X68286500Y-69339660D01*
X68283736Y-69367728D01*
X68277340Y-69388809D01*
X68266952Y-69408245D01*
X68252976Y-69425276D01*
X68235945Y-69439252D01*
X68216509Y-69449640D01*
X68195428Y-69456036D01*
X68167360Y-69458800D01*
X67703640Y-69458800D01*
X67675572Y-69456036D01*
X67654491Y-69449640D01*
X67635055Y-69439252D01*
X67618024Y-69425276D01*
X67604048Y-69408245D01*
X67593660Y-69388809D01*
X67587264Y-69367728D01*
X67584500Y-69339660D01*
X67584500Y-67525940D01*
X67587264Y-67497872D01*
X67593660Y-67476791D01*
X67604048Y-67457355D01*
X67618024Y-67440324D01*
X67635055Y-67426348D01*
X67654491Y-67415960D01*
X67675572Y-67409564D01*
X67703640Y-67406800D01*
X68167360Y-67406800D01*
X68195428Y-67409564D01*
G37*
G36*
X66925428Y-67409564D02*
G01*
X66946509Y-67415960D01*
X66965945Y-67426348D01*
X66982976Y-67440324D01*
X66996952Y-67457355D01*
X67007340Y-67476791D01*
X67013736Y-67497872D01*
X67016500Y-67525940D01*
X67016500Y-69339660D01*
X67013736Y-69367728D01*
X67007340Y-69388809D01*
X66996952Y-69408245D01*
X66982976Y-69425276D01*
X66965945Y-69439252D01*
X66946509Y-69449640D01*
X66925428Y-69456036D01*
X66897360Y-69458800D01*
X66433640Y-69458800D01*
X66405572Y-69456036D01*
X66384491Y-69449640D01*
X66365055Y-69439252D01*
X66348024Y-69425276D01*
X66334048Y-69408245D01*
X66323660Y-69388809D01*
X66317264Y-69367728D01*
X66314500Y-69339660D01*
X66314500Y-67525940D01*
X66317264Y-67497872D01*
X66323660Y-67476791D01*
X66334048Y-67457355D01*
X66348024Y-67440324D01*
X66365055Y-67426348D01*
X66384491Y-67415960D01*
X66405572Y-67409564D01*
X66433640Y-67406800D01*
X66897360Y-67406800D01*
X66925428Y-67409564D01*
G37*
G36*
X70735428Y-67409564D02*
G01*
X70756509Y-67415960D01*
X70775945Y-67426348D01*
X70792976Y-67440324D01*
X70806952Y-67457355D01*
X70817340Y-67476791D01*
X70823736Y-67497872D01*
X70826500Y-67525940D01*
X70826500Y-69339660D01*
X70823736Y-69367728D01*
X70817340Y-69388809D01*
X70806952Y-69408245D01*
X70792976Y-69425276D01*
X70775945Y-69439252D01*
X70756509Y-69449640D01*
X70735428Y-69456036D01*
X70707360Y-69458800D01*
X70243640Y-69458800D01*
X70215572Y-69456036D01*
X70194491Y-69449640D01*
X70175055Y-69439252D01*
X70158024Y-69425276D01*
X70144048Y-69408245D01*
X70133660Y-69388809D01*
X70127264Y-69367728D01*
X70124500Y-69339660D01*
X70124500Y-67525940D01*
X70127264Y-67497872D01*
X70133660Y-67476791D01*
X70144048Y-67457355D01*
X70158024Y-67440324D01*
X70175055Y-67426348D01*
X70194491Y-67415960D01*
X70215572Y-67409564D01*
X70243640Y-67406800D01*
X70707360Y-67406800D01*
X70735428Y-67409564D01*
G37*
G36*
X72815968Y-67751365D02*
G01*
X72854638Y-67763096D01*
X72890277Y-67782146D01*
X72921517Y-67807783D01*
X72947154Y-67839023D01*
X72966204Y-67874662D01*
X72977935Y-67913332D01*
X72982500Y-67959688D01*
X72982500Y-69035912D01*
X72977935Y-69082268D01*
X72966204Y-69120938D01*
X72947154Y-69156577D01*
X72921517Y-69187817D01*
X72890277Y-69213454D01*
X72854638Y-69232504D01*
X72815968Y-69244235D01*
X72769612Y-69248800D01*
X72118388Y-69248800D01*
X72072032Y-69244235D01*
X72033362Y-69232504D01*
X71997723Y-69213454D01*
X71966483Y-69187817D01*
X71940846Y-69156577D01*
X71921796Y-69120938D01*
X71910065Y-69082268D01*
X71905500Y-69035912D01*
X71905500Y-67959688D01*
X71910065Y-67913332D01*
X71921796Y-67874662D01*
X71940846Y-67839023D01*
X71966483Y-67807783D01*
X71997723Y-67782146D01*
X72033362Y-67763096D01*
X72072032Y-67751365D01*
X72118388Y-67746800D01*
X72769612Y-67746800D01*
X72815968Y-67751365D01*
G37*
G36*
X74690968Y-67751365D02*
G01*
X74729638Y-67763096D01*
X74765277Y-67782146D01*
X74796517Y-67807783D01*
X74822154Y-67839023D01*
X74841204Y-67874662D01*
X74852935Y-67913332D01*
X74857500Y-67959688D01*
X74857500Y-69035912D01*
X74852935Y-69082268D01*
X74841204Y-69120938D01*
X74822154Y-69156577D01*
X74796517Y-69187817D01*
X74765277Y-69213454D01*
X74729638Y-69232504D01*
X74690968Y-69244235D01*
X74644612Y-69248800D01*
X73993388Y-69248800D01*
X73947032Y-69244235D01*
X73908362Y-69232504D01*
X73872723Y-69213454D01*
X73841483Y-69187817D01*
X73815846Y-69156577D01*
X73796796Y-69120938D01*
X73785065Y-69082268D01*
X73780500Y-69035912D01*
X73780500Y-67959688D01*
X73785065Y-67913332D01*
X73796796Y-67874662D01*
X73815846Y-67839023D01*
X73841483Y-67807783D01*
X73872723Y-67782146D01*
X73908362Y-67763096D01*
X73947032Y-67751365D01*
X73993388Y-67746800D01*
X74644612Y-67746800D01*
X74690968Y-67751365D01*
G37*
G36*
X59738228Y-67044503D02*
G01*
X59893100Y-67108653D01*
X60032481Y-67201785D01*
X60151015Y-67320319D01*
X60244147Y-67459700D01*
X60308297Y-67614572D01*
X60341000Y-67778984D01*
X60341000Y-67946616D01*
X60308297Y-68111028D01*
X60244147Y-68265900D01*
X60151015Y-68405281D01*
X60032481Y-68523815D01*
X59893100Y-68616947D01*
X59738228Y-68681097D01*
X59573816Y-68713800D01*
X59406184Y-68713800D01*
X59241772Y-68681097D01*
X59086900Y-68616947D01*
X58947519Y-68523815D01*
X58828985Y-68405281D01*
X58735853Y-68265900D01*
X58671703Y-68111028D01*
X58639000Y-67946616D01*
X58639000Y-67778984D01*
X58671703Y-67614572D01*
X58735853Y-67459700D01*
X58828985Y-67320319D01*
X58947519Y-67201785D01*
X59086900Y-67108653D01*
X59241772Y-67044503D01*
X59406184Y-67011800D01*
X59573816Y-67011800D01*
X59738228Y-67044503D01*
G37*
G36*
X62881000Y-68713800D02*
G01*
X61179000Y-68713800D01*
X61179000Y-67011800D01*
X62881000Y-67011800D01*
X62881000Y-68713800D01*
G37*
G36*
X21799000Y-66791800D02*
G01*
X17197000Y-66791800D01*
X17197000Y-64189800D01*
X21799000Y-64189800D01*
X21799000Y-66791800D01*
G37*
G36*
X60926468Y-64766865D02*
G01*
X60965138Y-64778596D01*
X61000777Y-64797646D01*
X61032017Y-64823283D01*
X61057654Y-64854523D01*
X61076704Y-64890162D01*
X61088435Y-64928832D01*
X61093000Y-64975188D01*
X61093000Y-66051412D01*
X61088435Y-66097768D01*
X61076704Y-66136438D01*
X61057654Y-66172077D01*
X61032017Y-66203317D01*
X61000777Y-66228954D01*
X60965138Y-66248004D01*
X60926468Y-66259735D01*
X60880112Y-66264300D01*
X60228888Y-66264300D01*
X60182532Y-66259735D01*
X60143862Y-66248004D01*
X60108223Y-66228954D01*
X60076983Y-66203317D01*
X60051346Y-66172077D01*
X60032296Y-66136438D01*
X60020565Y-66097768D01*
X60016000Y-66051412D01*
X60016000Y-64975188D01*
X60020565Y-64928832D01*
X60032296Y-64890162D01*
X60051346Y-64854523D01*
X60076983Y-64823283D01*
X60108223Y-64797646D01*
X60143862Y-64778596D01*
X60182532Y-64766865D01*
X60228888Y-64762300D01*
X60880112Y-64762300D01*
X60926468Y-64766865D01*
G37*
G36*
X59051468Y-64766865D02*
G01*
X59090138Y-64778596D01*
X59125777Y-64797646D01*
X59157017Y-64823283D01*
X59182654Y-64854523D01*
X59201704Y-64890162D01*
X59213435Y-64928832D01*
X59218000Y-64975188D01*
X59218000Y-66051412D01*
X59213435Y-66097768D01*
X59201704Y-66136438D01*
X59182654Y-66172077D01*
X59157017Y-66203317D01*
X59125777Y-66228954D01*
X59090138Y-66248004D01*
X59051468Y-66259735D01*
X59005112Y-66264300D01*
X58353888Y-66264300D01*
X58307532Y-66259735D01*
X58268862Y-66248004D01*
X58233223Y-66228954D01*
X58201983Y-66203317D01*
X58176346Y-66172077D01*
X58157296Y-66136438D01*
X58145565Y-66097768D01*
X58141000Y-66051412D01*
X58141000Y-64975188D01*
X58145565Y-64928832D01*
X58157296Y-64890162D01*
X58176346Y-64854523D01*
X58201983Y-64823283D01*
X58233223Y-64797646D01*
X58268862Y-64778596D01*
X58307532Y-64766865D01*
X58353888Y-64762300D01*
X59005112Y-64762300D01*
X59051468Y-64766865D01*
G37*
G36*
X72718968Y-64703365D02*
G01*
X72757638Y-64715096D01*
X72793277Y-64734146D01*
X72824517Y-64759783D01*
X72850154Y-64791023D01*
X72869204Y-64826662D01*
X72880935Y-64865332D01*
X72885500Y-64911688D01*
X72885500Y-65987912D01*
X72880935Y-66034268D01*
X72869204Y-66072938D01*
X72850154Y-66108577D01*
X72824517Y-66139817D01*
X72793277Y-66165454D01*
X72757638Y-66184504D01*
X72718968Y-66196235D01*
X72672612Y-66200800D01*
X72021388Y-66200800D01*
X71975032Y-66196235D01*
X71936362Y-66184504D01*
X71900723Y-66165454D01*
X71869483Y-66139817D01*
X71843846Y-66108577D01*
X71824796Y-66072938D01*
X71813065Y-66034268D01*
X71808500Y-65987912D01*
X71808500Y-64911688D01*
X71813065Y-64865332D01*
X71824796Y-64826662D01*
X71843846Y-64791023D01*
X71869483Y-64759783D01*
X71900723Y-64734146D01*
X71936362Y-64715096D01*
X71975032Y-64703365D01*
X72021388Y-64698800D01*
X72672612Y-64698800D01*
X72718968Y-64703365D01*
G37*
G36*
X74593968Y-64703365D02*
G01*
X74632638Y-64715096D01*
X74668277Y-64734146D01*
X74699517Y-64759783D01*
X74725154Y-64791023D01*
X74744204Y-64826662D01*
X74755935Y-64865332D01*
X74760500Y-64911688D01*
X74760500Y-65987912D01*
X74755935Y-66034268D01*
X74744204Y-66072938D01*
X74725154Y-66108577D01*
X74699517Y-66139817D01*
X74668277Y-66165454D01*
X74632638Y-66184504D01*
X74593968Y-66196235D01*
X74547612Y-66200800D01*
X73896388Y-66200800D01*
X73850032Y-66196235D01*
X73811362Y-66184504D01*
X73775723Y-66165454D01*
X73744483Y-66139817D01*
X73718846Y-66108577D01*
X73699796Y-66072938D01*
X73688065Y-66034268D01*
X73683500Y-65987912D01*
X73683500Y-64911688D01*
X73688065Y-64865332D01*
X73699796Y-64826662D01*
X73718846Y-64791023D01*
X73744483Y-64759783D01*
X73775723Y-64734146D01*
X73811362Y-64715096D01*
X73850032Y-64703365D01*
X73896388Y-64698800D01*
X74547612Y-64698800D01*
X74593968Y-64703365D01*
G37*
G36*
X79406000Y-65707800D02*
G01*
X78404000Y-65707800D01*
X78404000Y-64805800D01*
X79406000Y-64805800D01*
X79406000Y-65707800D01*
G37*
G36*
X77406000Y-64757800D02*
G01*
X76404000Y-64757800D01*
X76404000Y-63855800D01*
X77406000Y-63855800D01*
X77406000Y-64757800D01*
G37*
G36*
X70735428Y-62459564D02*
G01*
X70756509Y-62465960D01*
X70775945Y-62476348D01*
X70792976Y-62490324D01*
X70806952Y-62507355D01*
X70817340Y-62526791D01*
X70823736Y-62547872D01*
X70826500Y-62575940D01*
X70826500Y-64389660D01*
X70823736Y-64417728D01*
X70817340Y-64438809D01*
X70806952Y-64458245D01*
X70792976Y-64475276D01*
X70775945Y-64489252D01*
X70756509Y-64499640D01*
X70735428Y-64506036D01*
X70707360Y-64508800D01*
X70243640Y-64508800D01*
X70215572Y-64506036D01*
X70194491Y-64499640D01*
X70175055Y-64489252D01*
X70158024Y-64475276D01*
X70144048Y-64458245D01*
X70133660Y-64438809D01*
X70127264Y-64417728D01*
X70124500Y-64389660D01*
X70124500Y-62575940D01*
X70127264Y-62547872D01*
X70133660Y-62526791D01*
X70144048Y-62507355D01*
X70158024Y-62490324D01*
X70175055Y-62476348D01*
X70194491Y-62465960D01*
X70215572Y-62459564D01*
X70243640Y-62456800D01*
X70707360Y-62456800D01*
X70735428Y-62459564D01*
G37*
G36*
X69465428Y-62459564D02*
G01*
X69486509Y-62465960D01*
X69505945Y-62476348D01*
X69522976Y-62490324D01*
X69536952Y-62507355D01*
X69547340Y-62526791D01*
X69553736Y-62547872D01*
X69556500Y-62575940D01*
X69556500Y-64389660D01*
X69553736Y-64417728D01*
X69547340Y-64438809D01*
X69536952Y-64458245D01*
X69522976Y-64475276D01*
X69505945Y-64489252D01*
X69486509Y-64499640D01*
X69465428Y-64506036D01*
X69437360Y-64508800D01*
X68973640Y-64508800D01*
X68945572Y-64506036D01*
X68924491Y-64499640D01*
X68905055Y-64489252D01*
X68888024Y-64475276D01*
X68874048Y-64458245D01*
X68863660Y-64438809D01*
X68857264Y-64417728D01*
X68854500Y-64389660D01*
X68854500Y-62575940D01*
X68857264Y-62547872D01*
X68863660Y-62526791D01*
X68874048Y-62507355D01*
X68888024Y-62490324D01*
X68905055Y-62476348D01*
X68924491Y-62465960D01*
X68945572Y-62459564D01*
X68973640Y-62456800D01*
X69437360Y-62456800D01*
X69465428Y-62459564D01*
G37*
G36*
X68195428Y-62459564D02*
G01*
X68216509Y-62465960D01*
X68235945Y-62476348D01*
X68252976Y-62490324D01*
X68266952Y-62507355D01*
X68277340Y-62526791D01*
X68283736Y-62547872D01*
X68286500Y-62575940D01*
X68286500Y-64389660D01*
X68283736Y-64417728D01*
X68277340Y-64438809D01*
X68266952Y-64458245D01*
X68252976Y-64475276D01*
X68235945Y-64489252D01*
X68216509Y-64499640D01*
X68195428Y-64506036D01*
X68167360Y-64508800D01*
X67703640Y-64508800D01*
X67675572Y-64506036D01*
X67654491Y-64499640D01*
X67635055Y-64489252D01*
X67618024Y-64475276D01*
X67604048Y-64458245D01*
X67593660Y-64438809D01*
X67587264Y-64417728D01*
X67584500Y-64389660D01*
X67584500Y-62575940D01*
X67587264Y-62547872D01*
X67593660Y-62526791D01*
X67604048Y-62507355D01*
X67618024Y-62490324D01*
X67635055Y-62476348D01*
X67654491Y-62465960D01*
X67675572Y-62459564D01*
X67703640Y-62456800D01*
X68167360Y-62456800D01*
X68195428Y-62459564D01*
G37*
G36*
X66925428Y-62459564D02*
G01*
X66946509Y-62465960D01*
X66965945Y-62476348D01*
X66982976Y-62490324D01*
X66996952Y-62507355D01*
X67007340Y-62526791D01*
X67013736Y-62547872D01*
X67016500Y-62575940D01*
X67016500Y-64389660D01*
X67013736Y-64417728D01*
X67007340Y-64438809D01*
X66996952Y-64458245D01*
X66982976Y-64475276D01*
X66965945Y-64489252D01*
X66946509Y-64499640D01*
X66925428Y-64506036D01*
X66897360Y-64508800D01*
X66433640Y-64508800D01*
X66405572Y-64506036D01*
X66384491Y-64499640D01*
X66365055Y-64489252D01*
X66348024Y-64475276D01*
X66334048Y-64458245D01*
X66323660Y-64438809D01*
X66317264Y-64417728D01*
X66314500Y-64389660D01*
X66314500Y-62575940D01*
X66317264Y-62547872D01*
X66323660Y-62526791D01*
X66334048Y-62507355D01*
X66348024Y-62490324D01*
X66365055Y-62476348D01*
X66384491Y-62465960D01*
X66405572Y-62459564D01*
X66433640Y-62456800D01*
X66897360Y-62456800D01*
X66925428Y-62459564D01*
G37*
G36*
X62928228Y-62692503D02*
G01*
X63083100Y-62756653D01*
X63222481Y-62849785D01*
X63341015Y-62968319D01*
X63434147Y-63107700D01*
X63498297Y-63262572D01*
X63531000Y-63426984D01*
X63531000Y-63594616D01*
X63498297Y-63759028D01*
X63434147Y-63913900D01*
X63341015Y-64053281D01*
X63222481Y-64171815D01*
X63083100Y-64264947D01*
X62928228Y-64329097D01*
X62763816Y-64361800D01*
X62596184Y-64361800D01*
X62431772Y-64329097D01*
X62276900Y-64264947D01*
X62137519Y-64171815D01*
X62018985Y-64053281D01*
X61925853Y-63913900D01*
X61861703Y-63759028D01*
X61829000Y-63594616D01*
X61829000Y-63426984D01*
X61861703Y-63262572D01*
X61925853Y-63107700D01*
X62018985Y-62968319D01*
X62137519Y-62849785D01*
X62276900Y-62756653D01*
X62431772Y-62692503D01*
X62596184Y-62659800D01*
X62763816Y-62659800D01*
X62928228Y-62692503D01*
G37*
G36*
X74515468Y-62544365D02*
G01*
X74554138Y-62556096D01*
X74589777Y-62575146D01*
X74621017Y-62600783D01*
X74646654Y-62632023D01*
X74665704Y-62667662D01*
X74677435Y-62706332D01*
X74682000Y-62752688D01*
X74682000Y-63828912D01*
X74677435Y-63875268D01*
X74665704Y-63913938D01*
X74646654Y-63949577D01*
X74621017Y-63980817D01*
X74589777Y-64006454D01*
X74554138Y-64025504D01*
X74515468Y-64037235D01*
X74469112Y-64041800D01*
X73817888Y-64041800D01*
X73771532Y-64037235D01*
X73732862Y-64025504D01*
X73697223Y-64006454D01*
X73665983Y-63980817D01*
X73640346Y-63949577D01*
X73621296Y-63913938D01*
X73609565Y-63875268D01*
X73605000Y-63828912D01*
X73605000Y-62752688D01*
X73609565Y-62706332D01*
X73621296Y-62667662D01*
X73640346Y-62632023D01*
X73665983Y-62600783D01*
X73697223Y-62575146D01*
X73732862Y-62556096D01*
X73771532Y-62544365D01*
X73817888Y-62539800D01*
X74469112Y-62539800D01*
X74515468Y-62544365D01*
G37*
G36*
X72640468Y-62544365D02*
G01*
X72679138Y-62556096D01*
X72714777Y-62575146D01*
X72746017Y-62600783D01*
X72771654Y-62632023D01*
X72790704Y-62667662D01*
X72802435Y-62706332D01*
X72807000Y-62752688D01*
X72807000Y-63828912D01*
X72802435Y-63875268D01*
X72790704Y-63913938D01*
X72771654Y-63949577D01*
X72746017Y-63980817D01*
X72714777Y-64006454D01*
X72679138Y-64025504D01*
X72640468Y-64037235D01*
X72594112Y-64041800D01*
X71942888Y-64041800D01*
X71896532Y-64037235D01*
X71857862Y-64025504D01*
X71822223Y-64006454D01*
X71790983Y-63980817D01*
X71765346Y-63949577D01*
X71746296Y-63913938D01*
X71734565Y-63875268D01*
X71730000Y-63828912D01*
X71730000Y-62752688D01*
X71734565Y-62706332D01*
X71746296Y-62667662D01*
X71765346Y-62632023D01*
X71790983Y-62600783D01*
X71822223Y-62575146D01*
X71857862Y-62556096D01*
X71896532Y-62544365D01*
X71942888Y-62539800D01*
X72594112Y-62539800D01*
X72640468Y-62544365D01*
G37*
G36*
X79406000Y-63807800D02*
G01*
X78404000Y-63807800D01*
X78404000Y-62905800D01*
X79406000Y-62905800D01*
X79406000Y-63807800D01*
G37*
G36*
X44799112Y-58225366D02*
G01*
X44977917Y-58260933D01*
X45117448Y-58318729D01*
X45314776Y-58400464D01*
X45617943Y-58603034D01*
X45875766Y-58860857D01*
X46078336Y-59164024D01*
X46106882Y-59232941D01*
X46217867Y-59500883D01*
X46221464Y-59518966D01*
X46289000Y-59858491D01*
X46289000Y-60223109D01*
X46217867Y-60580716D01*
X46078336Y-60917576D01*
X45875766Y-61220743D01*
X45617943Y-61478566D01*
X45314776Y-61681136D01*
X45117448Y-61762871D01*
X44977917Y-61820667D01*
X44799112Y-61856234D01*
X44620309Y-61891800D01*
X44255691Y-61891800D01*
X44076888Y-61856234D01*
X43898083Y-61820667D01*
X43758552Y-61762871D01*
X43561224Y-61681136D01*
X43258057Y-61478566D01*
X43000234Y-61220743D01*
X42797664Y-60917576D01*
X42658133Y-60580716D01*
X42587000Y-60223109D01*
X42587000Y-59858491D01*
X42654536Y-59518966D01*
X42658133Y-59500883D01*
X42769118Y-59232941D01*
X42797664Y-59164024D01*
X43000234Y-58860857D01*
X43258057Y-58603034D01*
X43561224Y-58400464D01*
X43758552Y-58318729D01*
X43898083Y-58260933D01*
X44076888Y-58225366D01*
X44255691Y-58189800D01*
X44620309Y-58189800D01*
X44799112Y-58225366D01*
G37*
G36*
X25737472Y-58749212D02*
G01*
X25833040Y-58758625D01*
X26078280Y-58833018D01*
X26304294Y-58953825D01*
X26355899Y-58996176D01*
X26502397Y-59116403D01*
X26598036Y-59232941D01*
X26664975Y-59314506D01*
X26785782Y-59540520D01*
X26860175Y-59785760D01*
X26885294Y-60040800D01*
X26860175Y-60295840D01*
X26785782Y-60541080D01*
X26664975Y-60767094D01*
X26622624Y-60818699D01*
X26502397Y-60965197D01*
X26355899Y-61085424D01*
X26304294Y-61127775D01*
X26078280Y-61248582D01*
X25833040Y-61322975D01*
X25737473Y-61332387D01*
X25641906Y-61341800D01*
X23514094Y-61341800D01*
X23418527Y-61332387D01*
X23322960Y-61322975D01*
X23077720Y-61248582D01*
X22851706Y-61127775D01*
X22800101Y-61085424D01*
X22653603Y-60965197D01*
X22533376Y-60818699D01*
X22491025Y-60767094D01*
X22370218Y-60541080D01*
X22295825Y-60295840D01*
X22270706Y-60040800D01*
X22295825Y-59785760D01*
X22370218Y-59540520D01*
X22491025Y-59314506D01*
X22557964Y-59232941D01*
X22653603Y-59116403D01*
X22800101Y-58996176D01*
X22851706Y-58953825D01*
X23077720Y-58833018D01*
X23322960Y-58758625D01*
X23418528Y-58749212D01*
X23514094Y-58739800D01*
X25641906Y-58739800D01*
X25737472Y-58749212D01*
G37*
G36*
X20657473Y-53299213D02*
G01*
X20753040Y-53308625D01*
X20998280Y-53383018D01*
X21224294Y-53503825D01*
X21275899Y-53546176D01*
X21422397Y-53666403D01*
X21542624Y-53812901D01*
X21584975Y-53864506D01*
X21705782Y-54090520D01*
X21780175Y-54335760D01*
X21805294Y-54590800D01*
X21780175Y-54845840D01*
X21705782Y-55091080D01*
X21584975Y-55317094D01*
X21542624Y-55368699D01*
X21422397Y-55515197D01*
X21275899Y-55635424D01*
X21224294Y-55677775D01*
X20998280Y-55798582D01*
X20753040Y-55872975D01*
X20657472Y-55882388D01*
X20561906Y-55891800D01*
X18434094Y-55891800D01*
X18338528Y-55882388D01*
X18242960Y-55872975D01*
X17997720Y-55798582D01*
X17771706Y-55677775D01*
X17720101Y-55635424D01*
X17573603Y-55515197D01*
X17453376Y-55368699D01*
X17411025Y-55317094D01*
X17290218Y-55091080D01*
X17215825Y-54845840D01*
X17190706Y-54590800D01*
X17215825Y-54335760D01*
X17290218Y-54090520D01*
X17411025Y-53864506D01*
X17453376Y-53812901D01*
X17573603Y-53666403D01*
X17720101Y-53546176D01*
X17771706Y-53503825D01*
X17997720Y-53383018D01*
X18242960Y-53308625D01*
X18338527Y-53299213D01*
X18434094Y-53289800D01*
X20561906Y-53289800D01*
X20657473Y-53299213D01*
G37*
G36*
X62739239Y-47761601D02*
G01*
X62975053Y-47833134D01*
X63192381Y-47949299D01*
X63382871Y-48105629D01*
X63539201Y-48296119D01*
X63655366Y-48513447D01*
X63726899Y-48749262D01*
X63745000Y-48933044D01*
X63745000Y-49655957D01*
X63726899Y-49839739D01*
X63655366Y-50075553D01*
X63539201Y-50292881D01*
X63382871Y-50483371D01*
X63192380Y-50639701D01*
X62975052Y-50755866D01*
X62739238Y-50827399D01*
X62494000Y-50851553D01*
X62248761Y-50827399D01*
X62012947Y-50755866D01*
X61795619Y-50639701D01*
X61605129Y-50483371D01*
X61448799Y-50292880D01*
X61332634Y-50075552D01*
X61261101Y-49839738D01*
X61243000Y-49655956D01*
X61243000Y-48933043D01*
X61261101Y-48749261D01*
X61332634Y-48513447D01*
X61448800Y-48296119D01*
X61605130Y-48105629D01*
X61795620Y-47949299D01*
X62012948Y-47833134D01*
X62248762Y-47761601D01*
X62494000Y-47737447D01*
X62739239Y-47761601D01*
G37*
G36*
X49171403Y-48291575D02*
G01*
X49390139Y-48382178D01*
X49399071Y-48385878D01*
X49603966Y-48522785D01*
X49778215Y-48697034D01*
X49912651Y-48898231D01*
X49915123Y-48901931D01*
X50009425Y-49129597D01*
X50057500Y-49371286D01*
X50057500Y-49617714D01*
X50009425Y-49859403D01*
X49916656Y-50083369D01*
X49915122Y-50087071D01*
X49778215Y-50291966D01*
X49603966Y-50466215D01*
X49399071Y-50603122D01*
X49399070Y-50603123D01*
X49399069Y-50603123D01*
X49171403Y-50697425D01*
X48929714Y-50745500D01*
X48683286Y-50745500D01*
X48441597Y-50697425D01*
X48213931Y-50603123D01*
X48213930Y-50603123D01*
X48213929Y-50603122D01*
X48009034Y-50466215D01*
X47834785Y-50291966D01*
X47697878Y-50087071D01*
X47696345Y-50083369D01*
X47603575Y-49859403D01*
X47555500Y-49617714D01*
X47555500Y-49371286D01*
X47603575Y-49129597D01*
X47697877Y-48901931D01*
X47700349Y-48898231D01*
X47834785Y-48697034D01*
X48009034Y-48522785D01*
X48213929Y-48385878D01*
X48222862Y-48382178D01*
X48441597Y-48291575D01*
X48683286Y-48243500D01*
X48929714Y-48243500D01*
X49171403Y-48291575D01*
G37*
G36*
X90233903Y-48287875D02*
G01*
X90461571Y-48382178D01*
X90666466Y-48519085D01*
X90840715Y-48693334D01*
X90878086Y-48749264D01*
X90977623Y-48898231D01*
X91071925Y-49125897D01*
X91120000Y-49367586D01*
X91120000Y-49614014D01*
X91071925Y-49855703D01*
X90980860Y-50075555D01*
X90977622Y-50083371D01*
X90840715Y-50288266D01*
X90666466Y-50462515D01*
X90461571Y-50599422D01*
X90461570Y-50599423D01*
X90461569Y-50599423D01*
X90233903Y-50693725D01*
X89992214Y-50741800D01*
X89745786Y-50741800D01*
X89504097Y-50693725D01*
X89276431Y-50599423D01*
X89276430Y-50599423D01*
X89276429Y-50599422D01*
X89071534Y-50462515D01*
X88897285Y-50288266D01*
X88760378Y-50083371D01*
X88757141Y-50075555D01*
X88666075Y-49855703D01*
X88618000Y-49614014D01*
X88618000Y-49367586D01*
X88666075Y-49125897D01*
X88760377Y-48898231D01*
X88859914Y-48749264D01*
X88897285Y-48693334D01*
X89071534Y-48519085D01*
X89276429Y-48382178D01*
X89504097Y-48287875D01*
X89745786Y-48239800D01*
X89992214Y-48239800D01*
X90233903Y-48287875D01*
G37*
G36*
X76546403Y-48287875D02*
G01*
X76774071Y-48382178D01*
X76978966Y-48519085D01*
X77153215Y-48693334D01*
X77190586Y-48749264D01*
X77290123Y-48898231D01*
X77384425Y-49125897D01*
X77432500Y-49367586D01*
X77432500Y-49614014D01*
X77384425Y-49855703D01*
X77293360Y-50075555D01*
X77290122Y-50083371D01*
X77153215Y-50288266D01*
X76978966Y-50462515D01*
X76774071Y-50599422D01*
X76774070Y-50599423D01*
X76774069Y-50599423D01*
X76546403Y-50693725D01*
X76304714Y-50741800D01*
X76058286Y-50741800D01*
X75816597Y-50693725D01*
X75588931Y-50599423D01*
X75588930Y-50599423D01*
X75588929Y-50599422D01*
X75384034Y-50462515D01*
X75209785Y-50288266D01*
X75072878Y-50083371D01*
X75069641Y-50075555D01*
X74978575Y-49855703D01*
X74930500Y-49614014D01*
X74930500Y-49367586D01*
X74978575Y-49125897D01*
X75072877Y-48898231D01*
X75172414Y-48749264D01*
X75209785Y-48693334D01*
X75384034Y-48519085D01*
X75588929Y-48382178D01*
X75816597Y-48287875D01*
X76058286Y-48239800D01*
X76304714Y-48239800D01*
X76546403Y-48287875D01*
G37*
G36*
X35483903Y-48287875D02*
G01*
X35711571Y-48382178D01*
X35916466Y-48519085D01*
X36090715Y-48693334D01*
X36128086Y-48749264D01*
X36227623Y-48898231D01*
X36321925Y-49125897D01*
X36370000Y-49367586D01*
X36370000Y-49614014D01*
X36321925Y-49855703D01*
X36230860Y-50075555D01*
X36227622Y-50083371D01*
X36090715Y-50288266D01*
X35916466Y-50462515D01*
X35711571Y-50599422D01*
X35711570Y-50599423D01*
X35711569Y-50599423D01*
X35483903Y-50693725D01*
X35242214Y-50741800D01*
X34995786Y-50741800D01*
X34754097Y-50693725D01*
X34526431Y-50599423D01*
X34526430Y-50599423D01*
X34526429Y-50599422D01*
X34321534Y-50462515D01*
X34147285Y-50288266D01*
X34010378Y-50083371D01*
X34007141Y-50075555D01*
X33916075Y-49855703D01*
X33868000Y-49614014D01*
X33868000Y-49367586D01*
X33916075Y-49125897D01*
X34010377Y-48898231D01*
X34109914Y-48749264D01*
X34147285Y-48693334D01*
X34321534Y-48519085D01*
X34526429Y-48382178D01*
X34754097Y-48287875D01*
X34995786Y-48239800D01*
X35242214Y-48239800D01*
X35483903Y-48287875D01*
G37*
G36*
X23551000Y-50541800D02*
G01*
X15449000Y-50541800D01*
X15449000Y-42439800D01*
X23551000Y-42439800D01*
X23551000Y-50541800D01*
G37*
G36*
X110436228Y-45236503D02*
G01*
X110591100Y-45300653D01*
X110730481Y-45393785D01*
X110849015Y-45512319D01*
X110942147Y-45651700D01*
X111006297Y-45806572D01*
X111039000Y-45970984D01*
X111039000Y-46138616D01*
X111006297Y-46303028D01*
X110942147Y-46457900D01*
X110849015Y-46597281D01*
X110730481Y-46715815D01*
X110591100Y-46808947D01*
X110436228Y-46873097D01*
X110271816Y-46905800D01*
X110104184Y-46905800D01*
X109939772Y-46873097D01*
X109784900Y-46808947D01*
X109645519Y-46715815D01*
X109526985Y-46597281D01*
X109433853Y-46457900D01*
X109369703Y-46303028D01*
X109337000Y-46138616D01*
X109337000Y-45970984D01*
X109369703Y-45806572D01*
X109433853Y-45651700D01*
X109526985Y-45512319D01*
X109645519Y-45393785D01*
X109784900Y-45300653D01*
X109939772Y-45236503D01*
X110104184Y-45203800D01*
X110271816Y-45203800D01*
X110436228Y-45236503D01*
G37*
G36*
X23551000Y-34541800D02*
G01*
X15449000Y-34541800D01*
X15449000Y-26439800D01*
X23551000Y-26439800D01*
X23551000Y-34541800D01*
G37*
G36*
X110436228Y-29996503D02*
G01*
X110591100Y-30060653D01*
X110730481Y-30153785D01*
X110849015Y-30272319D01*
X110942147Y-30411700D01*
X111006297Y-30566572D01*
X111039000Y-30730984D01*
X111039000Y-30898616D01*
X111006297Y-31063028D01*
X110942147Y-31217900D01*
X110849015Y-31357281D01*
X110730481Y-31475815D01*
X110591100Y-31568947D01*
X110436228Y-31633097D01*
X110271816Y-31665800D01*
X110104184Y-31665800D01*
X109939772Y-31633097D01*
X109784900Y-31568947D01*
X109645519Y-31475815D01*
X109526985Y-31357281D01*
X109433853Y-31217900D01*
X109369703Y-31063028D01*
X109337000Y-30898616D01*
X109337000Y-30730984D01*
X109369703Y-30566572D01*
X109433853Y-30411700D01*
X109526985Y-30272319D01*
X109645519Y-30153785D01*
X109784900Y-30060653D01*
X109939772Y-29996503D01*
X110104184Y-29963800D01*
X110271816Y-29963800D01*
X110436228Y-29996503D01*
G37*
G36*
X35364239Y-18957901D02*
G01*
X35600053Y-19029434D01*
X35817381Y-19145599D01*
X36007871Y-19301929D01*
X36164201Y-19492419D01*
X36280366Y-19709747D01*
X36351899Y-19945561D01*
X36370000Y-20129343D01*
X36370000Y-22852257D01*
X36351899Y-23036039D01*
X36280366Y-23271853D01*
X36164201Y-23489181D01*
X36007871Y-23679671D01*
X35817380Y-23836001D01*
X35600052Y-23952166D01*
X35364238Y-24023699D01*
X35119000Y-24047853D01*
X34873761Y-24023699D01*
X34637947Y-23952166D01*
X34420619Y-23836001D01*
X34230129Y-23679671D01*
X34073799Y-23489180D01*
X33957634Y-23271852D01*
X33886101Y-23036038D01*
X33868000Y-22852256D01*
X33868001Y-20129343D01*
X33886102Y-19945561D01*
X33957635Y-19709747D01*
X34073800Y-19492419D01*
X34230130Y-19301929D01*
X34420620Y-19145599D01*
X34637948Y-19029434D01*
X34873762Y-18957901D01*
X35119000Y-18933747D01*
X35364239Y-18957901D01*
G37*
G36*
X90114239Y-19057901D02*
G01*
X90350053Y-19129434D01*
X90567381Y-19245599D01*
X90757871Y-19401929D01*
X90914201Y-19592419D01*
X91030366Y-19809747D01*
X91101899Y-20045561D01*
X91120000Y-20229343D01*
X91120000Y-22752257D01*
X91101899Y-22936039D01*
X91030366Y-23171853D01*
X90914201Y-23389181D01*
X90757871Y-23579671D01*
X90567380Y-23736001D01*
X90350052Y-23852166D01*
X90114238Y-23923699D01*
X89869000Y-23947853D01*
X89623761Y-23923699D01*
X89387947Y-23852166D01*
X89170619Y-23736001D01*
X88980129Y-23579671D01*
X88823799Y-23389180D01*
X88707634Y-23171852D01*
X88636101Y-22936038D01*
X88618000Y-22752256D01*
X88618001Y-20229343D01*
X88636102Y-20045561D01*
X88707635Y-19809747D01*
X88823800Y-19592419D01*
X88980130Y-19401929D01*
X89170620Y-19245599D01*
X89387948Y-19129434D01*
X89623762Y-19057901D01*
X89869000Y-19033747D01*
X90114239Y-19057901D01*
G37*
G36*
X62858903Y-20791575D02*
G01*
X63077639Y-20882178D01*
X63086571Y-20885878D01*
X63291466Y-21022785D01*
X63465715Y-21197034D01*
X63600151Y-21398231D01*
X63602623Y-21401931D01*
X63696925Y-21629597D01*
X63745000Y-21871286D01*
X63745000Y-22117714D01*
X63696925Y-22359403D01*
X63604156Y-22583369D01*
X63602622Y-22587071D01*
X63465715Y-22791966D01*
X63291466Y-22966215D01*
X63086571Y-23103122D01*
X63086570Y-23103123D01*
X63086569Y-23103123D01*
X62858903Y-23197425D01*
X62617214Y-23245500D01*
X62370786Y-23245500D01*
X62129097Y-23197425D01*
X61901431Y-23103123D01*
X61901430Y-23103123D01*
X61901429Y-23103122D01*
X61696534Y-22966215D01*
X61522285Y-22791966D01*
X61385378Y-22587071D01*
X61383845Y-22583369D01*
X61291075Y-22359403D01*
X61243000Y-22117714D01*
X61243000Y-21871286D01*
X61291075Y-21629597D01*
X61385377Y-21401931D01*
X61387849Y-21398231D01*
X61522285Y-21197034D01*
X61696534Y-21022785D01*
X61901429Y-20885878D01*
X61910362Y-20882178D01*
X62129097Y-20791575D01*
X62370786Y-20743500D01*
X62617214Y-20743500D01*
X62858903Y-20791575D01*
G37*
G36*
X49171403Y-20791575D02*
G01*
X49390139Y-20882178D01*
X49399071Y-20885878D01*
X49603966Y-21022785D01*
X49778215Y-21197034D01*
X49912651Y-21398231D01*
X49915123Y-21401931D01*
X50009425Y-21629597D01*
X50057500Y-21871286D01*
X50057500Y-22117714D01*
X50009425Y-22359403D01*
X49916656Y-22583369D01*
X49915122Y-22587071D01*
X49778215Y-22791966D01*
X49603966Y-22966215D01*
X49399071Y-23103122D01*
X49399070Y-23103123D01*
X49399069Y-23103123D01*
X49171403Y-23197425D01*
X48929714Y-23245500D01*
X48683286Y-23245500D01*
X48441597Y-23197425D01*
X48213931Y-23103123D01*
X48213930Y-23103123D01*
X48213929Y-23103122D01*
X48009034Y-22966215D01*
X47834785Y-22791966D01*
X47697878Y-22587071D01*
X47696345Y-22583369D01*
X47603575Y-22359403D01*
X47555500Y-22117714D01*
X47555500Y-21871286D01*
X47603575Y-21629597D01*
X47697877Y-21401931D01*
X47700349Y-21398231D01*
X47834785Y-21197034D01*
X48009034Y-21022785D01*
X48213929Y-20885878D01*
X48222862Y-20882178D01*
X48441597Y-20791575D01*
X48683286Y-20743500D01*
X48929714Y-20743500D01*
X49171403Y-20791575D01*
G37*
G36*
X76546403Y-20787875D02*
G01*
X76734150Y-20865642D01*
X76774071Y-20882178D01*
X76978966Y-21019085D01*
X77153215Y-21193334D01*
X77165687Y-21212000D01*
X77290123Y-21398231D01*
X77384425Y-21625897D01*
X77432500Y-21867587D01*
X77432500Y-22114013D01*
X77384425Y-22355703D01*
X77290122Y-22583371D01*
X77153215Y-22788266D01*
X76978966Y-22962515D01*
X76774071Y-23099422D01*
X76774070Y-23099423D01*
X76774069Y-23099423D01*
X76546403Y-23193725D01*
X76304714Y-23241800D01*
X76058286Y-23241800D01*
X75816597Y-23193725D01*
X75588931Y-23099423D01*
X75588930Y-23099423D01*
X75588929Y-23099422D01*
X75384034Y-22962515D01*
X75209785Y-22788266D01*
X75072878Y-22583371D01*
X74978575Y-22355703D01*
X74930500Y-22114013D01*
X74930500Y-21867587D01*
X74978575Y-21625897D01*
X75072877Y-21398231D01*
X75197313Y-21212000D01*
X75209785Y-21193334D01*
X75384034Y-21019085D01*
X75588929Y-20882178D01*
X75628851Y-20865642D01*
X75816597Y-20787875D01*
X76058286Y-20739800D01*
X76304714Y-20739800D01*
X76546403Y-20787875D01*
G37*
G36*
X18016156Y-13158794D02*
G01*
X18737140Y-13302206D01*
X19528972Y-13630193D01*
X20241601Y-14106357D01*
X20847643Y-14712399D01*
X21323807Y-15425028D01*
X21651794Y-16216860D01*
X21819000Y-17057464D01*
X21819000Y-17914536D01*
X21651794Y-18755140D01*
X21323807Y-19546972D01*
X20847643Y-20259601D01*
X20241601Y-20865643D01*
X19528972Y-21341807D01*
X18737140Y-21669794D01*
X18016156Y-21813206D01*
X17896537Y-21837000D01*
X17039463Y-21837000D01*
X16919844Y-21813206D01*
X16198860Y-21669794D01*
X15407028Y-21341807D01*
X14694399Y-20865643D01*
X14088357Y-20259601D01*
X13612193Y-19546972D01*
X13284206Y-18755140D01*
X13117000Y-17914536D01*
X13117000Y-17057464D01*
X13284206Y-16216860D01*
X13612193Y-15425028D01*
X14088357Y-14712399D01*
X14694399Y-14106357D01*
X15407028Y-13630193D01*
X16198860Y-13302206D01*
X16919844Y-13158794D01*
X17039463Y-13135000D01*
X17896537Y-13135000D01*
X18016156Y-13158794D01*
G37*
G36*
X95123499Y-13075537D02*
G01*
X95133108Y-13078452D01*
X95141972Y-13083190D01*
X95154507Y-13093477D01*
X97685823Y-15624793D01*
X97696110Y-15637328D01*
X97700848Y-15646192D01*
X97703763Y-15655801D01*
X97705352Y-15671940D01*
X97705352Y-20969660D01*
X97703763Y-20985799D01*
X97700848Y-20995408D01*
X97696110Y-21004272D01*
X97689737Y-21012037D01*
X97681972Y-21018410D01*
X97673108Y-21023148D01*
X97663499Y-21026063D01*
X97647360Y-21027652D01*
X95119640Y-21027652D01*
X95103501Y-21026063D01*
X95093892Y-21023148D01*
X95085028Y-21018410D01*
X95077263Y-21012037D01*
X95070890Y-21004272D01*
X95066152Y-20995408D01*
X95063237Y-20985799D01*
X95061648Y-20969660D01*
X95061648Y-13131940D01*
X95063237Y-13115801D01*
X95066152Y-13106192D01*
X95070890Y-13097328D01*
X95077263Y-13089563D01*
X95085028Y-13083190D01*
X95093892Y-13078452D01*
X95103501Y-13075537D01*
X95113500Y-13074553D01*
X95123499Y-13075537D01*
G37*
G36*
X28045000Y-20699300D02*
G01*
X25403000Y-20699300D01*
X25403000Y-12537300D01*
X28045000Y-12537300D01*
X28045000Y-20699300D01*
G37*
G36*
X50895000Y-18677800D02*
G01*
X48793000Y-18677800D01*
X48793000Y-12575800D01*
X50895000Y-12575800D01*
X50895000Y-18677800D01*
G37*
G36*
X69254931Y-18675800D02*
G01*
X67152931Y-18675800D01*
X67152931Y-12573800D01*
X69254931Y-12573800D01*
X69254931Y-18675800D01*
G37*
G36*
X32725000Y-17681800D02*
G01*
X30623000Y-17681800D01*
X30623000Y-12579800D01*
X32725000Y-12579800D01*
X32725000Y-17681800D01*
G37*
G36*
X87460000Y-17669800D02*
G01*
X85358000Y-17669800D01*
X85358000Y-12567800D01*
X87460000Y-12567800D01*
X87460000Y-17669800D01*
G37*
G36*
X62806564Y-14244189D02*
G01*
X62997833Y-14323415D01*
X62997835Y-14323416D01*
X63169973Y-14438435D01*
X63316365Y-14584827D01*
X63409247Y-14723834D01*
X63431385Y-14756967D01*
X63510611Y-14948236D01*
X63551000Y-15151284D01*
X63551000Y-15358316D01*
X63510611Y-15561364D01*
X63467352Y-15665800D01*
X63431384Y-15752635D01*
X63316365Y-15924773D01*
X63169973Y-16071165D01*
X62997835Y-16186184D01*
X62997834Y-16186185D01*
X62997833Y-16186185D01*
X62806564Y-16265411D01*
X62603516Y-16305800D01*
X62396484Y-16305800D01*
X62193436Y-16265411D01*
X62002167Y-16186185D01*
X62002166Y-16186185D01*
X62002165Y-16186184D01*
X61830027Y-16071165D01*
X61683635Y-15924773D01*
X61568616Y-15752635D01*
X61532648Y-15665800D01*
X61489389Y-15561364D01*
X61449000Y-15358316D01*
X61449000Y-15151284D01*
X61489389Y-14948236D01*
X61568615Y-14756967D01*
X61590754Y-14723834D01*
X61683635Y-14584827D01*
X61830027Y-14438435D01*
X62002165Y-14323416D01*
X62002167Y-14323415D01*
X62193436Y-14244189D01*
X62396484Y-14203800D01*
X62603516Y-14203800D01*
X62806564Y-14244189D01*
G37*
M02*
