M48
INCH,TZ
T1C0.0157
T2C0.0236
T3C0.0295
T4C0.0315
T5C0.0354
T6C0.0394
T7C0.0472
T8C0.0591
T9C0.0827
T10C0.1693
T11C0.2047
%
G90
G05
T1
X7577Y-40379
X7577Y-40970
X7577Y-41560
X7577Y-42151
X7577Y-48079
X7577Y-48670
X7577Y-49260
X7577Y-49851
X7757Y-39184
X8168Y-40379
X8168Y-40970
X8168Y-41560
X8168Y-42151
X8168Y-48079
X8168Y-48670
X8168Y-49260
X8168Y-49851
X8758Y-40379
X8758Y-40970
X8758Y-41560
X8758Y-42151
X8758Y-48079
X8758Y-48670
X8758Y-49260
X8758Y-49851
X8937Y-45984
X9349Y-40379
X9349Y-40970
X9349Y-41560
X9349Y-42151
X9349Y-48079
X9349Y-48670
X9349Y-49260
X9349Y-49851
X15477Y-41579
X15477Y-42170
X15477Y-42760
X15477Y-43351
X16068Y-41579
X16068Y-42170
X16068Y-42760
X16068Y-43351
X16658Y-41579
X16658Y-42170
X16658Y-42760
X16658Y-43351
X17249Y-41579
X17249Y-42170
X17249Y-42760
X17249Y-43351
X21157Y-45484
X23121Y-25793
X23877Y-45304
X24149Y-56439
X25277Y-36164
X25677Y-34804
X25771Y-44593
X25797Y-43068
X26221Y-24968
X27721Y-26918
X28483Y-25768
X29221Y-25718
X29971Y-24768
X30278Y-25318
X30437Y-25771
X33146Y-34893
X33421Y-59818
X33421Y-60618
X33421Y-61418
X33421Y-62218
X33621Y-59418
X33621Y-60218
X33621Y-61018
X33621Y-61818
X33821Y-59818
X33821Y-60618
X33821Y-61418
X33821Y-62218
X34021Y-59418
X34021Y-60218
X34021Y-61018
X34021Y-61818
X34221Y-59818
X34221Y-60618
X34221Y-61418
X34221Y-62218
X34421Y-59418
X34421Y-60218
X34421Y-61018
X34421Y-61818
X34621Y-59818
X34621Y-60618
X34621Y-61418
X34621Y-62218
X34821Y-59418
X34821Y-60218
X34821Y-61018
X34821Y-61818
X35021Y-59818
X35021Y-60618
X35021Y-61418
X35021Y-62218
X35221Y-59418
X35221Y-60218
X35221Y-61018
X35221Y-61818
X35421Y-59018
X35421Y-59818
X35421Y-60618
X35421Y-61418
X35421Y-62218
X35621Y-58618
X35621Y-59418
X35621Y-60218
X35621Y-61018
X35621Y-61818
X35821Y-59018
X35821Y-59818
X35821Y-60618
X35821Y-61418
X35821Y-62218
X36021Y-58618
X36021Y-59418
X36021Y-60218
X36021Y-61018
X36021Y-61818
X36221Y-59018
X36221Y-59818
X36221Y-60618
X36221Y-61418
X36221Y-62218
X36421Y-58618
X36421Y-59418
X36421Y-60218
X36421Y-61018
X36421Y-61818
X36621Y-59018
X36621Y-59818
X36621Y-60618
X36621Y-61418
X36821Y-58618
X36821Y-59418
X36821Y-60218
X36821Y-61018
X37021Y-59018
X37021Y-59818
X37021Y-60618
X37021Y-61418
X37221Y-58618
X37221Y-59418
X37221Y-60218
X37221Y-61018
X37327Y-44159
X37327Y-44559
X37421Y-59018
X37421Y-59818
X37421Y-60618
X37621Y-58618
X37621Y-59418
X37621Y-60218
X37732Y-44159
X37732Y-44559
X37821Y-59018
X37821Y-59818
X37821Y-60618
X38021Y-58618
X38021Y-59418
X38021Y-60218
X38137Y-44159
X38137Y-44559
X38221Y-59018
X38221Y-59818
X38421Y-58618
X38421Y-59418
X38541Y-44159
X38541Y-44559
X38621Y-59018
X38621Y-59818
X38821Y-58618
X38821Y-59418
X38946Y-44159
X38946Y-44559
X39021Y-59018
X39221Y-58618
X39221Y-59418
X39351Y-44159
X39351Y-44559
X39421Y-59018
X39621Y-58618
X39621Y-59418
X39755Y-44159
X39755Y-44559
X39821Y-59018
X40021Y-58618
X40021Y-59418
X40160Y-44159
X40160Y-44559
X40221Y-59018
X40421Y-58618
X40421Y-59418
X40565Y-44159
X40565Y-44559
X40621Y-59018
X40821Y-58618
X40821Y-59418
X40969Y-44159
X40969Y-44559
X41021Y-59018
X41221Y-58618
X41221Y-59418
X41374Y-44159
X41374Y-44559
X41421Y-59018
X41621Y-58618
X41621Y-59418
X41779Y-44159
X41779Y-44559
X41821Y-59018
X42021Y-58618
X42021Y-59418
X42183Y-44159
X42183Y-44559
X42221Y-59018
X42421Y-58618
X42421Y-59418
X42588Y-44159
X42588Y-44559
X42621Y-59018
X42821Y-58618
X42821Y-59418
X42993Y-44159
X42993Y-44559
X43021Y-59018
X43221Y-58618
X43221Y-59418
X43397Y-44159
X43397Y-44559
X43421Y-59018
X43621Y-58618
X43621Y-59418
X43802Y-44159
X43802Y-44559
X43821Y-59018
T2
X5802Y-32738
X6377Y-12004
X6377Y-18303
X6437Y-10764
X6437Y-13244
X6437Y-17063
X6437Y-19543
X6551Y-11354
X6551Y-12654
X6551Y-17653
X6551Y-18953
X6957Y-54624
X7027Y-10878
X7027Y-13130
X7027Y-17178
X7027Y-19429
X7677Y-10704
X7677Y-13304
X7677Y-17003
X7677Y-19603
X8327Y-10878
X8327Y-13130
X8327Y-17178
X8327Y-19429
X8803Y-11354
X8803Y-12654
X8803Y-17653
X8803Y-18953
X8917Y-10764
X8917Y-13244
X8917Y-17063
X8917Y-19543
X8977Y-12004
X8977Y-18303
X13277Y-44124
X14017Y-58744
X14137Y-50264
X16437Y-39424
X23637Y-49644
X24997Y-40744
X25517Y-58084
X25677Y-41584
X28571Y-49852
X28621Y-40518
X28631Y-48612
X28631Y-51092
X28681Y-39278
X28681Y-41758
X28745Y-49202
X28745Y-50502
X28795Y-39868
X28795Y-41168
X29221Y-48726
X29221Y-50978
X29271Y-39392
X29271Y-41643
X29871Y-48552
X29871Y-51152
X29921Y-39218
X29921Y-41818
X30521Y-48726
X30521Y-50978
X30571Y-39392
X30571Y-41643
X30997Y-49202
X30997Y-50502
X31047Y-39868
X31047Y-41168
X31111Y-48612
X31111Y-51092
X31161Y-39278
X31161Y-41758
X31171Y-49852
X31221Y-40518
X39607Y-61784
X39979Y-60886
X39979Y-62682
X40877Y-60515
X40877Y-63054
X41775Y-60886
X41775Y-62682
X42147Y-61784
X5607Y-6884
X5979Y-5986
X5979Y-7782
X6877Y-5615
X6877Y-8154
X7775Y-5986
X7775Y-7782
X8147Y-6884
T3
X18527Y-50904
X19027Y-50404
X19027Y-51404
T4
X43381Y-12132
X43381Y-18132
X15625Y-47831
X15625Y-48831
X15625Y-49831
X15625Y-50831
X15625Y-51831
X15625Y-52831
X15625Y-53831
X15625Y-54831
X15625Y-55831
X15625Y-56831
X15625Y-57831
X15625Y-58831
X15625Y-59831
X15625Y-60831
X15625Y-61831
X21625Y-47831
X21625Y-48831
X21625Y-49831
X21625Y-50831
X21625Y-51831
X21625Y-52831
X21625Y-53831
X21625Y-54831
X21625Y-55831
X21625Y-56831
X21625Y-57831
X21625Y-58831
X21625Y-59831
X21625Y-60831
X21625Y-61831
X25427Y-53948
X25427Y-54948
X25427Y-55948
X25427Y-56948
X28427Y-53948
X28427Y-54948
X28427Y-55948
X28427Y-56948
X24677Y-25004
X23421Y-26718
X23421Y-29718
X24421Y-26718
X24421Y-29718
X23777Y-46484
X24761Y-46484
T5
X6157Y-52803
X6157Y-53803
X6157Y-37081
X6157Y-38081
X6157Y-44929
X6157Y-45929
T6
X10920Y-42423
X19188Y-40691
X20793Y-40267
X11281Y-39440
X11281Y-40440
X11281Y-47314
X11281Y-48314
X5957Y-48603
X5957Y-49603
X5957Y-40729
X5957Y-41729
X11281Y-55188
X11281Y-56188
X9976Y-27384
X10976Y-27384
X11976Y-27384
X12976Y-27384
X13976Y-27384
X18322Y-27384
X19322Y-27384
X20322Y-27384
X15901Y-45238
X16901Y-45238
X17901Y-45238
X18901Y-45238
X24606Y-6006
T7
X29993Y-8658
X29993Y-19485
X31321Y-29902
X31321Y-33918
X24604Y-8659
X19215Y-8659
X19215Y-19486
X35381Y-19485
X13826Y-19485
T8
X34055Y-44721
X34055Y-49012
X7676Y-21492
X7676Y-25784
X9676Y-23638
X32087Y-54130
X34087Y-56276
X34087Y-58422
T9
X36306Y-28406
X37306Y-35414
T10
X40877Y-61784
X6877Y-6884
T11
X29921Y-40518
X7677Y-12004
X29871Y-49852
X7677Y-18303
T7
G00X24604Y-19289
M15
G01X24604Y-19525
M16
G05
G00X35381Y-8225
M15
G01X35381Y-8697
M16
G05
G00X13826Y-8225
M15
G01X13826Y-8697
M16
G05
T0
M30
