G04 #@! TF.GenerationSoftware,KiCad,Pcbnew,5.1.5*
G04 #@! TF.CreationDate,2020-02-13T16:26:20+03:00*
G04 #@! TF.ProjectId,DC-Soft-Starter-V2,44432d53-6f66-4742-9d53-746172746572,rev?*
G04 #@! TF.SameCoordinates,Original*
G04 #@! TF.FileFunction,Legend,Bot*
G04 #@! TF.FilePolarity,Positive*
%FSLAX46Y46*%
G04 Gerber Fmt 4.6, Leading zero omitted, Abs format (unit mm)*
G04 Created by KiCad (PCBNEW 5.1.5) date 2020-02-13 16:26:20*
%MOMM*%
%LPD*%
G04 APERTURE LIST*
%ADD10C,0.300000*%
%ADD11C,1.000000*%
%ADD12C,0.120000*%
%ADD13C,0.150000*%
G04 APERTURE END LIST*
D10*
X79190000Y-93432000D02*
X76650000Y-95972000D01*
X70808000Y-95718000D02*
X68268000Y-98258000D01*
D11*
X68380000Y-161910400D02*
X68380000Y-95802800D01*
X79048000Y-95802800D02*
X68369600Y-95819600D01*
X84128000Y-74212800D02*
X84128000Y-86404800D01*
X84168400Y-86370800D02*
X79088400Y-91450800D01*
X79037600Y-91501600D02*
X79037600Y-95819600D01*
D12*
X26866000Y-96848300D02*
X24199000Y-96848300D01*
X26866000Y-89990300D02*
X26866000Y-96848300D01*
X24199000Y-89990300D02*
X26866000Y-89990300D01*
X24199000Y-96848300D02*
X24199000Y-89990300D01*
X50297500Y-75321800D02*
X28898000Y-75321800D01*
X50297500Y-96784800D02*
X50297500Y-75321800D01*
X28898000Y-96784800D02*
X50297500Y-96784800D01*
X28898000Y-75321800D02*
X28898000Y-96784800D01*
D11*
X12769000Y-72654800D02*
X39439000Y-72654800D01*
X40694000Y-71418800D02*
X39439000Y-72654800D01*
X40694000Y-67354800D02*
X40694000Y-71418800D01*
X84128000Y-74212800D02*
X81588000Y-71672800D01*
X55172000Y-67354800D02*
X55172000Y-69894800D01*
X55172000Y-69894800D02*
X56950000Y-71672800D01*
X43234000Y-64814800D02*
X40694000Y-67354800D01*
X52632000Y-64814800D02*
X43234000Y-64814800D01*
X56950000Y-71672800D02*
X81588000Y-71672800D01*
X55172000Y-67354800D02*
X52632000Y-64814800D01*
D12*
X65708000Y-85386800D02*
X65708000Y-86486800D01*
X65438000Y-85386800D02*
X65708000Y-85386800D01*
X65438000Y-83886800D02*
X65438000Y-85386800D01*
X72068000Y-85386800D02*
X72068000Y-88216800D01*
X72338000Y-85386800D02*
X72068000Y-85386800D01*
X72338000Y-83886800D02*
X72338000Y-85386800D01*
X67290078Y-88996800D02*
X66772922Y-88996800D01*
X67290078Y-90416800D02*
X66772922Y-90416800D01*
X64787000Y-86423878D02*
X64787000Y-85906722D01*
X63367000Y-86423878D02*
X63367000Y-85906722D01*
X73357000Y-83457800D02*
X73357000Y-77757800D01*
X73357000Y-77757800D02*
X76357000Y-77757800D01*
X76357000Y-77757800D02*
X76357000Y-83457800D01*
X53138800Y-126278222D02*
X53138800Y-126795378D01*
X51718800Y-126278222D02*
X51718800Y-126795378D01*
X64749000Y-111570378D02*
X64749000Y-111053222D01*
X66169000Y-111570378D02*
X66169000Y-111053222D01*
X75709000Y-140036422D02*
X75709000Y-140553578D01*
X74289000Y-140036422D02*
X74289000Y-140553578D01*
X77398000Y-77721600D02*
X77398000Y-83121600D01*
X80698000Y-77721600D02*
X80698000Y-83121600D01*
X77398000Y-77721600D02*
X80698000Y-77721600D01*
X70464000Y-90648878D02*
X70464000Y-90131722D01*
X71884000Y-90648878D02*
X71884000Y-90131722D01*
X50179000Y-127496800D02*
X50179000Y-131096800D01*
X50167478Y-127458322D02*
G75*
G03X45729000Y-129296800I-1838478J-1838478D01*
G01*
X50167478Y-131135278D02*
G75*
G02X45729000Y-129296800I-1838478J1838478D01*
G01*
D13*
X66890038Y-77164819D02*
X66985276Y-77117200D01*
X67080514Y-77021961D01*
X67223371Y-76879104D01*
X67318609Y-76831485D01*
X67413847Y-76831485D01*
X67366228Y-77069580D02*
X67461466Y-77021961D01*
X67556704Y-76926723D01*
X67604323Y-76736247D01*
X67604323Y-76402914D01*
X67556704Y-76212438D01*
X67461466Y-76117200D01*
X67366228Y-76069580D01*
X67175752Y-76069580D01*
X67080514Y-76117200D01*
X66985276Y-76212438D01*
X66937657Y-76402914D01*
X66937657Y-76736247D01*
X66985276Y-76926723D01*
X67080514Y-77021961D01*
X67175752Y-77069580D01*
X67366228Y-77069580D01*
X65985276Y-77069580D02*
X66556704Y-77069580D01*
X66270990Y-77069580D02*
X66270990Y-76069580D01*
X66366228Y-76212438D01*
X66461466Y-76307676D01*
X66556704Y-76355295D01*
X67793257Y-91903180D02*
X68126590Y-91426990D01*
X68364685Y-91903180D02*
X68364685Y-90903180D01*
X67983733Y-90903180D01*
X67888495Y-90950800D01*
X67840876Y-90998419D01*
X67793257Y-91093657D01*
X67793257Y-91236514D01*
X67840876Y-91331752D01*
X67888495Y-91379371D01*
X67983733Y-91426990D01*
X68364685Y-91426990D01*
X66840876Y-91903180D02*
X67412304Y-91903180D01*
X67126590Y-91903180D02*
X67126590Y-90903180D01*
X67221828Y-91046038D01*
X67317066Y-91141276D01*
X67412304Y-91188895D01*
X65936114Y-90903180D02*
X66412304Y-90903180D01*
X66459923Y-91379371D01*
X66412304Y-91331752D01*
X66317066Y-91284133D01*
X66078971Y-91284133D01*
X65983733Y-91331752D01*
X65936114Y-91379371D01*
X65888495Y-91474609D01*
X65888495Y-91712704D01*
X65936114Y-91807942D01*
X65983733Y-91855561D01*
X66078971Y-91903180D01*
X66317066Y-91903180D01*
X66412304Y-91855561D01*
X66459923Y-91807942D01*
X64319866Y-88963142D02*
X64367485Y-89010761D01*
X64510342Y-89058380D01*
X64605580Y-89058380D01*
X64748438Y-89010761D01*
X64843676Y-88915523D01*
X64891295Y-88820285D01*
X64938914Y-88629809D01*
X64938914Y-88486952D01*
X64891295Y-88296476D01*
X64843676Y-88201238D01*
X64748438Y-88106000D01*
X64605580Y-88058380D01*
X64510342Y-88058380D01*
X64367485Y-88106000D01*
X64319866Y-88153619D01*
X63748438Y-88486952D02*
X63843676Y-88439333D01*
X63891295Y-88391714D01*
X63938914Y-88296476D01*
X63938914Y-88248857D01*
X63891295Y-88153619D01*
X63843676Y-88106000D01*
X63748438Y-88058380D01*
X63557961Y-88058380D01*
X63462723Y-88106000D01*
X63415104Y-88153619D01*
X63367485Y-88248857D01*
X63367485Y-88296476D01*
X63415104Y-88391714D01*
X63462723Y-88439333D01*
X63557961Y-88486952D01*
X63748438Y-88486952D01*
X63843676Y-88534571D01*
X63891295Y-88582190D01*
X63938914Y-88677428D01*
X63938914Y-88867904D01*
X63891295Y-88963142D01*
X63843676Y-89010761D01*
X63748438Y-89058380D01*
X63557961Y-89058380D01*
X63462723Y-89010761D01*
X63415104Y-88963142D01*
X63367485Y-88867904D01*
X63367485Y-88677428D01*
X63415104Y-88582190D01*
X63462723Y-88534571D01*
X63557961Y-88486952D01*
X75559295Y-77374380D02*
X75559295Y-76374380D01*
X75321200Y-76374380D01*
X75178342Y-76422000D01*
X75083104Y-76517238D01*
X75035485Y-76612476D01*
X74987866Y-76802952D01*
X74987866Y-76945809D01*
X75035485Y-77136285D01*
X75083104Y-77231523D01*
X75178342Y-77326761D01*
X75321200Y-77374380D01*
X75559295Y-77374380D01*
X74130723Y-76374380D02*
X74321200Y-76374380D01*
X74416438Y-76422000D01*
X74464057Y-76469619D01*
X74559295Y-76612476D01*
X74606914Y-76802952D01*
X74606914Y-77183904D01*
X74559295Y-77279142D01*
X74511676Y-77326761D01*
X74416438Y-77374380D01*
X74225961Y-77374380D01*
X74130723Y-77326761D01*
X74083104Y-77279142D01*
X74035485Y-77183904D01*
X74035485Y-76945809D01*
X74083104Y-76850571D01*
X74130723Y-76802952D01*
X74225961Y-76755333D01*
X74416438Y-76755333D01*
X74511676Y-76802952D01*
X74559295Y-76850571D01*
X74606914Y-76945809D01*
X51149942Y-125758342D02*
X51197561Y-125710723D01*
X51245180Y-125567866D01*
X51245180Y-125472628D01*
X51197561Y-125329771D01*
X51102323Y-125234533D01*
X51007085Y-125186914D01*
X50816609Y-125139295D01*
X50673752Y-125139295D01*
X50483276Y-125186914D01*
X50388038Y-125234533D01*
X50292800Y-125329771D01*
X50245180Y-125472628D01*
X50245180Y-125567866D01*
X50292800Y-125710723D01*
X50340419Y-125758342D01*
X51245180Y-126710723D02*
X51245180Y-126139295D01*
X51245180Y-126425009D02*
X50245180Y-126425009D01*
X50388038Y-126329771D01*
X50483276Y-126234533D01*
X50530895Y-126139295D01*
X51245180Y-127663104D02*
X51245180Y-127091676D01*
X51245180Y-127377390D02*
X50245180Y-127377390D01*
X50388038Y-127282152D01*
X50483276Y-127186914D01*
X50530895Y-127091676D01*
X63392742Y-110823142D02*
X63440361Y-110775523D01*
X63487980Y-110632666D01*
X63487980Y-110537428D01*
X63440361Y-110394571D01*
X63345123Y-110299333D01*
X63249885Y-110251714D01*
X63059409Y-110204095D01*
X62916552Y-110204095D01*
X62726076Y-110251714D01*
X62630838Y-110299333D01*
X62535600Y-110394571D01*
X62487980Y-110537428D01*
X62487980Y-110632666D01*
X62535600Y-110775523D01*
X62583219Y-110823142D01*
X62583219Y-111204095D02*
X62535600Y-111251714D01*
X62487980Y-111346952D01*
X62487980Y-111585047D01*
X62535600Y-111680285D01*
X62583219Y-111727904D01*
X62678457Y-111775523D01*
X62773695Y-111775523D01*
X62916552Y-111727904D01*
X63487980Y-111156476D01*
X63487980Y-111775523D01*
X62821314Y-112632666D02*
X63487980Y-112632666D01*
X62440361Y-112394571D02*
X63154647Y-112156476D01*
X63154647Y-112775523D01*
X73706142Y-139652142D02*
X73753761Y-139604523D01*
X73801380Y-139461666D01*
X73801380Y-139366428D01*
X73753761Y-139223571D01*
X73658523Y-139128333D01*
X73563285Y-139080714D01*
X73372809Y-139033095D01*
X73229952Y-139033095D01*
X73039476Y-139080714D01*
X72944238Y-139128333D01*
X72849000Y-139223571D01*
X72801380Y-139366428D01*
X72801380Y-139461666D01*
X72849000Y-139604523D01*
X72896619Y-139652142D01*
X72896619Y-140033095D02*
X72849000Y-140080714D01*
X72801380Y-140175952D01*
X72801380Y-140414047D01*
X72849000Y-140509285D01*
X72896619Y-140556904D01*
X72991857Y-140604523D01*
X73087095Y-140604523D01*
X73229952Y-140556904D01*
X73801380Y-139985476D01*
X73801380Y-140604523D01*
X72801380Y-141461666D02*
X72801380Y-141271190D01*
X72849000Y-141175952D01*
X72896619Y-141128333D01*
X73039476Y-141033095D01*
X73229952Y-140985476D01*
X73610904Y-140985476D01*
X73706142Y-141033095D01*
X73753761Y-141080714D01*
X73801380Y-141175952D01*
X73801380Y-141366428D01*
X73753761Y-141461666D01*
X73706142Y-141509285D01*
X73610904Y-141556904D01*
X73372809Y-141556904D01*
X73277571Y-141509285D01*
X73229952Y-141461666D01*
X73182333Y-141366428D01*
X73182333Y-141175952D01*
X73229952Y-141080714D01*
X73277571Y-141033095D01*
X73372809Y-140985476D01*
X82131580Y-77707904D02*
X81131580Y-77707904D01*
X81131580Y-77946000D01*
X81179200Y-78088857D01*
X81274438Y-78184095D01*
X81369676Y-78231714D01*
X81560152Y-78279333D01*
X81703009Y-78279333D01*
X81893485Y-78231714D01*
X81988723Y-78184095D01*
X82083961Y-78088857D01*
X82131580Y-77946000D01*
X82131580Y-77707904D01*
X81131580Y-79184095D02*
X81131580Y-78707904D01*
X81607771Y-78660285D01*
X81560152Y-78707904D01*
X81512533Y-78803142D01*
X81512533Y-79041238D01*
X81560152Y-79136476D01*
X81607771Y-79184095D01*
X81703009Y-79231714D01*
X81941104Y-79231714D01*
X82036342Y-79184095D01*
X82083961Y-79136476D01*
X82131580Y-79041238D01*
X82131580Y-78803142D01*
X82083961Y-78707904D01*
X82036342Y-78660285D01*
X70026380Y-89734942D02*
X69550190Y-89401609D01*
X70026380Y-89163514D02*
X69026380Y-89163514D01*
X69026380Y-89544466D01*
X69074000Y-89639704D01*
X69121619Y-89687323D01*
X69216857Y-89734942D01*
X69359714Y-89734942D01*
X69454952Y-89687323D01*
X69502571Y-89639704D01*
X69550190Y-89544466D01*
X69550190Y-89163514D01*
X70026380Y-90687323D02*
X70026380Y-90115895D01*
X70026380Y-90401609D02*
X69026380Y-90401609D01*
X69169238Y-90306371D01*
X69264476Y-90211133D01*
X69312095Y-90115895D01*
X69026380Y-91544466D02*
X69026380Y-91353990D01*
X69074000Y-91258752D01*
X69121619Y-91211133D01*
X69264476Y-91115895D01*
X69454952Y-91068276D01*
X69835904Y-91068276D01*
X69931142Y-91115895D01*
X69978761Y-91163514D01*
X70026380Y-91258752D01*
X70026380Y-91449228D01*
X69978761Y-91544466D01*
X69931142Y-91592085D01*
X69835904Y-91639704D01*
X69597809Y-91639704D01*
X69502571Y-91592085D01*
X69454952Y-91544466D01*
X69407333Y-91449228D01*
X69407333Y-91258752D01*
X69454952Y-91163514D01*
X69502571Y-91115895D01*
X69597809Y-91068276D01*
X45204704Y-126615580D02*
X45204704Y-127425104D01*
X45157085Y-127520342D01*
X45109466Y-127567961D01*
X45014228Y-127615580D01*
X44823752Y-127615580D01*
X44728514Y-127567961D01*
X44680895Y-127520342D01*
X44633276Y-127425104D01*
X44633276Y-126615580D01*
X43728514Y-126948914D02*
X43728514Y-127615580D01*
X43966609Y-126567961D02*
X44204704Y-127282247D01*
X43585657Y-127282247D01*
M02*
