G04 #@! TF.GenerationSoftware,KiCad,Pcbnew,5.1.5*
G04 #@! TF.CreationDate,2020-02-13T16:26:20+03:00*
G04 #@! TF.ProjectId,DC-Soft-Starter-V2,44432d53-6f66-4742-9d53-746172746572,rev?*
G04 #@! TF.SameCoordinates,Original*
G04 #@! TF.FileFunction,Soldermask,Bot*
G04 #@! TF.FilePolarity,Negative*
%FSLAX46Y46*%
G04 Gerber Fmt 4.6, Leading zero omitted, Abs format (unit mm)*
G04 Created by KiCad (PCBNEW 5.1.5) date 2020-02-13 16:26:20*
%MOMM*%
%LPD*%
G04 APERTURE LIST*
%ADD10C,0.100000*%
G04 APERTURE END LIST*
D10*
G36*
X104376156Y-152604794D02*
G01*
X105097140Y-152748206D01*
X105888972Y-153076193D01*
X106601601Y-153552357D01*
X107207643Y-154158399D01*
X107683807Y-154871028D01*
X108011794Y-155662860D01*
X108179000Y-156503464D01*
X108179000Y-157360536D01*
X108011794Y-158201140D01*
X107683807Y-158992972D01*
X107207643Y-159705601D01*
X106601601Y-160311643D01*
X105888972Y-160787807D01*
X105097140Y-161115794D01*
X104376156Y-161259206D01*
X104256537Y-161283000D01*
X103399463Y-161283000D01*
X103279844Y-161259206D01*
X102558860Y-161115794D01*
X101767028Y-160787807D01*
X101054399Y-160311643D01*
X100448357Y-159705601D01*
X99972193Y-158992972D01*
X99644206Y-158201140D01*
X99477000Y-157360536D01*
X99477000Y-156503464D01*
X99644206Y-155662860D01*
X99972193Y-154871028D01*
X100448357Y-154158399D01*
X101054399Y-153552357D01*
X101767028Y-153076193D01*
X102558860Y-152748206D01*
X103279844Y-152604794D01*
X103399463Y-152581000D01*
X104256537Y-152581000D01*
X104376156Y-152604794D01*
G37*
G36*
X55176228Y-156232503D02*
G01*
X55331100Y-156296653D01*
X55470481Y-156389785D01*
X55589015Y-156508319D01*
X55682147Y-156647700D01*
X55746297Y-156802572D01*
X55779000Y-156966984D01*
X55779000Y-157134616D01*
X55746297Y-157299028D01*
X55682147Y-157453900D01*
X55589015Y-157593281D01*
X55470481Y-157711815D01*
X55331100Y-157804947D01*
X55176228Y-157869097D01*
X55011816Y-157901800D01*
X54844184Y-157901800D01*
X54679772Y-157869097D01*
X54524900Y-157804947D01*
X54385519Y-157711815D01*
X54266985Y-157593281D01*
X54173853Y-157453900D01*
X54109703Y-157299028D01*
X54077000Y-157134616D01*
X54077000Y-156966984D01*
X54109703Y-156802572D01*
X54173853Y-156647700D01*
X54266985Y-156508319D01*
X54385519Y-156389785D01*
X54524900Y-156296653D01*
X54679772Y-156232503D01*
X54844184Y-156199800D01*
X55011816Y-156199800D01*
X55176228Y-156232503D01*
G37*
G36*
X39936228Y-156232503D02*
G01*
X40091100Y-156296653D01*
X40230481Y-156389785D01*
X40349015Y-156508319D01*
X40442147Y-156647700D01*
X40506297Y-156802572D01*
X40539000Y-156966984D01*
X40539000Y-157134616D01*
X40506297Y-157299028D01*
X40442147Y-157453900D01*
X40349015Y-157593281D01*
X40230481Y-157711815D01*
X40091100Y-157804947D01*
X39936228Y-157869097D01*
X39771816Y-157901800D01*
X39604184Y-157901800D01*
X39439772Y-157869097D01*
X39284900Y-157804947D01*
X39145519Y-157711815D01*
X39026985Y-157593281D01*
X38933853Y-157453900D01*
X38869703Y-157299028D01*
X38837000Y-157134616D01*
X38837000Y-156966984D01*
X38869703Y-156802572D01*
X38933853Y-156647700D01*
X39026985Y-156508319D01*
X39145519Y-156389785D01*
X39284900Y-156296653D01*
X39439772Y-156232503D01*
X39604184Y-156199800D01*
X39771816Y-156199800D01*
X39936228Y-156232503D01*
G37*
G36*
X55176228Y-153692503D02*
G01*
X55331100Y-153756653D01*
X55470481Y-153849785D01*
X55589015Y-153968319D01*
X55682147Y-154107700D01*
X55746297Y-154262572D01*
X55779000Y-154426984D01*
X55779000Y-154594616D01*
X55746297Y-154759028D01*
X55682147Y-154913900D01*
X55589015Y-155053281D01*
X55470481Y-155171815D01*
X55331100Y-155264947D01*
X55176228Y-155329097D01*
X55011816Y-155361800D01*
X54844184Y-155361800D01*
X54679772Y-155329097D01*
X54524900Y-155264947D01*
X54385519Y-155171815D01*
X54266985Y-155053281D01*
X54173853Y-154913900D01*
X54109703Y-154759028D01*
X54077000Y-154594616D01*
X54077000Y-154426984D01*
X54109703Y-154262572D01*
X54173853Y-154107700D01*
X54266985Y-153968319D01*
X54385519Y-153849785D01*
X54524900Y-153756653D01*
X54679772Y-153692503D01*
X54844184Y-153659800D01*
X55011816Y-153659800D01*
X55176228Y-153692503D01*
G37*
G36*
X39936228Y-153692503D02*
G01*
X40091100Y-153756653D01*
X40230481Y-153849785D01*
X40349015Y-153968319D01*
X40442147Y-154107700D01*
X40506297Y-154262572D01*
X40539000Y-154426984D01*
X40539000Y-154594616D01*
X40506297Y-154759028D01*
X40442147Y-154913900D01*
X40349015Y-155053281D01*
X40230481Y-155171815D01*
X40091100Y-155264947D01*
X39936228Y-155329097D01*
X39771816Y-155361800D01*
X39604184Y-155361800D01*
X39439772Y-155329097D01*
X39284900Y-155264947D01*
X39145519Y-155171815D01*
X39026985Y-155053281D01*
X38933853Y-154913900D01*
X38869703Y-154759028D01*
X38837000Y-154594616D01*
X38837000Y-154426984D01*
X38869703Y-154262572D01*
X38933853Y-154107700D01*
X39026985Y-153968319D01*
X39145519Y-153849785D01*
X39284900Y-153756653D01*
X39439772Y-153692503D01*
X39604184Y-153659800D01*
X39771816Y-153659800D01*
X39936228Y-153692503D01*
G37*
G36*
X55176228Y-151152503D02*
G01*
X55331100Y-151216653D01*
X55470481Y-151309785D01*
X55589015Y-151428319D01*
X55682147Y-151567700D01*
X55746297Y-151722572D01*
X55779000Y-151886984D01*
X55779000Y-152054616D01*
X55746297Y-152219028D01*
X55682147Y-152373900D01*
X55589015Y-152513281D01*
X55470481Y-152631815D01*
X55331100Y-152724947D01*
X55176228Y-152789097D01*
X55011816Y-152821800D01*
X54844184Y-152821800D01*
X54679772Y-152789097D01*
X54524900Y-152724947D01*
X54385519Y-152631815D01*
X54266985Y-152513281D01*
X54173853Y-152373900D01*
X54109703Y-152219028D01*
X54077000Y-152054616D01*
X54077000Y-151886984D01*
X54109703Y-151722572D01*
X54173853Y-151567700D01*
X54266985Y-151428319D01*
X54385519Y-151309785D01*
X54524900Y-151216653D01*
X54679772Y-151152503D01*
X54844184Y-151119800D01*
X55011816Y-151119800D01*
X55176228Y-151152503D01*
G37*
G36*
X39936228Y-151152503D02*
G01*
X40091100Y-151216653D01*
X40230481Y-151309785D01*
X40349015Y-151428319D01*
X40442147Y-151567700D01*
X40506297Y-151722572D01*
X40539000Y-151886984D01*
X40539000Y-152054616D01*
X40506297Y-152219028D01*
X40442147Y-152373900D01*
X40349015Y-152513281D01*
X40230481Y-152631815D01*
X40091100Y-152724947D01*
X39936228Y-152789097D01*
X39771816Y-152821800D01*
X39604184Y-152821800D01*
X39439772Y-152789097D01*
X39284900Y-152724947D01*
X39145519Y-152631815D01*
X39026985Y-152513281D01*
X38933853Y-152373900D01*
X38869703Y-152219028D01*
X38837000Y-152054616D01*
X38837000Y-151886984D01*
X38869703Y-151722572D01*
X38933853Y-151567700D01*
X39026985Y-151428319D01*
X39145519Y-151309785D01*
X39284900Y-151216653D01*
X39439772Y-151152503D01*
X39604184Y-151119800D01*
X39771816Y-151119800D01*
X39936228Y-151152503D01*
G37*
G36*
X39936228Y-148612503D02*
G01*
X40091100Y-148676653D01*
X40230481Y-148769785D01*
X40349015Y-148888319D01*
X40442147Y-149027700D01*
X40506297Y-149182572D01*
X40539000Y-149346984D01*
X40539000Y-149514616D01*
X40506297Y-149679028D01*
X40442147Y-149833900D01*
X40349015Y-149973281D01*
X40230481Y-150091815D01*
X40091100Y-150184947D01*
X39936228Y-150249097D01*
X39771816Y-150281800D01*
X39604184Y-150281800D01*
X39439772Y-150249097D01*
X39284900Y-150184947D01*
X39145519Y-150091815D01*
X39026985Y-149973281D01*
X38933853Y-149833900D01*
X38869703Y-149679028D01*
X38837000Y-149514616D01*
X38837000Y-149346984D01*
X38869703Y-149182572D01*
X38933853Y-149027700D01*
X39026985Y-148888319D01*
X39145519Y-148769785D01*
X39284900Y-148676653D01*
X39439772Y-148612503D01*
X39604184Y-148579800D01*
X39771816Y-148579800D01*
X39936228Y-148612503D01*
G37*
G36*
X55176228Y-148612503D02*
G01*
X55331100Y-148676653D01*
X55470481Y-148769785D01*
X55589015Y-148888319D01*
X55682147Y-149027700D01*
X55746297Y-149182572D01*
X55779000Y-149346984D01*
X55779000Y-149514616D01*
X55746297Y-149679028D01*
X55682147Y-149833900D01*
X55589015Y-149973281D01*
X55470481Y-150091815D01*
X55331100Y-150184947D01*
X55176228Y-150249097D01*
X55011816Y-150281800D01*
X54844184Y-150281800D01*
X54679772Y-150249097D01*
X54524900Y-150184947D01*
X54385519Y-150091815D01*
X54266985Y-149973281D01*
X54173853Y-149833900D01*
X54109703Y-149679028D01*
X54077000Y-149514616D01*
X54077000Y-149346984D01*
X54109703Y-149182572D01*
X54173853Y-149027700D01*
X54266985Y-148888319D01*
X54385519Y-148769785D01*
X54524900Y-148676653D01*
X54679772Y-148612503D01*
X54844184Y-148579800D01*
X55011816Y-148579800D01*
X55176228Y-148612503D01*
G37*
G36*
X87739472Y-147099212D02*
G01*
X87835040Y-147108625D01*
X88080280Y-147183018D01*
X88306294Y-147303825D01*
X88357899Y-147346176D01*
X88504397Y-147466403D01*
X88624624Y-147612901D01*
X88666975Y-147664506D01*
X88787782Y-147890520D01*
X88862175Y-148135760D01*
X88887294Y-148390800D01*
X88862175Y-148645840D01*
X88787782Y-148891080D01*
X88666975Y-149117094D01*
X88624624Y-149168699D01*
X88504397Y-149315197D01*
X88357899Y-149435424D01*
X88306294Y-149477775D01*
X88080280Y-149598582D01*
X87835040Y-149672975D01*
X87773582Y-149679028D01*
X87643906Y-149691800D01*
X85516094Y-149691800D01*
X85386418Y-149679028D01*
X85324960Y-149672975D01*
X85079720Y-149598582D01*
X84853706Y-149477775D01*
X84802101Y-149435424D01*
X84655603Y-149315197D01*
X84535376Y-149168699D01*
X84493025Y-149117094D01*
X84372218Y-148891080D01*
X84297825Y-148645840D01*
X84272706Y-148390800D01*
X84297825Y-148135760D01*
X84372218Y-147890520D01*
X84493025Y-147664506D01*
X84535376Y-147612901D01*
X84655603Y-147466403D01*
X84802101Y-147346176D01*
X84853706Y-147303825D01*
X85079720Y-147183018D01*
X85324960Y-147108625D01*
X85420528Y-147099212D01*
X85516094Y-147089800D01*
X87643906Y-147089800D01*
X87739472Y-147099212D01*
G37*
G36*
X55176228Y-146072503D02*
G01*
X55331100Y-146136653D01*
X55470481Y-146229785D01*
X55589015Y-146348319D01*
X55682147Y-146487700D01*
X55746297Y-146642572D01*
X55779000Y-146806984D01*
X55779000Y-146974616D01*
X55746297Y-147139028D01*
X55682147Y-147293900D01*
X55589015Y-147433281D01*
X55470481Y-147551815D01*
X55331100Y-147644947D01*
X55176228Y-147709097D01*
X55011816Y-147741800D01*
X54844184Y-147741800D01*
X54679772Y-147709097D01*
X54524900Y-147644947D01*
X54385519Y-147551815D01*
X54266985Y-147433281D01*
X54173853Y-147293900D01*
X54109703Y-147139028D01*
X54077000Y-146974616D01*
X54077000Y-146806984D01*
X54109703Y-146642572D01*
X54173853Y-146487700D01*
X54266985Y-146348319D01*
X54385519Y-146229785D01*
X54524900Y-146136653D01*
X54679772Y-146072503D01*
X54844184Y-146039800D01*
X55011816Y-146039800D01*
X55176228Y-146072503D01*
G37*
G36*
X39936228Y-146072503D02*
G01*
X40091100Y-146136653D01*
X40230481Y-146229785D01*
X40349015Y-146348319D01*
X40442147Y-146487700D01*
X40506297Y-146642572D01*
X40539000Y-146806984D01*
X40539000Y-146974616D01*
X40506297Y-147139028D01*
X40442147Y-147293900D01*
X40349015Y-147433281D01*
X40230481Y-147551815D01*
X40091100Y-147644947D01*
X39936228Y-147709097D01*
X39771816Y-147741800D01*
X39604184Y-147741800D01*
X39439772Y-147709097D01*
X39284900Y-147644947D01*
X39145519Y-147551815D01*
X39026985Y-147433281D01*
X38933853Y-147293900D01*
X38869703Y-147139028D01*
X38837000Y-146974616D01*
X38837000Y-146806984D01*
X38869703Y-146642572D01*
X38933853Y-146487700D01*
X39026985Y-146348319D01*
X39145519Y-146229785D01*
X39284900Y-146136653D01*
X39439772Y-146072503D01*
X39604184Y-146039800D01*
X39771816Y-146039800D01*
X39936228Y-146072503D01*
G37*
G36*
X72453228Y-143830503D02*
G01*
X72608100Y-143894653D01*
X72747481Y-143987785D01*
X72866015Y-144106319D01*
X72959147Y-144245700D01*
X73023297Y-144400572D01*
X73056000Y-144564984D01*
X73056000Y-144732616D01*
X73023297Y-144897028D01*
X72959147Y-145051900D01*
X72866015Y-145191281D01*
X72747481Y-145309815D01*
X72608100Y-145402947D01*
X72453228Y-145467097D01*
X72288816Y-145499800D01*
X72121184Y-145499800D01*
X71956772Y-145467097D01*
X71801900Y-145402947D01*
X71662519Y-145309815D01*
X71543985Y-145191281D01*
X71450853Y-145051900D01*
X71386703Y-144897028D01*
X71354000Y-144732616D01*
X71354000Y-144564984D01*
X71386703Y-144400572D01*
X71450853Y-144245700D01*
X71543985Y-144106319D01*
X71662519Y-143987785D01*
X71801900Y-143894653D01*
X71956772Y-143830503D01*
X72121184Y-143797800D01*
X72288816Y-143797800D01*
X72453228Y-143830503D01*
G37*
G36*
X64833228Y-143830503D02*
G01*
X64988100Y-143894653D01*
X65127481Y-143987785D01*
X65246015Y-144106319D01*
X65339147Y-144245700D01*
X65403297Y-144400572D01*
X65436000Y-144564984D01*
X65436000Y-144732616D01*
X65403297Y-144897028D01*
X65339147Y-145051900D01*
X65246015Y-145191281D01*
X65127481Y-145309815D01*
X64988100Y-145402947D01*
X64833228Y-145467097D01*
X64668816Y-145499800D01*
X64501184Y-145499800D01*
X64336772Y-145467097D01*
X64181900Y-145402947D01*
X64042519Y-145309815D01*
X63923985Y-145191281D01*
X63830853Y-145051900D01*
X63766703Y-144897028D01*
X63734000Y-144732616D01*
X63734000Y-144564984D01*
X63766703Y-144400572D01*
X63830853Y-144245700D01*
X63923985Y-144106319D01*
X64042519Y-143987785D01*
X64181900Y-143894653D01*
X64336772Y-143830503D01*
X64501184Y-143797800D01*
X64668816Y-143797800D01*
X64833228Y-143830503D01*
G37*
G36*
X39936228Y-143532503D02*
G01*
X40091100Y-143596653D01*
X40230481Y-143689785D01*
X40349015Y-143808319D01*
X40442147Y-143947700D01*
X40506297Y-144102572D01*
X40539000Y-144266984D01*
X40539000Y-144434616D01*
X40506297Y-144599028D01*
X40442147Y-144753900D01*
X40349015Y-144893281D01*
X40230481Y-145011815D01*
X40091100Y-145104947D01*
X39936228Y-145169097D01*
X39771816Y-145201800D01*
X39604184Y-145201800D01*
X39439772Y-145169097D01*
X39284900Y-145104947D01*
X39145519Y-145011815D01*
X39026985Y-144893281D01*
X38933853Y-144753900D01*
X38869703Y-144599028D01*
X38837000Y-144434616D01*
X38837000Y-144266984D01*
X38869703Y-144102572D01*
X38933853Y-143947700D01*
X39026985Y-143808319D01*
X39145519Y-143689785D01*
X39284900Y-143596653D01*
X39439772Y-143532503D01*
X39604184Y-143499800D01*
X39771816Y-143499800D01*
X39936228Y-143532503D01*
G37*
G36*
X55176228Y-143532503D02*
G01*
X55331100Y-143596653D01*
X55470481Y-143689785D01*
X55589015Y-143808319D01*
X55682147Y-143947700D01*
X55746297Y-144102572D01*
X55779000Y-144266984D01*
X55779000Y-144434616D01*
X55746297Y-144599028D01*
X55682147Y-144753900D01*
X55589015Y-144893281D01*
X55470481Y-145011815D01*
X55331100Y-145104947D01*
X55176228Y-145169097D01*
X55011816Y-145201800D01*
X54844184Y-145201800D01*
X54679772Y-145169097D01*
X54524900Y-145104947D01*
X54385519Y-145011815D01*
X54266985Y-144893281D01*
X54173853Y-144753900D01*
X54109703Y-144599028D01*
X54077000Y-144434616D01*
X54077000Y-144266984D01*
X54109703Y-144102572D01*
X54173853Y-143947700D01*
X54266985Y-143808319D01*
X54385519Y-143689785D01*
X54524900Y-143596653D01*
X54679772Y-143532503D01*
X54844184Y-143499800D01*
X55011816Y-143499800D01*
X55176228Y-143532503D01*
G37*
G36*
X106801112Y-141125366D02*
G01*
X106979917Y-141160933D01*
X107119448Y-141218729D01*
X107316776Y-141300464D01*
X107619943Y-141503034D01*
X107877766Y-141760857D01*
X108080336Y-142064024D01*
X108133600Y-142192615D01*
X108201702Y-142357028D01*
X108219867Y-142400884D01*
X108291000Y-142758491D01*
X108291000Y-143123109D01*
X108286927Y-143143584D01*
X108219867Y-143480717D01*
X108177427Y-143583176D01*
X108080336Y-143817576D01*
X107877766Y-144120743D01*
X107619943Y-144378566D01*
X107316776Y-144581136D01*
X107119448Y-144662871D01*
X106979917Y-144720667D01*
X106919850Y-144732615D01*
X106622309Y-144791800D01*
X106257691Y-144791800D01*
X105960150Y-144732615D01*
X105900083Y-144720667D01*
X105760552Y-144662871D01*
X105563224Y-144581136D01*
X105260057Y-144378566D01*
X105002234Y-144120743D01*
X104799664Y-143817576D01*
X104702573Y-143583176D01*
X104660133Y-143480717D01*
X104593073Y-143143584D01*
X104589000Y-143123109D01*
X104589000Y-142758491D01*
X104660133Y-142400884D01*
X104678299Y-142357028D01*
X104746400Y-142192615D01*
X104799664Y-142064024D01*
X105002234Y-141760857D01*
X105260057Y-141503034D01*
X105563224Y-141300464D01*
X105760552Y-141218729D01*
X105900083Y-141160933D01*
X106078888Y-141125366D01*
X106257691Y-141089800D01*
X106622309Y-141089800D01*
X106801112Y-141125366D01*
G37*
G36*
X87677797Y-141643138D02*
G01*
X87835040Y-141658625D01*
X88080280Y-141733018D01*
X88080282Y-141733019D01*
X88142799Y-141766435D01*
X88306294Y-141853825D01*
X88314515Y-141860572D01*
X88504397Y-142016403D01*
X88624624Y-142162901D01*
X88666975Y-142214506D01*
X88787782Y-142440520D01*
X88862175Y-142685760D01*
X88887294Y-142940800D01*
X88862175Y-143195840D01*
X88787782Y-143441080D01*
X88666975Y-143667094D01*
X88648353Y-143689785D01*
X88504397Y-143865197D01*
X88357899Y-143985424D01*
X88306294Y-144027775D01*
X88080280Y-144148582D01*
X87835040Y-144222975D01*
X87739473Y-144232387D01*
X87643906Y-144241800D01*
X85516094Y-144241800D01*
X85420527Y-144232387D01*
X85324960Y-144222975D01*
X85079720Y-144148582D01*
X84853706Y-144027775D01*
X84802101Y-143985424D01*
X84655603Y-143865197D01*
X84511647Y-143689785D01*
X84493025Y-143667094D01*
X84372218Y-143441080D01*
X84297825Y-143195840D01*
X84272706Y-142940800D01*
X84297825Y-142685760D01*
X84372218Y-142440520D01*
X84493025Y-142214506D01*
X84535376Y-142162901D01*
X84655603Y-142016403D01*
X84845485Y-141860572D01*
X84853706Y-141853825D01*
X85017201Y-141766435D01*
X85079718Y-141733019D01*
X85079720Y-141733018D01*
X85324960Y-141658625D01*
X85482203Y-141643138D01*
X85516094Y-141639800D01*
X87643906Y-141639800D01*
X87677797Y-141643138D01*
G37*
G36*
X28767512Y-141820727D02*
G01*
X28916812Y-141850424D01*
X29080784Y-141918344D01*
X29228354Y-142016947D01*
X29353853Y-142142446D01*
X29452456Y-142290016D01*
X29520376Y-142453988D01*
X29555000Y-142628059D01*
X29555000Y-142805541D01*
X29520376Y-142979612D01*
X29452456Y-143143584D01*
X29353853Y-143291154D01*
X29228354Y-143416653D01*
X29080784Y-143515256D01*
X28916812Y-143583176D01*
X28767512Y-143612873D01*
X28742742Y-143617800D01*
X28565258Y-143617800D01*
X28540488Y-143612873D01*
X28391188Y-143583176D01*
X28227216Y-143515256D01*
X28079646Y-143416653D01*
X27954147Y-143291154D01*
X27855544Y-143143584D01*
X27787624Y-142979612D01*
X27753000Y-142805541D01*
X27753000Y-142628059D01*
X27787624Y-142453988D01*
X27855544Y-142290016D01*
X27954147Y-142142446D01*
X28079646Y-142016947D01*
X28227216Y-141918344D01*
X28391188Y-141850424D01*
X28540488Y-141820727D01*
X28565258Y-141815800D01*
X28742742Y-141815800D01*
X28767512Y-141820727D01*
G37*
G36*
X72453228Y-141290503D02*
G01*
X72608100Y-141354653D01*
X72747481Y-141447785D01*
X72866015Y-141566319D01*
X72959147Y-141705700D01*
X73023297Y-141860572D01*
X73056000Y-142024984D01*
X73056000Y-142192616D01*
X73023297Y-142357028D01*
X72959147Y-142511900D01*
X72866015Y-142651281D01*
X72747481Y-142769815D01*
X72608100Y-142862947D01*
X72453228Y-142927097D01*
X72288816Y-142959800D01*
X72121184Y-142959800D01*
X71956772Y-142927097D01*
X71801900Y-142862947D01*
X71662519Y-142769815D01*
X71543985Y-142651281D01*
X71450853Y-142511900D01*
X71386703Y-142357028D01*
X71354000Y-142192616D01*
X71354000Y-142024984D01*
X71386703Y-141860572D01*
X71450853Y-141705700D01*
X71543985Y-141566319D01*
X71662519Y-141447785D01*
X71801900Y-141354653D01*
X71956772Y-141290503D01*
X72121184Y-141257800D01*
X72288816Y-141257800D01*
X72453228Y-141290503D01*
G37*
G36*
X64833228Y-141290503D02*
G01*
X64988100Y-141354653D01*
X65127481Y-141447785D01*
X65246015Y-141566319D01*
X65339147Y-141705700D01*
X65403297Y-141860572D01*
X65436000Y-142024984D01*
X65436000Y-142192616D01*
X65403297Y-142357028D01*
X65339147Y-142511900D01*
X65246015Y-142651281D01*
X65127481Y-142769815D01*
X64988100Y-142862947D01*
X64833228Y-142927097D01*
X64668816Y-142959800D01*
X64501184Y-142959800D01*
X64336772Y-142927097D01*
X64181900Y-142862947D01*
X64042519Y-142769815D01*
X63923985Y-142651281D01*
X63830853Y-142511900D01*
X63766703Y-142357028D01*
X63734000Y-142192616D01*
X63734000Y-142024984D01*
X63766703Y-141860572D01*
X63830853Y-141705700D01*
X63923985Y-141566319D01*
X64042519Y-141447785D01*
X64181900Y-141354653D01*
X64336772Y-141290503D01*
X64501184Y-141257800D01*
X64668816Y-141257800D01*
X64833228Y-141290503D01*
G37*
G36*
X55176228Y-140992503D02*
G01*
X55331100Y-141056653D01*
X55470481Y-141149785D01*
X55589015Y-141268319D01*
X55682147Y-141407700D01*
X55746297Y-141562572D01*
X55779000Y-141726984D01*
X55779000Y-141894616D01*
X55746297Y-142059028D01*
X55682147Y-142213900D01*
X55589015Y-142353281D01*
X55470481Y-142471815D01*
X55331100Y-142564947D01*
X55176228Y-142629097D01*
X55011816Y-142661800D01*
X54844184Y-142661800D01*
X54679772Y-142629097D01*
X54524900Y-142564947D01*
X54385519Y-142471815D01*
X54266985Y-142353281D01*
X54173853Y-142213900D01*
X54109703Y-142059028D01*
X54077000Y-141894616D01*
X54077000Y-141726984D01*
X54109703Y-141562572D01*
X54173853Y-141407700D01*
X54266985Y-141268319D01*
X54385519Y-141149785D01*
X54524900Y-141056653D01*
X54679772Y-140992503D01*
X54844184Y-140959800D01*
X55011816Y-140959800D01*
X55176228Y-140992503D01*
G37*
G36*
X39936228Y-140992503D02*
G01*
X40091100Y-141056653D01*
X40230481Y-141149785D01*
X40349015Y-141268319D01*
X40442147Y-141407700D01*
X40506297Y-141562572D01*
X40539000Y-141726984D01*
X40539000Y-141894616D01*
X40506297Y-142059028D01*
X40442147Y-142213900D01*
X40349015Y-142353281D01*
X40230481Y-142471815D01*
X40091100Y-142564947D01*
X39936228Y-142629097D01*
X39771816Y-142661800D01*
X39604184Y-142661800D01*
X39439772Y-142629097D01*
X39284900Y-142564947D01*
X39145519Y-142471815D01*
X39026985Y-142353281D01*
X38933853Y-142213900D01*
X38869703Y-142059028D01*
X38837000Y-141894616D01*
X38837000Y-141726984D01*
X38869703Y-141562572D01*
X38933853Y-141407700D01*
X39026985Y-141268319D01*
X39145519Y-141149785D01*
X39284900Y-141056653D01*
X39439772Y-140992503D01*
X39604184Y-140959800D01*
X39771816Y-140959800D01*
X39936228Y-140992503D01*
G37*
G36*
X75583468Y-140698565D02*
G01*
X75622138Y-140710296D01*
X75657777Y-140729346D01*
X75689017Y-140754983D01*
X75714654Y-140786223D01*
X75733704Y-140821862D01*
X75745435Y-140860532D01*
X75750000Y-140906888D01*
X75750000Y-141558112D01*
X75745435Y-141604468D01*
X75733704Y-141643138D01*
X75714654Y-141678777D01*
X75689017Y-141710017D01*
X75657777Y-141735654D01*
X75622138Y-141754704D01*
X75583468Y-141766435D01*
X75537112Y-141771000D01*
X74460888Y-141771000D01*
X74414532Y-141766435D01*
X74375862Y-141754704D01*
X74340223Y-141735654D01*
X74308983Y-141710017D01*
X74283346Y-141678777D01*
X74264296Y-141643138D01*
X74252565Y-141604468D01*
X74248000Y-141558112D01*
X74248000Y-140906888D01*
X74252565Y-140860532D01*
X74264296Y-140821862D01*
X74283346Y-140786223D01*
X74308983Y-140754983D01*
X74340223Y-140729346D01*
X74375862Y-140710296D01*
X74414532Y-140698565D01*
X74460888Y-140694000D01*
X75537112Y-140694000D01*
X75583468Y-140698565D01*
G37*
G36*
X29555000Y-141077800D02*
G01*
X27753000Y-141077800D01*
X27753000Y-139275800D01*
X29555000Y-139275800D01*
X29555000Y-141077800D01*
G37*
G36*
X64833228Y-138750503D02*
G01*
X64988100Y-138814653D01*
X65127481Y-138907785D01*
X65246015Y-139026319D01*
X65339147Y-139165700D01*
X65403297Y-139320572D01*
X65436000Y-139484984D01*
X65436000Y-139652616D01*
X65403297Y-139817028D01*
X65339147Y-139971900D01*
X65246015Y-140111281D01*
X65127481Y-140229815D01*
X64988100Y-140322947D01*
X64833228Y-140387097D01*
X64668816Y-140419800D01*
X64501184Y-140419800D01*
X64336772Y-140387097D01*
X64181900Y-140322947D01*
X64042519Y-140229815D01*
X63923985Y-140111281D01*
X63830853Y-139971900D01*
X63766703Y-139817028D01*
X63734000Y-139652616D01*
X63734000Y-139484984D01*
X63766703Y-139320572D01*
X63830853Y-139165700D01*
X63923985Y-139026319D01*
X64042519Y-138907785D01*
X64181900Y-138814653D01*
X64336772Y-138750503D01*
X64501184Y-138717800D01*
X64668816Y-138717800D01*
X64833228Y-138750503D01*
G37*
G36*
X72453228Y-138750503D02*
G01*
X72608100Y-138814653D01*
X72747481Y-138907785D01*
X72866015Y-139026319D01*
X72959147Y-139165700D01*
X73023297Y-139320572D01*
X73056000Y-139484984D01*
X73056000Y-139652616D01*
X73023297Y-139817028D01*
X72959147Y-139971900D01*
X72866015Y-140111281D01*
X72747481Y-140229815D01*
X72608100Y-140322947D01*
X72453228Y-140387097D01*
X72288816Y-140419800D01*
X72121184Y-140419800D01*
X71956772Y-140387097D01*
X71801900Y-140322947D01*
X71662519Y-140229815D01*
X71543985Y-140111281D01*
X71450853Y-139971900D01*
X71386703Y-139817028D01*
X71354000Y-139652616D01*
X71354000Y-139484984D01*
X71386703Y-139320572D01*
X71450853Y-139165700D01*
X71543985Y-139026319D01*
X71662519Y-138907785D01*
X71801900Y-138814653D01*
X71956772Y-138750503D01*
X72121184Y-138717800D01*
X72288816Y-138717800D01*
X72453228Y-138750503D01*
G37*
G36*
X55176228Y-138452503D02*
G01*
X55331100Y-138516653D01*
X55470481Y-138609785D01*
X55589015Y-138728319D01*
X55682147Y-138867700D01*
X55746297Y-139022572D01*
X55779000Y-139186984D01*
X55779000Y-139354616D01*
X55746297Y-139519028D01*
X55682147Y-139673900D01*
X55589015Y-139813281D01*
X55470481Y-139931815D01*
X55331100Y-140024947D01*
X55176228Y-140089097D01*
X55011816Y-140121800D01*
X54844184Y-140121800D01*
X54679772Y-140089097D01*
X54524900Y-140024947D01*
X54385519Y-139931815D01*
X54266985Y-139813281D01*
X54173853Y-139673900D01*
X54109703Y-139519028D01*
X54077000Y-139354616D01*
X54077000Y-139186984D01*
X54109703Y-139022572D01*
X54173853Y-138867700D01*
X54266985Y-138728319D01*
X54385519Y-138609785D01*
X54524900Y-138516653D01*
X54679772Y-138452503D01*
X54844184Y-138419800D01*
X55011816Y-138419800D01*
X55176228Y-138452503D01*
G37*
G36*
X39936228Y-138452503D02*
G01*
X40091100Y-138516653D01*
X40230481Y-138609785D01*
X40349015Y-138728319D01*
X40442147Y-138867700D01*
X40506297Y-139022572D01*
X40539000Y-139186984D01*
X40539000Y-139354616D01*
X40506297Y-139519028D01*
X40442147Y-139673900D01*
X40349015Y-139813281D01*
X40230481Y-139931815D01*
X40091100Y-140024947D01*
X39936228Y-140089097D01*
X39771816Y-140121800D01*
X39604184Y-140121800D01*
X39439772Y-140089097D01*
X39284900Y-140024947D01*
X39145519Y-139931815D01*
X39026985Y-139813281D01*
X38933853Y-139673900D01*
X38869703Y-139519028D01*
X38837000Y-139354616D01*
X38837000Y-139186984D01*
X38869703Y-139022572D01*
X38933853Y-138867700D01*
X39026985Y-138728319D01*
X39145519Y-138609785D01*
X39284900Y-138516653D01*
X39439772Y-138452503D01*
X39604184Y-138419800D01*
X39771816Y-138419800D01*
X39936228Y-138452503D01*
G37*
G36*
X75583468Y-138823565D02*
G01*
X75622138Y-138835296D01*
X75657777Y-138854346D01*
X75689017Y-138879983D01*
X75714654Y-138911223D01*
X75733704Y-138946862D01*
X75745435Y-138985532D01*
X75750000Y-139031888D01*
X75750000Y-139683112D01*
X75745435Y-139729468D01*
X75733704Y-139768138D01*
X75714654Y-139803777D01*
X75689017Y-139835017D01*
X75657777Y-139860654D01*
X75622138Y-139879704D01*
X75583468Y-139891435D01*
X75537112Y-139896000D01*
X74460888Y-139896000D01*
X74414532Y-139891435D01*
X74375862Y-139879704D01*
X74340223Y-139860654D01*
X74308983Y-139835017D01*
X74283346Y-139803777D01*
X74264296Y-139768138D01*
X74252565Y-139729468D01*
X74248000Y-139683112D01*
X74248000Y-139031888D01*
X74252565Y-138985532D01*
X74264296Y-138946862D01*
X74283346Y-138911223D01*
X74308983Y-138879983D01*
X74340223Y-138854346D01*
X74375862Y-138835296D01*
X74414532Y-138823565D01*
X74460888Y-138819000D01*
X75537112Y-138819000D01*
X75583468Y-138823565D01*
G37*
G36*
X83801000Y-138791800D02*
G01*
X79199000Y-138791800D01*
X79199000Y-136189800D01*
X83801000Y-136189800D01*
X83801000Y-138791800D01*
G37*
G36*
X72453228Y-136210503D02*
G01*
X72608100Y-136274653D01*
X72747481Y-136367785D01*
X72866015Y-136486319D01*
X72959147Y-136625700D01*
X73023297Y-136780572D01*
X73056000Y-136944984D01*
X73056000Y-137112616D01*
X73023297Y-137277028D01*
X72959147Y-137431900D01*
X72866015Y-137571281D01*
X72747481Y-137689815D01*
X72608100Y-137782947D01*
X72453228Y-137847097D01*
X72288816Y-137879800D01*
X72121184Y-137879800D01*
X71956772Y-137847097D01*
X71801900Y-137782947D01*
X71662519Y-137689815D01*
X71543985Y-137571281D01*
X71450853Y-137431900D01*
X71386703Y-137277028D01*
X71354000Y-137112616D01*
X71354000Y-136944984D01*
X71386703Y-136780572D01*
X71450853Y-136625700D01*
X71543985Y-136486319D01*
X71662519Y-136367785D01*
X71801900Y-136274653D01*
X71956772Y-136210503D01*
X72121184Y-136177800D01*
X72288816Y-136177800D01*
X72453228Y-136210503D01*
G37*
G36*
X65436000Y-137879800D02*
G01*
X63734000Y-137879800D01*
X63734000Y-136177800D01*
X65436000Y-136177800D01*
X65436000Y-137879800D01*
G37*
G36*
X15917395Y-135746346D02*
G01*
X16090466Y-135818034D01*
X16090467Y-135818035D01*
X16246227Y-135922110D01*
X16378690Y-136054573D01*
X16378691Y-136054575D01*
X16482766Y-136210334D01*
X16554454Y-136383405D01*
X16591000Y-136567133D01*
X16591000Y-136754467D01*
X16554454Y-136938195D01*
X16482766Y-137111266D01*
X16481864Y-137112616D01*
X16378690Y-137267027D01*
X16246227Y-137399490D01*
X16197726Y-137431897D01*
X16090466Y-137503566D01*
X15917395Y-137575254D01*
X15733667Y-137611800D01*
X15546333Y-137611800D01*
X15362605Y-137575254D01*
X15189534Y-137503566D01*
X15082274Y-137431897D01*
X15033773Y-137399490D01*
X14901310Y-137267027D01*
X14798136Y-137112616D01*
X14797234Y-137111266D01*
X14725546Y-136938195D01*
X14689000Y-136754467D01*
X14689000Y-136567133D01*
X14725546Y-136383405D01*
X14797234Y-136210334D01*
X14901309Y-136054575D01*
X14901310Y-136054573D01*
X15033773Y-135922110D01*
X15189533Y-135818035D01*
X15189534Y-135818034D01*
X15362605Y-135746346D01*
X15546333Y-135709800D01*
X15733667Y-135709800D01*
X15917395Y-135746346D01*
G37*
G36*
X39936228Y-135912503D02*
G01*
X40091100Y-135976653D01*
X40230481Y-136069785D01*
X40349015Y-136188319D01*
X40442147Y-136327700D01*
X40506297Y-136482572D01*
X40539000Y-136646984D01*
X40539000Y-136814616D01*
X40506297Y-136979028D01*
X40442147Y-137133900D01*
X40349015Y-137273281D01*
X40230481Y-137391815D01*
X40091100Y-137484947D01*
X39936228Y-137549097D01*
X39771816Y-137581800D01*
X39604184Y-137581800D01*
X39439772Y-137549097D01*
X39284900Y-137484947D01*
X39145519Y-137391815D01*
X39026985Y-137273281D01*
X38933853Y-137133900D01*
X38869703Y-136979028D01*
X38837000Y-136814616D01*
X38837000Y-136646984D01*
X38869703Y-136482572D01*
X38933853Y-136327700D01*
X39026985Y-136188319D01*
X39145519Y-136069785D01*
X39284900Y-135976653D01*
X39439772Y-135912503D01*
X39604184Y-135879800D01*
X39771816Y-135879800D01*
X39936228Y-135912503D01*
G37*
G36*
X55176228Y-135912503D02*
G01*
X55331100Y-135976653D01*
X55470481Y-136069785D01*
X55589015Y-136188319D01*
X55682147Y-136327700D01*
X55746297Y-136482572D01*
X55779000Y-136646984D01*
X55779000Y-136814616D01*
X55746297Y-136979028D01*
X55682147Y-137133900D01*
X55589015Y-137273281D01*
X55470481Y-137391815D01*
X55331100Y-137484947D01*
X55176228Y-137549097D01*
X55011816Y-137581800D01*
X54844184Y-137581800D01*
X54679772Y-137549097D01*
X54524900Y-137484947D01*
X54385519Y-137391815D01*
X54266985Y-137273281D01*
X54173853Y-137133900D01*
X54109703Y-136979028D01*
X54077000Y-136814616D01*
X54077000Y-136646984D01*
X54109703Y-136482572D01*
X54173853Y-136327700D01*
X54266985Y-136188319D01*
X54385519Y-136069785D01*
X54524900Y-135976653D01*
X54679772Y-135912503D01*
X54844184Y-135879800D01*
X55011816Y-135879800D01*
X55176228Y-135912503D01*
G37*
G36*
X16591000Y-135071800D02*
G01*
X14689000Y-135071800D01*
X14689000Y-133169800D01*
X16591000Y-133169800D01*
X16591000Y-135071800D01*
G37*
G36*
X55176228Y-133372503D02*
G01*
X55331100Y-133436653D01*
X55470481Y-133529785D01*
X55589015Y-133648319D01*
X55682147Y-133787700D01*
X55746297Y-133942572D01*
X55779000Y-134106984D01*
X55779000Y-134274616D01*
X55746297Y-134439028D01*
X55682147Y-134593900D01*
X55589015Y-134733281D01*
X55470481Y-134851815D01*
X55331100Y-134944947D01*
X55176228Y-135009097D01*
X55011816Y-135041800D01*
X54844184Y-135041800D01*
X54679772Y-135009097D01*
X54524900Y-134944947D01*
X54385519Y-134851815D01*
X54266985Y-134733281D01*
X54173853Y-134593900D01*
X54109703Y-134439028D01*
X54077000Y-134274616D01*
X54077000Y-134106984D01*
X54109703Y-133942572D01*
X54173853Y-133787700D01*
X54266985Y-133648319D01*
X54385519Y-133529785D01*
X54524900Y-133436653D01*
X54679772Y-133372503D01*
X54844184Y-133339800D01*
X55011816Y-133339800D01*
X55176228Y-133372503D01*
G37*
G36*
X39936228Y-133372503D02*
G01*
X40091100Y-133436653D01*
X40230481Y-133529785D01*
X40349015Y-133648319D01*
X40442147Y-133787700D01*
X40506297Y-133942572D01*
X40539000Y-134106984D01*
X40539000Y-134274616D01*
X40506297Y-134439028D01*
X40442147Y-134593900D01*
X40349015Y-134733281D01*
X40230481Y-134851815D01*
X40091100Y-134944947D01*
X39936228Y-135009097D01*
X39771816Y-135041800D01*
X39604184Y-135041800D01*
X39439772Y-135009097D01*
X39284900Y-134944947D01*
X39145519Y-134851815D01*
X39026985Y-134733281D01*
X38933853Y-134593900D01*
X38869703Y-134439028D01*
X38837000Y-134274616D01*
X38837000Y-134106984D01*
X38869703Y-133942572D01*
X38933853Y-133787700D01*
X39026985Y-133648319D01*
X39145519Y-133529785D01*
X39284900Y-133436653D01*
X39439772Y-133372503D01*
X39604184Y-133339800D01*
X39771816Y-133339800D01*
X39936228Y-133372503D01*
G37*
G36*
X55176228Y-130832503D02*
G01*
X55331100Y-130896653D01*
X55470481Y-130989785D01*
X55589015Y-131108319D01*
X55682147Y-131247700D01*
X55746297Y-131402572D01*
X55779000Y-131566984D01*
X55779000Y-131734616D01*
X55746297Y-131899028D01*
X55682147Y-132053900D01*
X55589015Y-132193281D01*
X55470481Y-132311815D01*
X55331100Y-132404947D01*
X55176228Y-132469097D01*
X55011816Y-132501800D01*
X54844184Y-132501800D01*
X54679772Y-132469097D01*
X54524900Y-132404947D01*
X54385519Y-132311815D01*
X54266985Y-132193281D01*
X54173853Y-132053900D01*
X54109703Y-131899028D01*
X54077000Y-131734616D01*
X54077000Y-131566984D01*
X54109703Y-131402572D01*
X54173853Y-131247700D01*
X54266985Y-131108319D01*
X54385519Y-130989785D01*
X54524900Y-130896653D01*
X54679772Y-130832503D01*
X54844184Y-130799800D01*
X55011816Y-130799800D01*
X55176228Y-130832503D01*
G37*
G36*
X39936228Y-130832503D02*
G01*
X40091100Y-130896653D01*
X40230481Y-130989785D01*
X40349015Y-131108319D01*
X40442147Y-131247700D01*
X40506297Y-131402572D01*
X40539000Y-131566984D01*
X40539000Y-131734616D01*
X40506297Y-131899028D01*
X40442147Y-132053900D01*
X40349015Y-132193281D01*
X40230481Y-132311815D01*
X40091100Y-132404947D01*
X39936228Y-132469097D01*
X39771816Y-132501800D01*
X39604184Y-132501800D01*
X39439772Y-132469097D01*
X39284900Y-132404947D01*
X39145519Y-132311815D01*
X39026985Y-132193281D01*
X38933853Y-132053900D01*
X38869703Y-131899028D01*
X38837000Y-131734616D01*
X38837000Y-131566984D01*
X38869703Y-131402572D01*
X38933853Y-131247700D01*
X39026985Y-131108319D01*
X39145519Y-130989785D01*
X39284900Y-130896653D01*
X39439772Y-130832503D01*
X39604184Y-130799800D01*
X39771816Y-130799800D01*
X39936228Y-130832503D01*
G37*
G36*
X48533473Y-129892738D02*
G01*
X48661049Y-129945582D01*
X48775859Y-130022295D01*
X48873505Y-130119941D01*
X48950218Y-130234751D01*
X49003062Y-130362327D01*
X49030000Y-130497756D01*
X49030000Y-130635844D01*
X49003062Y-130771273D01*
X48950218Y-130898849D01*
X48873505Y-131013659D01*
X48775859Y-131111305D01*
X48661049Y-131188018D01*
X48533473Y-131240862D01*
X48398044Y-131267800D01*
X48259956Y-131267800D01*
X48124527Y-131240862D01*
X47996951Y-131188018D01*
X47882141Y-131111305D01*
X47784495Y-131013659D01*
X47707782Y-130898849D01*
X47654938Y-130771273D01*
X47628000Y-130635844D01*
X47628000Y-130497756D01*
X47654938Y-130362327D01*
X47707782Y-130234751D01*
X47784495Y-130119941D01*
X47882141Y-130022295D01*
X47996951Y-129945582D01*
X48124527Y-129892738D01*
X48259956Y-129865800D01*
X48398044Y-129865800D01*
X48533473Y-129892738D01*
G37*
G36*
X79924000Y-130674800D02*
G01*
X71822000Y-130674800D01*
X71822000Y-122572800D01*
X79924000Y-122572800D01*
X79924000Y-130674800D01*
G37*
G36*
X49030000Y-128727800D02*
G01*
X47755749Y-128727800D01*
X47731363Y-128730202D01*
X47707914Y-128737315D01*
X47686303Y-128748866D01*
X47667361Y-128764411D01*
X47651816Y-128783353D01*
X47640265Y-128804964D01*
X47633152Y-128828413D01*
X47630750Y-128852799D01*
X47633152Y-128877185D01*
X47640265Y-128900634D01*
X47651816Y-128922244D01*
X47680218Y-128964751D01*
X47733062Y-129092327D01*
X47760000Y-129227756D01*
X47760000Y-129365844D01*
X47733062Y-129501273D01*
X47680218Y-129628849D01*
X47603505Y-129743659D01*
X47505859Y-129841305D01*
X47391049Y-129918018D01*
X47263473Y-129970862D01*
X47128044Y-129997800D01*
X46989956Y-129997800D01*
X46854527Y-129970862D01*
X46726951Y-129918018D01*
X46612141Y-129841305D01*
X46514495Y-129743659D01*
X46437782Y-129628849D01*
X46384938Y-129501273D01*
X46358000Y-129365844D01*
X46358000Y-129227756D01*
X46384938Y-129092327D01*
X46437782Y-128964751D01*
X46514495Y-128849941D01*
X46612141Y-128752295D01*
X46726951Y-128675582D01*
X46854527Y-128622738D01*
X46989956Y-128595800D01*
X47128044Y-128595800D01*
X47263473Y-128622738D01*
X47391049Y-128675582D01*
X47433556Y-128703984D01*
X47455167Y-128715535D01*
X47478616Y-128722648D01*
X47503002Y-128725050D01*
X47527388Y-128722648D01*
X47550837Y-128715535D01*
X47572447Y-128703983D01*
X47591389Y-128688438D01*
X47606934Y-128669496D01*
X47618485Y-128647885D01*
X47625598Y-128624436D01*
X47628000Y-128600051D01*
X47628000Y-127325800D01*
X49030000Y-127325800D01*
X49030000Y-128727800D01*
G37*
G36*
X55176228Y-128292503D02*
G01*
X55331100Y-128356653D01*
X55470481Y-128449785D01*
X55589015Y-128568319D01*
X55682147Y-128707700D01*
X55746297Y-128862572D01*
X55779000Y-129026984D01*
X55779000Y-129194616D01*
X55746297Y-129359028D01*
X55682147Y-129513900D01*
X55589015Y-129653281D01*
X55470481Y-129771815D01*
X55331100Y-129864947D01*
X55176228Y-129929097D01*
X55011816Y-129961800D01*
X54844184Y-129961800D01*
X54679772Y-129929097D01*
X54524900Y-129864947D01*
X54385519Y-129771815D01*
X54266985Y-129653281D01*
X54173853Y-129513900D01*
X54109703Y-129359028D01*
X54077000Y-129194616D01*
X54077000Y-129026984D01*
X54109703Y-128862572D01*
X54173853Y-128707700D01*
X54266985Y-128568319D01*
X54385519Y-128449785D01*
X54524900Y-128356653D01*
X54679772Y-128292503D01*
X54844184Y-128259800D01*
X55011816Y-128259800D01*
X55176228Y-128292503D01*
G37*
G36*
X39936228Y-128292503D02*
G01*
X40091100Y-128356653D01*
X40230481Y-128449785D01*
X40349015Y-128568319D01*
X40442147Y-128707700D01*
X40506297Y-128862572D01*
X40539000Y-129026984D01*
X40539000Y-129194616D01*
X40506297Y-129359028D01*
X40442147Y-129513900D01*
X40349015Y-129653281D01*
X40230481Y-129771815D01*
X40091100Y-129864947D01*
X39936228Y-129929097D01*
X39771816Y-129961800D01*
X39604184Y-129961800D01*
X39439772Y-129929097D01*
X39284900Y-129864947D01*
X39145519Y-129771815D01*
X39026985Y-129653281D01*
X38933853Y-129513900D01*
X38869703Y-129359028D01*
X38837000Y-129194616D01*
X38837000Y-129026984D01*
X38869703Y-128862572D01*
X38933853Y-128707700D01*
X39026985Y-128568319D01*
X39145519Y-128449785D01*
X39284900Y-128356653D01*
X39439772Y-128292503D01*
X39604184Y-128259800D01*
X39771816Y-128259800D01*
X39936228Y-128292503D01*
G37*
G36*
X53013268Y-126940365D02*
G01*
X53051938Y-126952096D01*
X53087577Y-126971146D01*
X53118817Y-126996783D01*
X53144454Y-127028023D01*
X53163504Y-127063662D01*
X53175235Y-127102332D01*
X53179800Y-127148688D01*
X53179800Y-127799912D01*
X53175235Y-127846268D01*
X53163504Y-127884938D01*
X53144454Y-127920577D01*
X53118817Y-127951817D01*
X53087577Y-127977454D01*
X53051938Y-127996504D01*
X53013268Y-128008235D01*
X52966912Y-128012800D01*
X51890688Y-128012800D01*
X51844332Y-128008235D01*
X51805662Y-127996504D01*
X51770023Y-127977454D01*
X51738783Y-127951817D01*
X51713146Y-127920577D01*
X51694096Y-127884938D01*
X51682365Y-127846268D01*
X51677800Y-127799912D01*
X51677800Y-127148688D01*
X51682365Y-127102332D01*
X51694096Y-127063662D01*
X51713146Y-127028023D01*
X51738783Y-126996783D01*
X51770023Y-126971146D01*
X51805662Y-126952096D01*
X51844332Y-126940365D01*
X51890688Y-126935800D01*
X52966912Y-126935800D01*
X53013268Y-126940365D01*
G37*
G36*
X55176228Y-125752503D02*
G01*
X55331100Y-125816653D01*
X55470481Y-125909785D01*
X55589015Y-126028319D01*
X55682147Y-126167700D01*
X55746297Y-126322572D01*
X55779000Y-126486984D01*
X55779000Y-126654616D01*
X55746297Y-126819028D01*
X55682147Y-126973900D01*
X55589015Y-127113281D01*
X55470481Y-127231815D01*
X55331100Y-127324947D01*
X55176228Y-127389097D01*
X55011816Y-127421800D01*
X54844184Y-127421800D01*
X54679772Y-127389097D01*
X54524900Y-127324947D01*
X54385519Y-127231815D01*
X54266985Y-127113281D01*
X54173853Y-126973900D01*
X54109703Y-126819028D01*
X54077000Y-126654616D01*
X54077000Y-126486984D01*
X54109703Y-126322572D01*
X54173853Y-126167700D01*
X54266985Y-126028319D01*
X54385519Y-125909785D01*
X54524900Y-125816653D01*
X54679772Y-125752503D01*
X54844184Y-125719800D01*
X55011816Y-125719800D01*
X55176228Y-125752503D01*
G37*
G36*
X39936228Y-125752503D02*
G01*
X40091100Y-125816653D01*
X40230481Y-125909785D01*
X40349015Y-126028319D01*
X40442147Y-126167700D01*
X40506297Y-126322572D01*
X40539000Y-126486984D01*
X40539000Y-126654616D01*
X40506297Y-126819028D01*
X40442147Y-126973900D01*
X40349015Y-127113281D01*
X40230481Y-127231815D01*
X40091100Y-127324947D01*
X39936228Y-127389097D01*
X39771816Y-127421800D01*
X39604184Y-127421800D01*
X39439772Y-127389097D01*
X39284900Y-127324947D01*
X39145519Y-127231815D01*
X39026985Y-127113281D01*
X38933853Y-126973900D01*
X38869703Y-126819028D01*
X38837000Y-126654616D01*
X38837000Y-126486984D01*
X38869703Y-126322572D01*
X38933853Y-126167700D01*
X39026985Y-126028319D01*
X39145519Y-125909785D01*
X39284900Y-125816653D01*
X39439772Y-125752503D01*
X39604184Y-125719800D01*
X39771816Y-125719800D01*
X39936228Y-125752503D01*
G37*
G36*
X15242590Y-125096146D02*
G01*
X15394812Y-125126424D01*
X15558784Y-125194344D01*
X15706354Y-125292947D01*
X15831853Y-125418446D01*
X15930456Y-125566016D01*
X15998376Y-125729988D01*
X16015614Y-125816652D01*
X16033000Y-125904058D01*
X16033000Y-126081542D01*
X16028840Y-126102454D01*
X15998376Y-126255612D01*
X15930456Y-126419584D01*
X15831853Y-126567154D01*
X15706354Y-126692653D01*
X15558784Y-126791256D01*
X15394812Y-126859176D01*
X15245512Y-126888873D01*
X15220742Y-126893800D01*
X15043258Y-126893800D01*
X15018488Y-126888873D01*
X14869188Y-126859176D01*
X14705216Y-126791256D01*
X14557646Y-126692653D01*
X14432147Y-126567154D01*
X14333544Y-126419584D01*
X14265624Y-126255612D01*
X14235160Y-126102454D01*
X14231000Y-126081542D01*
X14231000Y-125904058D01*
X14248386Y-125816652D01*
X14265624Y-125729988D01*
X14333544Y-125566016D01*
X14432147Y-125418446D01*
X14557646Y-125292947D01*
X14705216Y-125194344D01*
X14869188Y-125126424D01*
X15021410Y-125096146D01*
X15043258Y-125091800D01*
X15220742Y-125091800D01*
X15242590Y-125096146D01*
G37*
G36*
X53013268Y-125065365D02*
G01*
X53051938Y-125077096D01*
X53087577Y-125096146D01*
X53118817Y-125121783D01*
X53144454Y-125153023D01*
X53163504Y-125188662D01*
X53175235Y-125227332D01*
X53179800Y-125273688D01*
X53179800Y-125924912D01*
X53175235Y-125971268D01*
X53163504Y-126009938D01*
X53144454Y-126045577D01*
X53118817Y-126076817D01*
X53087577Y-126102454D01*
X53051938Y-126121504D01*
X53013268Y-126133235D01*
X52966912Y-126137800D01*
X51890688Y-126137800D01*
X51844332Y-126133235D01*
X51805662Y-126121504D01*
X51770023Y-126102454D01*
X51738783Y-126076817D01*
X51713146Y-126045577D01*
X51694096Y-126009938D01*
X51682365Y-125971268D01*
X51677800Y-125924912D01*
X51677800Y-125273688D01*
X51682365Y-125227332D01*
X51694096Y-125188662D01*
X51713146Y-125153023D01*
X51738783Y-125121783D01*
X51770023Y-125096146D01*
X51805662Y-125077096D01*
X51844332Y-125065365D01*
X51890688Y-125060800D01*
X52966912Y-125060800D01*
X53013268Y-125065365D01*
G37*
G36*
X87659472Y-123199212D02*
G01*
X87755040Y-123208625D01*
X88000280Y-123283018D01*
X88226294Y-123403825D01*
X88277899Y-123446176D01*
X88424397Y-123566403D01*
X88544624Y-123712901D01*
X88586975Y-123764506D01*
X88707782Y-123990520D01*
X88782175Y-124235760D01*
X88807294Y-124490800D01*
X88782175Y-124745840D01*
X88740932Y-124881800D01*
X88707781Y-124991082D01*
X88659561Y-125081295D01*
X88586975Y-125217094D01*
X88544624Y-125268699D01*
X88424397Y-125415197D01*
X88277899Y-125535424D01*
X88226294Y-125577775D01*
X88000280Y-125698582D01*
X87755040Y-125772975D01*
X87659472Y-125782388D01*
X87563906Y-125791800D01*
X85436094Y-125791800D01*
X85340528Y-125782388D01*
X85244960Y-125772975D01*
X84999720Y-125698582D01*
X84773706Y-125577775D01*
X84722101Y-125535424D01*
X84575603Y-125415197D01*
X84455376Y-125268699D01*
X84413025Y-125217094D01*
X84340439Y-125081295D01*
X84292219Y-124991082D01*
X84259069Y-124881800D01*
X84217825Y-124745840D01*
X84192706Y-124490800D01*
X84217825Y-124235760D01*
X84292218Y-123990520D01*
X84413025Y-123764506D01*
X84455376Y-123712901D01*
X84575603Y-123566403D01*
X84722101Y-123446176D01*
X84773706Y-123403825D01*
X84999720Y-123283018D01*
X85244960Y-123208625D01*
X85340528Y-123199212D01*
X85436094Y-123189800D01*
X87563906Y-123189800D01*
X87659472Y-123199212D01*
G37*
G36*
X55176228Y-123212503D02*
G01*
X55331100Y-123276653D01*
X55470481Y-123369785D01*
X55589015Y-123488319D01*
X55682147Y-123627700D01*
X55746297Y-123782572D01*
X55779000Y-123946984D01*
X55779000Y-124114616D01*
X55746297Y-124279028D01*
X55682147Y-124433900D01*
X55589015Y-124573281D01*
X55470481Y-124691815D01*
X55331100Y-124784947D01*
X55176228Y-124849097D01*
X55011816Y-124881800D01*
X54844184Y-124881800D01*
X54679772Y-124849097D01*
X54524900Y-124784947D01*
X54385519Y-124691815D01*
X54266985Y-124573281D01*
X54173853Y-124433900D01*
X54109703Y-124279028D01*
X54077000Y-124114616D01*
X54077000Y-123946984D01*
X54109703Y-123782572D01*
X54173853Y-123627700D01*
X54266985Y-123488319D01*
X54385519Y-123369785D01*
X54524900Y-123276653D01*
X54679772Y-123212503D01*
X54844184Y-123179800D01*
X55011816Y-123179800D01*
X55176228Y-123212503D01*
G37*
G36*
X39936228Y-123212503D02*
G01*
X40091100Y-123276653D01*
X40230481Y-123369785D01*
X40349015Y-123488319D01*
X40442147Y-123627700D01*
X40506297Y-123782572D01*
X40539000Y-123946984D01*
X40539000Y-124114616D01*
X40506297Y-124279028D01*
X40442147Y-124433900D01*
X40349015Y-124573281D01*
X40230481Y-124691815D01*
X40091100Y-124784947D01*
X39936228Y-124849097D01*
X39771816Y-124881800D01*
X39604184Y-124881800D01*
X39439772Y-124849097D01*
X39284900Y-124784947D01*
X39145519Y-124691815D01*
X39026985Y-124573281D01*
X38933853Y-124433900D01*
X38869703Y-124279028D01*
X38837000Y-124114616D01*
X38837000Y-123946984D01*
X38869703Y-123782572D01*
X38933853Y-123627700D01*
X39026985Y-123488319D01*
X39145519Y-123369785D01*
X39284900Y-123276653D01*
X39439772Y-123212503D01*
X39604184Y-123179800D01*
X39771816Y-123179800D01*
X39936228Y-123212503D01*
G37*
G36*
X16033000Y-124353800D02*
G01*
X14231000Y-124353800D01*
X14231000Y-122551800D01*
X16033000Y-122551800D01*
X16033000Y-124353800D01*
G37*
G36*
X28767512Y-121820727D02*
G01*
X28916812Y-121850424D01*
X29080784Y-121918344D01*
X29228354Y-122016947D01*
X29353853Y-122142446D01*
X29452456Y-122290016D01*
X29520376Y-122453988D01*
X29555000Y-122628059D01*
X29555000Y-122805541D01*
X29520376Y-122979612D01*
X29452456Y-123143584D01*
X29353853Y-123291154D01*
X29228354Y-123416653D01*
X29080784Y-123515256D01*
X28916812Y-123583176D01*
X28767512Y-123612873D01*
X28742742Y-123617800D01*
X28565258Y-123617800D01*
X28540488Y-123612873D01*
X28391188Y-123583176D01*
X28227216Y-123515256D01*
X28079646Y-123416653D01*
X27954147Y-123291154D01*
X27855544Y-123143584D01*
X27787624Y-122979612D01*
X27753000Y-122805541D01*
X27753000Y-122628059D01*
X27787624Y-122453988D01*
X27855544Y-122290016D01*
X27954147Y-122142446D01*
X28079646Y-122016947D01*
X28227216Y-121918344D01*
X28391188Y-121850424D01*
X28540488Y-121820727D01*
X28565258Y-121815800D01*
X28742742Y-121815800D01*
X28767512Y-121820727D01*
G37*
G36*
X55176228Y-120672503D02*
G01*
X55331100Y-120736653D01*
X55470481Y-120829785D01*
X55589015Y-120948319D01*
X55682147Y-121087700D01*
X55746297Y-121242572D01*
X55779000Y-121406984D01*
X55779000Y-121574616D01*
X55746297Y-121739028D01*
X55682147Y-121893900D01*
X55589015Y-122033281D01*
X55470481Y-122151815D01*
X55331100Y-122244947D01*
X55176228Y-122309097D01*
X55011816Y-122341800D01*
X54844184Y-122341800D01*
X54679772Y-122309097D01*
X54524900Y-122244947D01*
X54385519Y-122151815D01*
X54266985Y-122033281D01*
X54173853Y-121893900D01*
X54109703Y-121739028D01*
X54077000Y-121574616D01*
X54077000Y-121406984D01*
X54109703Y-121242572D01*
X54173853Y-121087700D01*
X54266985Y-120948319D01*
X54385519Y-120829785D01*
X54524900Y-120736653D01*
X54679772Y-120672503D01*
X54844184Y-120639800D01*
X55011816Y-120639800D01*
X55176228Y-120672503D01*
G37*
G36*
X40539000Y-122341800D02*
G01*
X38837000Y-122341800D01*
X38837000Y-120639800D01*
X40539000Y-120639800D01*
X40539000Y-122341800D01*
G37*
G36*
X29555000Y-121077800D02*
G01*
X27753000Y-121077800D01*
X27753000Y-119275800D01*
X29555000Y-119275800D01*
X29555000Y-121077800D01*
G37*
G36*
X106689106Y-117219000D02*
G01*
X106899917Y-117260933D01*
X107032503Y-117315852D01*
X107236776Y-117400464D01*
X107539943Y-117603034D01*
X107797766Y-117860857D01*
X108000336Y-118164024D01*
X108064209Y-118318228D01*
X108128358Y-118473097D01*
X108139867Y-118500884D01*
X108211000Y-118858491D01*
X108211000Y-119223109D01*
X108139867Y-119580716D01*
X108000336Y-119917576D01*
X107797766Y-120220743D01*
X107539943Y-120478566D01*
X107236776Y-120681136D01*
X107102745Y-120736653D01*
X106899917Y-120820667D01*
X106721112Y-120856234D01*
X106542309Y-120891800D01*
X106177691Y-120891800D01*
X105998888Y-120856234D01*
X105820083Y-120820667D01*
X105617255Y-120736653D01*
X105483224Y-120681136D01*
X105180057Y-120478566D01*
X104922234Y-120220743D01*
X104719664Y-119917576D01*
X104580133Y-119580716D01*
X104509000Y-119223109D01*
X104509000Y-118858491D01*
X104580133Y-118500884D01*
X104591643Y-118473097D01*
X104655791Y-118318228D01*
X104719664Y-118164024D01*
X104922234Y-117860857D01*
X105180057Y-117603034D01*
X105483224Y-117400464D01*
X105687497Y-117315852D01*
X105820083Y-117260933D01*
X106030894Y-117219000D01*
X106177691Y-117189800D01*
X106542309Y-117189800D01*
X106689106Y-117219000D01*
G37*
G36*
X61245000Y-118921000D02*
G01*
X59543000Y-118921000D01*
X59543000Y-117219000D01*
X61245000Y-117219000D01*
X61245000Y-118921000D01*
G37*
G36*
X63142228Y-117251703D02*
G01*
X63297100Y-117315853D01*
X63436481Y-117408985D01*
X63555015Y-117527519D01*
X63648147Y-117666900D01*
X63712297Y-117821772D01*
X63745000Y-117986184D01*
X63745000Y-118153816D01*
X63712297Y-118318228D01*
X63648147Y-118473100D01*
X63555015Y-118612481D01*
X63436481Y-118731015D01*
X63297100Y-118824147D01*
X63142228Y-118888297D01*
X62977816Y-118921000D01*
X62810184Y-118921000D01*
X62645772Y-118888297D01*
X62490900Y-118824147D01*
X62351519Y-118731015D01*
X62232985Y-118612481D01*
X62139853Y-118473100D01*
X62075703Y-118318228D01*
X62043000Y-118153816D01*
X62043000Y-117986184D01*
X62075703Y-117821772D01*
X62139853Y-117666900D01*
X62232985Y-117527519D01*
X62351519Y-117408985D01*
X62490900Y-117315853D01*
X62645772Y-117251703D01*
X62810184Y-117219000D01*
X62977816Y-117219000D01*
X63142228Y-117251703D01*
G37*
G36*
X15917395Y-115746346D02*
G01*
X16090466Y-115818034D01*
X16090467Y-115818035D01*
X16246227Y-115922110D01*
X16378690Y-116054573D01*
X16378691Y-116054575D01*
X16482766Y-116210334D01*
X16554454Y-116383405D01*
X16591000Y-116567133D01*
X16591000Y-116754467D01*
X16554454Y-116938195D01*
X16482766Y-117111266D01*
X16482765Y-117111267D01*
X16378690Y-117267027D01*
X16246227Y-117399490D01*
X16167818Y-117451881D01*
X16090466Y-117503566D01*
X15917395Y-117575254D01*
X15733667Y-117611800D01*
X15546333Y-117611800D01*
X15362605Y-117575254D01*
X15189534Y-117503566D01*
X15112182Y-117451881D01*
X15033773Y-117399490D01*
X14901310Y-117267027D01*
X14797235Y-117111267D01*
X14797234Y-117111266D01*
X14725546Y-116938195D01*
X14689000Y-116754467D01*
X14689000Y-116567133D01*
X14725546Y-116383405D01*
X14797234Y-116210334D01*
X14901309Y-116054575D01*
X14901310Y-116054573D01*
X15033773Y-115922110D01*
X15189533Y-115818035D01*
X15189534Y-115818034D01*
X15362605Y-115746346D01*
X15546333Y-115709800D01*
X15733667Y-115709800D01*
X15917395Y-115746346D01*
G37*
G36*
X40502712Y-114007527D02*
G01*
X40652012Y-114037224D01*
X40815984Y-114105144D01*
X40963554Y-114203747D01*
X41089053Y-114329246D01*
X41187656Y-114476816D01*
X41255576Y-114640788D01*
X41290200Y-114814859D01*
X41290200Y-114992341D01*
X41255576Y-115166412D01*
X41187656Y-115330384D01*
X41089053Y-115477954D01*
X40963554Y-115603453D01*
X40815984Y-115702056D01*
X40652012Y-115769976D01*
X40502712Y-115799673D01*
X40477942Y-115804600D01*
X40300458Y-115804600D01*
X40275688Y-115799673D01*
X40126388Y-115769976D01*
X39962416Y-115702056D01*
X39814846Y-115603453D01*
X39689347Y-115477954D01*
X39590744Y-115330384D01*
X39522824Y-115166412D01*
X39488200Y-114992341D01*
X39488200Y-114814859D01*
X39522824Y-114640788D01*
X39590744Y-114476816D01*
X39689347Y-114329246D01*
X39814846Y-114203747D01*
X39962416Y-114105144D01*
X40126388Y-114037224D01*
X40275688Y-114007527D01*
X40300458Y-114002600D01*
X40477942Y-114002600D01*
X40502712Y-114007527D01*
G37*
G36*
X43042712Y-114007527D02*
G01*
X43192012Y-114037224D01*
X43355984Y-114105144D01*
X43503554Y-114203747D01*
X43629053Y-114329246D01*
X43727656Y-114476816D01*
X43795576Y-114640788D01*
X43830200Y-114814859D01*
X43830200Y-114992341D01*
X43795576Y-115166412D01*
X43727656Y-115330384D01*
X43629053Y-115477954D01*
X43503554Y-115603453D01*
X43355984Y-115702056D01*
X43192012Y-115769976D01*
X43042712Y-115799673D01*
X43017942Y-115804600D01*
X42840458Y-115804600D01*
X42815688Y-115799673D01*
X42666388Y-115769976D01*
X42502416Y-115702056D01*
X42354846Y-115603453D01*
X42229347Y-115477954D01*
X42130744Y-115330384D01*
X42062824Y-115166412D01*
X42028200Y-114992341D01*
X42028200Y-114814859D01*
X42062824Y-114640788D01*
X42130744Y-114476816D01*
X42229347Y-114329246D01*
X42354846Y-114203747D01*
X42502416Y-114105144D01*
X42666388Y-114037224D01*
X42815688Y-114007527D01*
X42840458Y-114002600D01*
X43017942Y-114002600D01*
X43042712Y-114007527D01*
G37*
G36*
X48910200Y-115804600D02*
G01*
X47108200Y-115804600D01*
X47108200Y-114002600D01*
X48910200Y-114002600D01*
X48910200Y-115804600D01*
G37*
G36*
X45582712Y-114007527D02*
G01*
X45732012Y-114037224D01*
X45895984Y-114105144D01*
X46043554Y-114203747D01*
X46169053Y-114329246D01*
X46267656Y-114476816D01*
X46335576Y-114640788D01*
X46370200Y-114814859D01*
X46370200Y-114992341D01*
X46335576Y-115166412D01*
X46267656Y-115330384D01*
X46169053Y-115477954D01*
X46043554Y-115603453D01*
X45895984Y-115702056D01*
X45732012Y-115769976D01*
X45582712Y-115799673D01*
X45557942Y-115804600D01*
X45380458Y-115804600D01*
X45355688Y-115799673D01*
X45206388Y-115769976D01*
X45042416Y-115702056D01*
X44894846Y-115603453D01*
X44769347Y-115477954D01*
X44670744Y-115330384D01*
X44602824Y-115166412D01*
X44568200Y-114992341D01*
X44568200Y-114814859D01*
X44602824Y-114640788D01*
X44670744Y-114476816D01*
X44769347Y-114329246D01*
X44894846Y-114203747D01*
X45042416Y-114105144D01*
X45206388Y-114037224D01*
X45355688Y-114007527D01*
X45380458Y-114002600D01*
X45557942Y-114002600D01*
X45582712Y-114007527D01*
G37*
G36*
X16591000Y-115071800D02*
G01*
X14689000Y-115071800D01*
X14689000Y-113169800D01*
X16591000Y-113169800D01*
X16591000Y-115071800D01*
G37*
G36*
X88801000Y-114891800D02*
G01*
X84199000Y-114891800D01*
X84199000Y-112289800D01*
X88801000Y-112289800D01*
X88801000Y-114891800D01*
G37*
G36*
X66043468Y-111715365D02*
G01*
X66082138Y-111727096D01*
X66117777Y-111746146D01*
X66149017Y-111771783D01*
X66174654Y-111803023D01*
X66193704Y-111838662D01*
X66205435Y-111877332D01*
X66210000Y-111923688D01*
X66210000Y-112574912D01*
X66205435Y-112621268D01*
X66193704Y-112659938D01*
X66174654Y-112695577D01*
X66149017Y-112726817D01*
X66117777Y-112752454D01*
X66082138Y-112771504D01*
X66043468Y-112783235D01*
X65997112Y-112787800D01*
X64920888Y-112787800D01*
X64874532Y-112783235D01*
X64835862Y-112771504D01*
X64800223Y-112752454D01*
X64768983Y-112726817D01*
X64743346Y-112695577D01*
X64724296Y-112659938D01*
X64712565Y-112621268D01*
X64708000Y-112574912D01*
X64708000Y-111923688D01*
X64712565Y-111877332D01*
X64724296Y-111838662D01*
X64743346Y-111803023D01*
X64768983Y-111771783D01*
X64800223Y-111746146D01*
X64835862Y-111727096D01*
X64874532Y-111715365D01*
X64920888Y-111710800D01*
X65997112Y-111710800D01*
X66043468Y-111715365D01*
G37*
G36*
X66043468Y-109840365D02*
G01*
X66082138Y-109852096D01*
X66117777Y-109871146D01*
X66149017Y-109896783D01*
X66174654Y-109928023D01*
X66193704Y-109963662D01*
X66205435Y-110002332D01*
X66210000Y-110048688D01*
X66210000Y-110699912D01*
X66205435Y-110746268D01*
X66193704Y-110784938D01*
X66174654Y-110820577D01*
X66149017Y-110851817D01*
X66117777Y-110877454D01*
X66082138Y-110896504D01*
X66043468Y-110908235D01*
X65997112Y-110912800D01*
X64920888Y-110912800D01*
X64874532Y-110908235D01*
X64835862Y-110896504D01*
X64800223Y-110877454D01*
X64768983Y-110851817D01*
X64743346Y-110820577D01*
X64724296Y-110784938D01*
X64712565Y-110746268D01*
X64708000Y-110699912D01*
X64708000Y-110048688D01*
X64712565Y-110002332D01*
X64724296Y-109963662D01*
X64743346Y-109928023D01*
X64768983Y-109896783D01*
X64800223Y-109871146D01*
X64835862Y-109852096D01*
X64874532Y-109840365D01*
X64920888Y-109835800D01*
X65997112Y-109835800D01*
X66043468Y-109840365D01*
G37*
G36*
X80051000Y-106965800D02*
G01*
X71949000Y-106965800D01*
X71949000Y-98863800D01*
X80051000Y-98863800D01*
X80051000Y-106965800D01*
G37*
G36*
X15245512Y-105096727D02*
G01*
X15394812Y-105126424D01*
X15558784Y-105194344D01*
X15706354Y-105292947D01*
X15831853Y-105418446D01*
X15930456Y-105566016D01*
X15998376Y-105729988D01*
X16033000Y-105904059D01*
X16033000Y-106081541D01*
X15998376Y-106255612D01*
X15930456Y-106419584D01*
X15831853Y-106567154D01*
X15706354Y-106692653D01*
X15558784Y-106791256D01*
X15394812Y-106859176D01*
X15245512Y-106888873D01*
X15220742Y-106893800D01*
X15043258Y-106893800D01*
X15018488Y-106888873D01*
X14869188Y-106859176D01*
X14705216Y-106791256D01*
X14557646Y-106692653D01*
X14432147Y-106567154D01*
X14333544Y-106419584D01*
X14265624Y-106255612D01*
X14231000Y-106081541D01*
X14231000Y-105904059D01*
X14265624Y-105729988D01*
X14333544Y-105566016D01*
X14432147Y-105418446D01*
X14557646Y-105292947D01*
X14705216Y-105194344D01*
X14869188Y-105126424D01*
X15018488Y-105096727D01*
X15043258Y-105091800D01*
X15220742Y-105091800D01*
X15245512Y-105096727D01*
G37*
G36*
X16033000Y-104353800D02*
G01*
X14231000Y-104353800D01*
X14231000Y-102551800D01*
X16033000Y-102551800D01*
X16033000Y-104353800D01*
G37*
G36*
X28767512Y-101820727D02*
G01*
X28916812Y-101850424D01*
X29080784Y-101918344D01*
X29228354Y-102016947D01*
X29353853Y-102142446D01*
X29452456Y-102290016D01*
X29520376Y-102453988D01*
X29555000Y-102628059D01*
X29555000Y-102805541D01*
X29520376Y-102979612D01*
X29452456Y-103143584D01*
X29353853Y-103291154D01*
X29228354Y-103416653D01*
X29080784Y-103515256D01*
X28916812Y-103583176D01*
X28767512Y-103612873D01*
X28742742Y-103617800D01*
X28565258Y-103617800D01*
X28540488Y-103612873D01*
X28391188Y-103583176D01*
X28227216Y-103515256D01*
X28079646Y-103416653D01*
X27954147Y-103291154D01*
X27855544Y-103143584D01*
X27787624Y-102979612D01*
X27753000Y-102805541D01*
X27753000Y-102628059D01*
X27787624Y-102453988D01*
X27855544Y-102290016D01*
X27954147Y-102142446D01*
X28079646Y-102016947D01*
X28227216Y-101918344D01*
X28391188Y-101850424D01*
X28540488Y-101820727D01*
X28565258Y-101815800D01*
X28742742Y-101815800D01*
X28767512Y-101820727D01*
G37*
G36*
X29555000Y-101077800D02*
G01*
X27753000Y-101077800D01*
X27753000Y-99275800D01*
X29555000Y-99275800D01*
X29555000Y-101077800D01*
G37*
G36*
X15917395Y-95812346D02*
G01*
X16090466Y-95884034D01*
X16090467Y-95884035D01*
X16246227Y-95988110D01*
X16378690Y-96120573D01*
X16378691Y-96120575D01*
X16482766Y-96276334D01*
X16554454Y-96449405D01*
X16591000Y-96633133D01*
X16591000Y-96820467D01*
X16554454Y-97004195D01*
X16482766Y-97177266D01*
X16482765Y-97177267D01*
X16378690Y-97333027D01*
X16246227Y-97465490D01*
X16167818Y-97517881D01*
X16090466Y-97569566D01*
X15917395Y-97641254D01*
X15733667Y-97677800D01*
X15546333Y-97677800D01*
X15362605Y-97641254D01*
X15189534Y-97569566D01*
X15112182Y-97517881D01*
X15033773Y-97465490D01*
X14901310Y-97333027D01*
X14797235Y-97177267D01*
X14797234Y-97177266D01*
X14725546Y-97004195D01*
X14689000Y-96820467D01*
X14689000Y-96633133D01*
X14725546Y-96449405D01*
X14797234Y-96276334D01*
X14901309Y-96120575D01*
X14901310Y-96120573D01*
X15033773Y-95988110D01*
X15189533Y-95884035D01*
X15189534Y-95884034D01*
X15362605Y-95812346D01*
X15546333Y-95775800D01*
X15733667Y-95775800D01*
X15917395Y-95812346D01*
G37*
G36*
X16591000Y-95137800D02*
G01*
X14689000Y-95137800D01*
X14689000Y-93235800D01*
X16591000Y-93235800D01*
X16591000Y-95137800D01*
G37*
G36*
X71758468Y-90793865D02*
G01*
X71797138Y-90805596D01*
X71832777Y-90824646D01*
X71864017Y-90850283D01*
X71889654Y-90881523D01*
X71908704Y-90917162D01*
X71920435Y-90955832D01*
X71925000Y-91002188D01*
X71925000Y-91653412D01*
X71920435Y-91699768D01*
X71908704Y-91738438D01*
X71889654Y-91774077D01*
X71864017Y-91805317D01*
X71832777Y-91830954D01*
X71797138Y-91850004D01*
X71758468Y-91861735D01*
X71712112Y-91866300D01*
X70635888Y-91866300D01*
X70589532Y-91861735D01*
X70550862Y-91850004D01*
X70515223Y-91830954D01*
X70483983Y-91805317D01*
X70458346Y-91774077D01*
X70439296Y-91738438D01*
X70427565Y-91699768D01*
X70423000Y-91653412D01*
X70423000Y-91002188D01*
X70427565Y-90955832D01*
X70439296Y-90917162D01*
X70458346Y-90881523D01*
X70483983Y-90850283D01*
X70515223Y-90824646D01*
X70550862Y-90805596D01*
X70589532Y-90793865D01*
X70635888Y-90789300D01*
X71712112Y-90789300D01*
X71758468Y-90793865D01*
G37*
G36*
X96066000Y-61004800D02*
G01*
X96066000Y-68840954D01*
X96068402Y-68865340D01*
X96075515Y-68888789D01*
X96086994Y-68910291D01*
X96457506Y-69466058D01*
X96574000Y-69640800D01*
X96574000Y-89960800D01*
X96520196Y-90068408D01*
X96511439Y-90091293D01*
X96507435Y-90121071D01*
X96507000Y-90123258D01*
X96440456Y-90457800D01*
X96439710Y-90461547D01*
X96307717Y-90780208D01*
X96116091Y-91066996D01*
X95872196Y-91310891D01*
X95585408Y-91502517D01*
X95398741Y-91579837D01*
X95266748Y-91634510D01*
X95190996Y-91649578D01*
X94928460Y-91701800D01*
X94583540Y-91701800D01*
X94321004Y-91649578D01*
X94245252Y-91634510D01*
X94113259Y-91579837D01*
X93926592Y-91502517D01*
X93639804Y-91310891D01*
X93594122Y-91265209D01*
X93575180Y-91249664D01*
X93553569Y-91238113D01*
X93529934Y-91230963D01*
X93528063Y-91230594D01*
X93526000Y-91230800D01*
X90224000Y-87928800D01*
X90224000Y-79852577D01*
X90221598Y-79828191D01*
X90214485Y-79804742D01*
X90202934Y-79783131D01*
X90187389Y-79764189D01*
X87430000Y-77006800D01*
X87488585Y-73901800D01*
X87683884Y-63550935D01*
X87683884Y-63550933D01*
X87684000Y-63544800D01*
X87689815Y-63541247D01*
X87689818Y-63541244D01*
X92250935Y-60753895D01*
X92260753Y-60747235D01*
X93445744Y-59858492D01*
X94288000Y-59226800D01*
X96066000Y-61004800D01*
G37*
G36*
X68340968Y-88960365D02*
G01*
X68379638Y-88972096D01*
X68415277Y-88991146D01*
X68446517Y-89016783D01*
X68472154Y-89048023D01*
X68491204Y-89083662D01*
X68502935Y-89122332D01*
X68507500Y-89168688D01*
X68507500Y-90244912D01*
X68502935Y-90291268D01*
X68491204Y-90329938D01*
X68472154Y-90365577D01*
X68446517Y-90396817D01*
X68415277Y-90422454D01*
X68379638Y-90441504D01*
X68340968Y-90453235D01*
X68294612Y-90457800D01*
X67643388Y-90457800D01*
X67597032Y-90453235D01*
X67558362Y-90441504D01*
X67522723Y-90422454D01*
X67491483Y-90396817D01*
X67465846Y-90365577D01*
X67446796Y-90329938D01*
X67435065Y-90291268D01*
X67430500Y-90244912D01*
X67430500Y-89168688D01*
X67435065Y-89122332D01*
X67446796Y-89083662D01*
X67465846Y-89048023D01*
X67491483Y-89016783D01*
X67522723Y-88991146D01*
X67558362Y-88972096D01*
X67597032Y-88960365D01*
X67643388Y-88955800D01*
X68294612Y-88955800D01*
X68340968Y-88960365D01*
G37*
G36*
X66465968Y-88960365D02*
G01*
X66504638Y-88972096D01*
X66540277Y-88991146D01*
X66571517Y-89016783D01*
X66597154Y-89048023D01*
X66616204Y-89083662D01*
X66627935Y-89122332D01*
X66632500Y-89168688D01*
X66632500Y-90244912D01*
X66627935Y-90291268D01*
X66616204Y-90329938D01*
X66597154Y-90365577D01*
X66571517Y-90396817D01*
X66540277Y-90422454D01*
X66504638Y-90441504D01*
X66465968Y-90453235D01*
X66419612Y-90457800D01*
X65768388Y-90457800D01*
X65722032Y-90453235D01*
X65683362Y-90441504D01*
X65647723Y-90422454D01*
X65616483Y-90396817D01*
X65590846Y-90365577D01*
X65571796Y-90329938D01*
X65560065Y-90291268D01*
X65555500Y-90244912D01*
X65555500Y-89168688D01*
X65560065Y-89122332D01*
X65571796Y-89083662D01*
X65590846Y-89048023D01*
X65616483Y-89016783D01*
X65647723Y-88991146D01*
X65683362Y-88972096D01*
X65722032Y-88960365D01*
X65768388Y-88955800D01*
X66419612Y-88955800D01*
X66465968Y-88960365D01*
G37*
G36*
X71758468Y-88918865D02*
G01*
X71797138Y-88930596D01*
X71832777Y-88949646D01*
X71864017Y-88975283D01*
X71889654Y-89006523D01*
X71908704Y-89042162D01*
X71920435Y-89080832D01*
X71925000Y-89127188D01*
X71925000Y-89778412D01*
X71920435Y-89824768D01*
X71908704Y-89863438D01*
X71889654Y-89899077D01*
X71864017Y-89930317D01*
X71832777Y-89955954D01*
X71797138Y-89975004D01*
X71758468Y-89986735D01*
X71712112Y-89991300D01*
X70635888Y-89991300D01*
X70589532Y-89986735D01*
X70550862Y-89975004D01*
X70515223Y-89955954D01*
X70483983Y-89930317D01*
X70458346Y-89899077D01*
X70439296Y-89863438D01*
X70427565Y-89824768D01*
X70423000Y-89778412D01*
X70423000Y-89127188D01*
X70427565Y-89080832D01*
X70439296Y-89042162D01*
X70458346Y-89006523D01*
X70483983Y-88975283D01*
X70515223Y-88949646D01*
X70550862Y-88930596D01*
X70589532Y-88918865D01*
X70635888Y-88914300D01*
X71712112Y-88914300D01*
X71758468Y-88918865D01*
G37*
G36*
X69539000Y-88267800D02*
G01*
X68237000Y-88267800D01*
X68237000Y-85965800D01*
X69539000Y-85965800D01*
X69539000Y-88267800D01*
G37*
G36*
X67259000Y-88267800D02*
G01*
X65957000Y-88267800D01*
X65957000Y-85965800D01*
X67259000Y-85965800D01*
X67259000Y-88267800D01*
G37*
G36*
X71819000Y-88267800D02*
G01*
X70517000Y-88267800D01*
X70517000Y-85965800D01*
X71819000Y-85965800D01*
X71819000Y-88267800D01*
G37*
G36*
X64661468Y-86568865D02*
G01*
X64700138Y-86580596D01*
X64735777Y-86599646D01*
X64767017Y-86625283D01*
X64792654Y-86656523D01*
X64811704Y-86692162D01*
X64823435Y-86730832D01*
X64828000Y-86777188D01*
X64828000Y-87428412D01*
X64823435Y-87474768D01*
X64811704Y-87513438D01*
X64792654Y-87549077D01*
X64767017Y-87580317D01*
X64735777Y-87605954D01*
X64700138Y-87625004D01*
X64661468Y-87636735D01*
X64615112Y-87641300D01*
X63538888Y-87641300D01*
X63492532Y-87636735D01*
X63453862Y-87625004D01*
X63418223Y-87605954D01*
X63386983Y-87580317D01*
X63361346Y-87549077D01*
X63342296Y-87513438D01*
X63330565Y-87474768D01*
X63326000Y-87428412D01*
X63326000Y-86777188D01*
X63330565Y-86730832D01*
X63342296Y-86692162D01*
X63361346Y-86656523D01*
X63386983Y-86625283D01*
X63418223Y-86599646D01*
X63453862Y-86580596D01*
X63492532Y-86568865D01*
X63538888Y-86564300D01*
X64615112Y-86564300D01*
X64661468Y-86568865D01*
G37*
G36*
X79862564Y-85140189D02*
G01*
X80053833Y-85219415D01*
X80053835Y-85219416D01*
X80225973Y-85334435D01*
X80372365Y-85480827D01*
X80483156Y-85646637D01*
X80487385Y-85652967D01*
X80566611Y-85844236D01*
X80607000Y-86047284D01*
X80607000Y-86254316D01*
X80566611Y-86457364D01*
X80487385Y-86648633D01*
X80487384Y-86648635D01*
X80372365Y-86820773D01*
X80225973Y-86967165D01*
X80053835Y-87082184D01*
X80053834Y-87082185D01*
X80053833Y-87082185D01*
X79862564Y-87161411D01*
X79659516Y-87201800D01*
X79452484Y-87201800D01*
X79249436Y-87161411D01*
X79058167Y-87082185D01*
X79058166Y-87082185D01*
X79058165Y-87082184D01*
X78886027Y-86967165D01*
X78739635Y-86820773D01*
X78624616Y-86648635D01*
X78624615Y-86648633D01*
X78545389Y-86457364D01*
X78505000Y-86254316D01*
X78505000Y-86047284D01*
X78545389Y-85844236D01*
X78624615Y-85652967D01*
X78628845Y-85646637D01*
X78739635Y-85480827D01*
X78886027Y-85334435D01*
X79058165Y-85219416D01*
X79058167Y-85219415D01*
X79249436Y-85140189D01*
X79452484Y-85099800D01*
X79659516Y-85099800D01*
X79862564Y-85140189D01*
G37*
G36*
X64661468Y-84693865D02*
G01*
X64700138Y-84705596D01*
X64735777Y-84724646D01*
X64767017Y-84750283D01*
X64792654Y-84781523D01*
X64811704Y-84817162D01*
X64823435Y-84855832D01*
X64828000Y-84902188D01*
X64828000Y-85553412D01*
X64823435Y-85599768D01*
X64811704Y-85638438D01*
X64792654Y-85674077D01*
X64767017Y-85705317D01*
X64735777Y-85730954D01*
X64700138Y-85750004D01*
X64661468Y-85761735D01*
X64615112Y-85766300D01*
X63538888Y-85766300D01*
X63492532Y-85761735D01*
X63453862Y-85750004D01*
X63418223Y-85730954D01*
X63386983Y-85705317D01*
X63361346Y-85674077D01*
X63342296Y-85638438D01*
X63330565Y-85599768D01*
X63326000Y-85553412D01*
X63326000Y-84902188D01*
X63330565Y-84855832D01*
X63342296Y-84817162D01*
X63361346Y-84781523D01*
X63386983Y-84750283D01*
X63418223Y-84724646D01*
X63453862Y-84705596D01*
X63492532Y-84693865D01*
X63538888Y-84689300D01*
X64615112Y-84689300D01*
X64661468Y-84693865D01*
G37*
G36*
X79999000Y-84422600D02*
G01*
X78097000Y-84422600D01*
X78097000Y-81820600D01*
X79999000Y-81820600D01*
X79999000Y-84422600D01*
G37*
G36*
X76258000Y-84258800D02*
G01*
X73456000Y-84258800D01*
X73456000Y-82656800D01*
X76258000Y-82656800D01*
X76258000Y-84258800D01*
G37*
G36*
X71839000Y-84067800D02*
G01*
X65937000Y-84067800D01*
X65937000Y-77565800D01*
X71839000Y-77565800D01*
X71839000Y-84067800D01*
G37*
G36*
X79999000Y-80422600D02*
G01*
X78097000Y-80422600D01*
X78097000Y-77820600D01*
X79999000Y-77820600D01*
X79999000Y-80422600D01*
G37*
G36*
X76258000Y-79458800D02*
G01*
X73456000Y-79458800D01*
X73456000Y-77856800D01*
X76258000Y-77856800D01*
X76258000Y-79458800D01*
G37*
G36*
X80234210Y-74909289D02*
G01*
X80320950Y-74935602D01*
X80400889Y-74978330D01*
X80470962Y-75035838D01*
X80528470Y-75105911D01*
X80571198Y-75185850D01*
X80597511Y-75272590D01*
X80607000Y-75368940D01*
X80607000Y-76532660D01*
X80597511Y-76629010D01*
X80571198Y-76715750D01*
X80528470Y-76795689D01*
X80470962Y-76865762D01*
X80400889Y-76923270D01*
X80320950Y-76965998D01*
X80234210Y-76992311D01*
X80137860Y-77001800D01*
X78974140Y-77001800D01*
X78877790Y-76992311D01*
X78791050Y-76965998D01*
X78711111Y-76923270D01*
X78641038Y-76865762D01*
X78583530Y-76795689D01*
X78540802Y-76715750D01*
X78514489Y-76629010D01*
X78505000Y-76532660D01*
X78505000Y-75368940D01*
X78514489Y-75272590D01*
X78540802Y-75185850D01*
X78583530Y-75105911D01*
X78641038Y-75035838D01*
X78711111Y-74978330D01*
X78791050Y-74935602D01*
X78877790Y-74909289D01*
X78974140Y-74899800D01*
X80137860Y-74899800D01*
X80234210Y-74909289D01*
G37*
G36*
X62278228Y-74664503D02*
G01*
X62433100Y-74728653D01*
X62572481Y-74821785D01*
X62691015Y-74940319D01*
X62784147Y-75079700D01*
X62848297Y-75234572D01*
X62881000Y-75398984D01*
X62881000Y-75566616D01*
X62848297Y-75731028D01*
X62784147Y-75885900D01*
X62691015Y-76025281D01*
X62572481Y-76143815D01*
X62433100Y-76236947D01*
X62278228Y-76301097D01*
X62113816Y-76333800D01*
X61946184Y-76333800D01*
X61781772Y-76301097D01*
X61626900Y-76236947D01*
X61487519Y-76143815D01*
X61368985Y-76025281D01*
X61275853Y-75885900D01*
X61211703Y-75731028D01*
X61179000Y-75566616D01*
X61179000Y-75398984D01*
X61211703Y-75234572D01*
X61275853Y-75079700D01*
X61368985Y-74940319D01*
X61487519Y-74821785D01*
X61626900Y-74728653D01*
X61781772Y-74664503D01*
X61946184Y-74631800D01*
X62113816Y-74631800D01*
X62278228Y-74664503D01*
G37*
G36*
X59738228Y-74664503D02*
G01*
X59893100Y-74728653D01*
X60032481Y-74821785D01*
X60151015Y-74940319D01*
X60244147Y-75079700D01*
X60308297Y-75234572D01*
X60341000Y-75398984D01*
X60341000Y-75566616D01*
X60308297Y-75731028D01*
X60244147Y-75885900D01*
X60151015Y-76025281D01*
X60032481Y-76143815D01*
X59893100Y-76236947D01*
X59738228Y-76301097D01*
X59573816Y-76333800D01*
X59406184Y-76333800D01*
X59241772Y-76301097D01*
X59086900Y-76236947D01*
X58947519Y-76143815D01*
X58828985Y-76025281D01*
X58735853Y-75885900D01*
X58671703Y-75731028D01*
X58639000Y-75566616D01*
X58639000Y-75398984D01*
X58671703Y-75234572D01*
X58735853Y-75079700D01*
X58828985Y-74940319D01*
X58947519Y-74821785D01*
X59086900Y-74728653D01*
X59241772Y-74664503D01*
X59406184Y-74631800D01*
X59573816Y-74631800D01*
X59738228Y-74664503D01*
G37*
G36*
X26239000Y-70455800D02*
G01*
X24437000Y-70455800D01*
X24437000Y-68653800D01*
X26239000Y-68653800D01*
X26239000Y-70455800D01*
G37*
G36*
X27991512Y-68658727D02*
G01*
X28140812Y-68688424D01*
X28304784Y-68756344D01*
X28452354Y-68854947D01*
X28577853Y-68980446D01*
X28676456Y-69128016D01*
X28744376Y-69291988D01*
X28779000Y-69466059D01*
X28779000Y-69643541D01*
X28744376Y-69817612D01*
X28676456Y-69981584D01*
X28577853Y-70129154D01*
X28452354Y-70254653D01*
X28304784Y-70353256D01*
X28140812Y-70421176D01*
X27991512Y-70450873D01*
X27966742Y-70455800D01*
X27789258Y-70455800D01*
X27764488Y-70450873D01*
X27615188Y-70421176D01*
X27451216Y-70353256D01*
X27303646Y-70254653D01*
X27178147Y-70129154D01*
X27079544Y-69981584D01*
X27011624Y-69817612D01*
X26977000Y-69643541D01*
X26977000Y-69466059D01*
X27011624Y-69291988D01*
X27079544Y-69128016D01*
X27178147Y-68980446D01*
X27303646Y-68854947D01*
X27451216Y-68756344D01*
X27615188Y-68688424D01*
X27764488Y-68658727D01*
X27789258Y-68653800D01*
X27966742Y-68653800D01*
X27991512Y-68658727D01*
G37*
G36*
X52519000Y-70455800D02*
G01*
X50717000Y-70455800D01*
X50717000Y-68653800D01*
X52519000Y-68653800D01*
X52519000Y-70455800D01*
G37*
G36*
X49191512Y-68658727D02*
G01*
X49340812Y-68688424D01*
X49504784Y-68756344D01*
X49652354Y-68854947D01*
X49777853Y-68980446D01*
X49876456Y-69128016D01*
X49944376Y-69291988D01*
X49979000Y-69466059D01*
X49979000Y-69643541D01*
X49944376Y-69817612D01*
X49876456Y-69981584D01*
X49777853Y-70129154D01*
X49652354Y-70254653D01*
X49504784Y-70353256D01*
X49340812Y-70421176D01*
X49191512Y-70450873D01*
X49166742Y-70455800D01*
X48989258Y-70455800D01*
X48964488Y-70450873D01*
X48815188Y-70421176D01*
X48651216Y-70353256D01*
X48503646Y-70254653D01*
X48378147Y-70129154D01*
X48279544Y-69981584D01*
X48211624Y-69817612D01*
X48177000Y-69643541D01*
X48177000Y-69466059D01*
X48211624Y-69291988D01*
X48279544Y-69128016D01*
X48378147Y-68980446D01*
X48503646Y-68854947D01*
X48651216Y-68756344D01*
X48815188Y-68688424D01*
X48964488Y-68658727D01*
X48989258Y-68653800D01*
X49166742Y-68653800D01*
X49191512Y-68658727D01*
G37*
G36*
X33071512Y-68658727D02*
G01*
X33220812Y-68688424D01*
X33384784Y-68756344D01*
X33532354Y-68854947D01*
X33657853Y-68980446D01*
X33756456Y-69128016D01*
X33824376Y-69291988D01*
X33859000Y-69466059D01*
X33859000Y-69643541D01*
X33824376Y-69817612D01*
X33756456Y-69981584D01*
X33657853Y-70129154D01*
X33532354Y-70254653D01*
X33384784Y-70353256D01*
X33220812Y-70421176D01*
X33071512Y-70450873D01*
X33046742Y-70455800D01*
X32869258Y-70455800D01*
X32844488Y-70450873D01*
X32695188Y-70421176D01*
X32531216Y-70353256D01*
X32383646Y-70254653D01*
X32258147Y-70129154D01*
X32159544Y-69981584D01*
X32091624Y-69817612D01*
X32057000Y-69643541D01*
X32057000Y-69466059D01*
X32091624Y-69291988D01*
X32159544Y-69128016D01*
X32258147Y-68980446D01*
X32383646Y-68854947D01*
X32531216Y-68756344D01*
X32695188Y-68688424D01*
X32844488Y-68658727D01*
X32869258Y-68653800D01*
X33046742Y-68653800D01*
X33071512Y-68658727D01*
G37*
G36*
X35611512Y-68658727D02*
G01*
X35760812Y-68688424D01*
X35924784Y-68756344D01*
X36072354Y-68854947D01*
X36197853Y-68980446D01*
X36296456Y-69128016D01*
X36364376Y-69291988D01*
X36399000Y-69466059D01*
X36399000Y-69643541D01*
X36364376Y-69817612D01*
X36296456Y-69981584D01*
X36197853Y-70129154D01*
X36072354Y-70254653D01*
X35924784Y-70353256D01*
X35760812Y-70421176D01*
X35611512Y-70450873D01*
X35586742Y-70455800D01*
X35409258Y-70455800D01*
X35384488Y-70450873D01*
X35235188Y-70421176D01*
X35071216Y-70353256D01*
X34923646Y-70254653D01*
X34798147Y-70129154D01*
X34699544Y-69981584D01*
X34631624Y-69817612D01*
X34597000Y-69643541D01*
X34597000Y-69466059D01*
X34631624Y-69291988D01*
X34699544Y-69128016D01*
X34798147Y-68980446D01*
X34923646Y-68854947D01*
X35071216Y-68756344D01*
X35235188Y-68688424D01*
X35384488Y-68658727D01*
X35409258Y-68653800D01*
X35586742Y-68653800D01*
X35611512Y-68658727D01*
G37*
G36*
X46651512Y-68658727D02*
G01*
X46800812Y-68688424D01*
X46964784Y-68756344D01*
X47112354Y-68854947D01*
X47237853Y-68980446D01*
X47336456Y-69128016D01*
X47404376Y-69291988D01*
X47439000Y-69466059D01*
X47439000Y-69643541D01*
X47404376Y-69817612D01*
X47336456Y-69981584D01*
X47237853Y-70129154D01*
X47112354Y-70254653D01*
X46964784Y-70353256D01*
X46800812Y-70421176D01*
X46651512Y-70450873D01*
X46626742Y-70455800D01*
X46449258Y-70455800D01*
X46424488Y-70450873D01*
X46275188Y-70421176D01*
X46111216Y-70353256D01*
X45963646Y-70254653D01*
X45838147Y-70129154D01*
X45739544Y-69981584D01*
X45671624Y-69817612D01*
X45637000Y-69643541D01*
X45637000Y-69466059D01*
X45671624Y-69291988D01*
X45739544Y-69128016D01*
X45838147Y-68980446D01*
X45963646Y-68854947D01*
X46111216Y-68756344D01*
X46275188Y-68688424D01*
X46424488Y-68658727D01*
X46449258Y-68653800D01*
X46626742Y-68653800D01*
X46651512Y-68658727D01*
G37*
G36*
X30531512Y-68658727D02*
G01*
X30680812Y-68688424D01*
X30844784Y-68756344D01*
X30992354Y-68854947D01*
X31117853Y-68980446D01*
X31216456Y-69128016D01*
X31284376Y-69291988D01*
X31319000Y-69466059D01*
X31319000Y-69643541D01*
X31284376Y-69817612D01*
X31216456Y-69981584D01*
X31117853Y-70129154D01*
X30992354Y-70254653D01*
X30844784Y-70353256D01*
X30680812Y-70421176D01*
X30531512Y-70450873D01*
X30506742Y-70455800D01*
X30329258Y-70455800D01*
X30304488Y-70450873D01*
X30155188Y-70421176D01*
X29991216Y-70353256D01*
X29843646Y-70254653D01*
X29718147Y-70129154D01*
X29619544Y-69981584D01*
X29551624Y-69817612D01*
X29517000Y-69643541D01*
X29517000Y-69466059D01*
X29551624Y-69291988D01*
X29619544Y-69128016D01*
X29718147Y-68980446D01*
X29843646Y-68854947D01*
X29991216Y-68756344D01*
X30155188Y-68688424D01*
X30304488Y-68658727D01*
X30329258Y-68653800D01*
X30506742Y-68653800D01*
X30531512Y-68658727D01*
G37*
G36*
X62881000Y-68713800D02*
G01*
X61179000Y-68713800D01*
X61179000Y-67011800D01*
X62881000Y-67011800D01*
X62881000Y-68713800D01*
G37*
G36*
X59738228Y-67044503D02*
G01*
X59893100Y-67108653D01*
X60032481Y-67201785D01*
X60151015Y-67320319D01*
X60244147Y-67459700D01*
X60308297Y-67614572D01*
X60341000Y-67778984D01*
X60341000Y-67946616D01*
X60308297Y-68111028D01*
X60244147Y-68265900D01*
X60151015Y-68405281D01*
X60032481Y-68523815D01*
X59893100Y-68616947D01*
X59738228Y-68681097D01*
X59573816Y-68713800D01*
X59406184Y-68713800D01*
X59241772Y-68681097D01*
X59086900Y-68616947D01*
X58947519Y-68523815D01*
X58828985Y-68405281D01*
X58735853Y-68265900D01*
X58671703Y-68111028D01*
X58639000Y-67946616D01*
X58639000Y-67778984D01*
X58671703Y-67614572D01*
X58735853Y-67459700D01*
X58828985Y-67320319D01*
X58947519Y-67201785D01*
X59086900Y-67108653D01*
X59241772Y-67044503D01*
X59406184Y-67011800D01*
X59573816Y-67011800D01*
X59738228Y-67044503D01*
G37*
G36*
X21799000Y-66791800D02*
G01*
X17197000Y-66791800D01*
X17197000Y-64189800D01*
X21799000Y-64189800D01*
X21799000Y-66791800D01*
G37*
G36*
X62928228Y-62692503D02*
G01*
X63083100Y-62756653D01*
X63222481Y-62849785D01*
X63341015Y-62968319D01*
X63434147Y-63107700D01*
X63498297Y-63262572D01*
X63531000Y-63426984D01*
X63531000Y-63594616D01*
X63498297Y-63759028D01*
X63434147Y-63913900D01*
X63341015Y-64053281D01*
X63222481Y-64171815D01*
X63083100Y-64264947D01*
X62928228Y-64329097D01*
X62763816Y-64361800D01*
X62596184Y-64361800D01*
X62431772Y-64329097D01*
X62276900Y-64264947D01*
X62137519Y-64171815D01*
X62018985Y-64053281D01*
X61925853Y-63913900D01*
X61861703Y-63759028D01*
X61829000Y-63594616D01*
X61829000Y-63426984D01*
X61861703Y-63262572D01*
X61925853Y-63107700D01*
X62018985Y-62968319D01*
X62137519Y-62849785D01*
X62276900Y-62756653D01*
X62431772Y-62692503D01*
X62596184Y-62659800D01*
X62763816Y-62659800D01*
X62928228Y-62692503D01*
G37*
G36*
X44799112Y-58225366D02*
G01*
X44977917Y-58260933D01*
X45117448Y-58318729D01*
X45314776Y-58400464D01*
X45617943Y-58603034D01*
X45875766Y-58860857D01*
X46078336Y-59164024D01*
X46217867Y-59500884D01*
X46289000Y-59858491D01*
X46289000Y-60223109D01*
X46217867Y-60580716D01*
X46078336Y-60917576D01*
X45875766Y-61220743D01*
X45617943Y-61478566D01*
X45314776Y-61681136D01*
X45117448Y-61762871D01*
X44977917Y-61820667D01*
X44799112Y-61856234D01*
X44620309Y-61891800D01*
X44255691Y-61891800D01*
X44076888Y-61856234D01*
X43898083Y-61820667D01*
X43758552Y-61762871D01*
X43561224Y-61681136D01*
X43258057Y-61478566D01*
X43000234Y-61220743D01*
X42797664Y-60917576D01*
X42658133Y-60580716D01*
X42587000Y-60223109D01*
X42587000Y-59858491D01*
X42658133Y-59500884D01*
X42797664Y-59164024D01*
X43000234Y-58860857D01*
X43258057Y-58603034D01*
X43561224Y-58400464D01*
X43758552Y-58318729D01*
X43898083Y-58260933D01*
X44076888Y-58225366D01*
X44255691Y-58189800D01*
X44620309Y-58189800D01*
X44799112Y-58225366D01*
G37*
G36*
X25737472Y-58749212D02*
G01*
X25833040Y-58758625D01*
X26078280Y-58833018D01*
X26304294Y-58953825D01*
X26355899Y-58996176D01*
X26502397Y-59116403D01*
X26597551Y-59232350D01*
X26664975Y-59314506D01*
X26785782Y-59540520D01*
X26860175Y-59785760D01*
X26885294Y-60040800D01*
X26860175Y-60295840D01*
X26785782Y-60541080D01*
X26664975Y-60767094D01*
X26622624Y-60818699D01*
X26502397Y-60965197D01*
X26355899Y-61085424D01*
X26304294Y-61127775D01*
X26078280Y-61248582D01*
X25833040Y-61322975D01*
X25737473Y-61332387D01*
X25641906Y-61341800D01*
X23514094Y-61341800D01*
X23418527Y-61332387D01*
X23322960Y-61322975D01*
X23077720Y-61248582D01*
X22851706Y-61127775D01*
X22800101Y-61085424D01*
X22653603Y-60965197D01*
X22533376Y-60818699D01*
X22491025Y-60767094D01*
X22370218Y-60541080D01*
X22295825Y-60295840D01*
X22270706Y-60040800D01*
X22295825Y-59785760D01*
X22370218Y-59540520D01*
X22491025Y-59314506D01*
X22558449Y-59232350D01*
X22653603Y-59116403D01*
X22800101Y-58996176D01*
X22851706Y-58953825D01*
X23077720Y-58833018D01*
X23322960Y-58758625D01*
X23418528Y-58749212D01*
X23514094Y-58739800D01*
X25641906Y-58739800D01*
X25737472Y-58749212D01*
G37*
G36*
X20657473Y-53299213D02*
G01*
X20753040Y-53308625D01*
X20998280Y-53383018D01*
X21224294Y-53503825D01*
X21275899Y-53546176D01*
X21422397Y-53666403D01*
X21542624Y-53812901D01*
X21584975Y-53864506D01*
X21705782Y-54090520D01*
X21780175Y-54335760D01*
X21805294Y-54590800D01*
X21780175Y-54845840D01*
X21705782Y-55091080D01*
X21584975Y-55317094D01*
X21542624Y-55368699D01*
X21422397Y-55515197D01*
X21275899Y-55635424D01*
X21224294Y-55677775D01*
X20998280Y-55798582D01*
X20753040Y-55872975D01*
X20657472Y-55882388D01*
X20561906Y-55891800D01*
X18434094Y-55891800D01*
X18338528Y-55882388D01*
X18242960Y-55872975D01*
X17997720Y-55798582D01*
X17771706Y-55677775D01*
X17720101Y-55635424D01*
X17573603Y-55515197D01*
X17453376Y-55368699D01*
X17411025Y-55317094D01*
X17290218Y-55091080D01*
X17215825Y-54845840D01*
X17190706Y-54590800D01*
X17215825Y-54335760D01*
X17290218Y-54090520D01*
X17411025Y-53864506D01*
X17453376Y-53812901D01*
X17573603Y-53666403D01*
X17720101Y-53546176D01*
X17771706Y-53503825D01*
X17997720Y-53383018D01*
X18242960Y-53308625D01*
X18338527Y-53299213D01*
X18434094Y-53289800D01*
X20561906Y-53289800D01*
X20657473Y-53299213D01*
G37*
G36*
X62739239Y-47761601D02*
G01*
X62975053Y-47833134D01*
X63192381Y-47949299D01*
X63382871Y-48105629D01*
X63539201Y-48296119D01*
X63655366Y-48513447D01*
X63726899Y-48749262D01*
X63745000Y-48933044D01*
X63745000Y-49655957D01*
X63726899Y-49839739D01*
X63655366Y-50075553D01*
X63539201Y-50292881D01*
X63382871Y-50483371D01*
X63192380Y-50639701D01*
X62975052Y-50755866D01*
X62739238Y-50827399D01*
X62494000Y-50851553D01*
X62248761Y-50827399D01*
X62012947Y-50755866D01*
X61795619Y-50639701D01*
X61605129Y-50483371D01*
X61448799Y-50292880D01*
X61332634Y-50075552D01*
X61261101Y-49839738D01*
X61243000Y-49655956D01*
X61243000Y-48933043D01*
X61261101Y-48749261D01*
X61332634Y-48513447D01*
X61448800Y-48296119D01*
X61605130Y-48105629D01*
X61795620Y-47949299D01*
X62012948Y-47833134D01*
X62248762Y-47761601D01*
X62494000Y-47737447D01*
X62739239Y-47761601D01*
G37*
G36*
X49171403Y-48291575D02*
G01*
X49390139Y-48382178D01*
X49399071Y-48385878D01*
X49603966Y-48522785D01*
X49778215Y-48697034D01*
X49912651Y-48898231D01*
X49915123Y-48901931D01*
X50009425Y-49129597D01*
X50057500Y-49371286D01*
X50057500Y-49617714D01*
X50009425Y-49859403D01*
X49916656Y-50083369D01*
X49915122Y-50087071D01*
X49778215Y-50291966D01*
X49603966Y-50466215D01*
X49399071Y-50603122D01*
X49399070Y-50603123D01*
X49399069Y-50603123D01*
X49171403Y-50697425D01*
X48929714Y-50745500D01*
X48683286Y-50745500D01*
X48441597Y-50697425D01*
X48213931Y-50603123D01*
X48213930Y-50603123D01*
X48213929Y-50603122D01*
X48009034Y-50466215D01*
X47834785Y-50291966D01*
X47697878Y-50087071D01*
X47696345Y-50083369D01*
X47603575Y-49859403D01*
X47555500Y-49617714D01*
X47555500Y-49371286D01*
X47603575Y-49129597D01*
X47697877Y-48901931D01*
X47700349Y-48898231D01*
X47834785Y-48697034D01*
X48009034Y-48522785D01*
X48213929Y-48385878D01*
X48222862Y-48382178D01*
X48441597Y-48291575D01*
X48683286Y-48243500D01*
X48929714Y-48243500D01*
X49171403Y-48291575D01*
G37*
G36*
X90233903Y-48287875D02*
G01*
X90461571Y-48382178D01*
X90666466Y-48519085D01*
X90840715Y-48693334D01*
X90878086Y-48749264D01*
X90977623Y-48898231D01*
X91071925Y-49125897D01*
X91120000Y-49367586D01*
X91120000Y-49614014D01*
X91071925Y-49855703D01*
X90980860Y-50075555D01*
X90977622Y-50083371D01*
X90840715Y-50288266D01*
X90666466Y-50462515D01*
X90461571Y-50599422D01*
X90461570Y-50599423D01*
X90461569Y-50599423D01*
X90233903Y-50693725D01*
X89992214Y-50741800D01*
X89745786Y-50741800D01*
X89504097Y-50693725D01*
X89276431Y-50599423D01*
X89276430Y-50599423D01*
X89276429Y-50599422D01*
X89071534Y-50462515D01*
X88897285Y-50288266D01*
X88760378Y-50083371D01*
X88757141Y-50075555D01*
X88666075Y-49855703D01*
X88618000Y-49614014D01*
X88618000Y-49367586D01*
X88666075Y-49125897D01*
X88760377Y-48898231D01*
X88859914Y-48749264D01*
X88897285Y-48693334D01*
X89071534Y-48519085D01*
X89276429Y-48382178D01*
X89504097Y-48287875D01*
X89745786Y-48239800D01*
X89992214Y-48239800D01*
X90233903Y-48287875D01*
G37*
G36*
X76546403Y-48287875D02*
G01*
X76774071Y-48382178D01*
X76978966Y-48519085D01*
X77153215Y-48693334D01*
X77190586Y-48749264D01*
X77290123Y-48898231D01*
X77384425Y-49125897D01*
X77432500Y-49367586D01*
X77432500Y-49614014D01*
X77384425Y-49855703D01*
X77293360Y-50075555D01*
X77290122Y-50083371D01*
X77153215Y-50288266D01*
X76978966Y-50462515D01*
X76774071Y-50599422D01*
X76774070Y-50599423D01*
X76774069Y-50599423D01*
X76546403Y-50693725D01*
X76304714Y-50741800D01*
X76058286Y-50741800D01*
X75816597Y-50693725D01*
X75588931Y-50599423D01*
X75588930Y-50599423D01*
X75588929Y-50599422D01*
X75384034Y-50462515D01*
X75209785Y-50288266D01*
X75072878Y-50083371D01*
X75069641Y-50075555D01*
X74978575Y-49855703D01*
X74930500Y-49614014D01*
X74930500Y-49367586D01*
X74978575Y-49125897D01*
X75072877Y-48898231D01*
X75172414Y-48749264D01*
X75209785Y-48693334D01*
X75384034Y-48519085D01*
X75588929Y-48382178D01*
X75816597Y-48287875D01*
X76058286Y-48239800D01*
X76304714Y-48239800D01*
X76546403Y-48287875D01*
G37*
G36*
X35483903Y-48287875D02*
G01*
X35711571Y-48382178D01*
X35916466Y-48519085D01*
X36090715Y-48693334D01*
X36128086Y-48749264D01*
X36227623Y-48898231D01*
X36321925Y-49125897D01*
X36370000Y-49367586D01*
X36370000Y-49614014D01*
X36321925Y-49855703D01*
X36230860Y-50075555D01*
X36227622Y-50083371D01*
X36090715Y-50288266D01*
X35916466Y-50462515D01*
X35711571Y-50599422D01*
X35711570Y-50599423D01*
X35711569Y-50599423D01*
X35483903Y-50693725D01*
X35242214Y-50741800D01*
X34995786Y-50741800D01*
X34754097Y-50693725D01*
X34526431Y-50599423D01*
X34526430Y-50599423D01*
X34526429Y-50599422D01*
X34321534Y-50462515D01*
X34147285Y-50288266D01*
X34010378Y-50083371D01*
X34007141Y-50075555D01*
X33916075Y-49855703D01*
X33868000Y-49614014D01*
X33868000Y-49367586D01*
X33916075Y-49125897D01*
X34010377Y-48898231D01*
X34109914Y-48749264D01*
X34147285Y-48693334D01*
X34321534Y-48519085D01*
X34526429Y-48382178D01*
X34754097Y-48287875D01*
X34995786Y-48239800D01*
X35242214Y-48239800D01*
X35483903Y-48287875D01*
G37*
G36*
X23551000Y-50541800D02*
G01*
X15449000Y-50541800D01*
X15449000Y-42439800D01*
X23551000Y-42439800D01*
X23551000Y-50541800D01*
G37*
G36*
X110436228Y-45236503D02*
G01*
X110591100Y-45300653D01*
X110730481Y-45393785D01*
X110849015Y-45512319D01*
X110942147Y-45651700D01*
X111006297Y-45806572D01*
X111039000Y-45970984D01*
X111039000Y-46138616D01*
X111006297Y-46303028D01*
X110942147Y-46457900D01*
X110849015Y-46597281D01*
X110730481Y-46715815D01*
X110591100Y-46808947D01*
X110436228Y-46873097D01*
X110271816Y-46905800D01*
X110104184Y-46905800D01*
X109939772Y-46873097D01*
X109784900Y-46808947D01*
X109645519Y-46715815D01*
X109526985Y-46597281D01*
X109433853Y-46457900D01*
X109369703Y-46303028D01*
X109337000Y-46138616D01*
X109337000Y-45970984D01*
X109369703Y-45806572D01*
X109433853Y-45651700D01*
X109526985Y-45512319D01*
X109645519Y-45393785D01*
X109784900Y-45300653D01*
X109939772Y-45236503D01*
X110104184Y-45203800D01*
X110271816Y-45203800D01*
X110436228Y-45236503D01*
G37*
G36*
X23551000Y-34541800D02*
G01*
X15449000Y-34541800D01*
X15449000Y-26439800D01*
X23551000Y-26439800D01*
X23551000Y-34541800D01*
G37*
G36*
X110436228Y-29996503D02*
G01*
X110591100Y-30060653D01*
X110730481Y-30153785D01*
X110849015Y-30272319D01*
X110942147Y-30411700D01*
X111006297Y-30566572D01*
X111039000Y-30730984D01*
X111039000Y-30898616D01*
X111006297Y-31063028D01*
X110942147Y-31217900D01*
X110849015Y-31357281D01*
X110730481Y-31475815D01*
X110591100Y-31568947D01*
X110436228Y-31633097D01*
X110271816Y-31665800D01*
X110104184Y-31665800D01*
X109939772Y-31633097D01*
X109784900Y-31568947D01*
X109645519Y-31475815D01*
X109526985Y-31357281D01*
X109433853Y-31217900D01*
X109369703Y-31063028D01*
X109337000Y-30898616D01*
X109337000Y-30730984D01*
X109369703Y-30566572D01*
X109433853Y-30411700D01*
X109526985Y-30272319D01*
X109645519Y-30153785D01*
X109784900Y-30060653D01*
X109939772Y-29996503D01*
X110104184Y-29963800D01*
X110271816Y-29963800D01*
X110436228Y-29996503D01*
G37*
G36*
X35364239Y-18957901D02*
G01*
X35600053Y-19029434D01*
X35817381Y-19145599D01*
X36007871Y-19301929D01*
X36164201Y-19492419D01*
X36280366Y-19709747D01*
X36351899Y-19945561D01*
X36370000Y-20129343D01*
X36370000Y-22852257D01*
X36351899Y-23036039D01*
X36280366Y-23271853D01*
X36164201Y-23489181D01*
X36007871Y-23679671D01*
X35817380Y-23836001D01*
X35600052Y-23952166D01*
X35364238Y-24023699D01*
X35119000Y-24047853D01*
X34873761Y-24023699D01*
X34637947Y-23952166D01*
X34420619Y-23836001D01*
X34230129Y-23679671D01*
X34073799Y-23489180D01*
X33957634Y-23271852D01*
X33886101Y-23036038D01*
X33868000Y-22852256D01*
X33868001Y-20129343D01*
X33886102Y-19945561D01*
X33957635Y-19709747D01*
X34073800Y-19492419D01*
X34230130Y-19301929D01*
X34420620Y-19145599D01*
X34637948Y-19029434D01*
X34873762Y-18957901D01*
X35119000Y-18933747D01*
X35364239Y-18957901D01*
G37*
G36*
X90114239Y-19057901D02*
G01*
X90350053Y-19129434D01*
X90567381Y-19245599D01*
X90757871Y-19401929D01*
X90914201Y-19592419D01*
X91030366Y-19809747D01*
X91101899Y-20045561D01*
X91120000Y-20229343D01*
X91120000Y-22752257D01*
X91101899Y-22936039D01*
X91030366Y-23171853D01*
X90914201Y-23389181D01*
X90757871Y-23579671D01*
X90567380Y-23736001D01*
X90350052Y-23852166D01*
X90114238Y-23923699D01*
X89869000Y-23947853D01*
X89623761Y-23923699D01*
X89387947Y-23852166D01*
X89170619Y-23736001D01*
X88980129Y-23579671D01*
X88823799Y-23389180D01*
X88707634Y-23171852D01*
X88636101Y-22936038D01*
X88618000Y-22752256D01*
X88618001Y-20229343D01*
X88636102Y-20045561D01*
X88707635Y-19809747D01*
X88823800Y-19592419D01*
X88980130Y-19401929D01*
X89170620Y-19245599D01*
X89387948Y-19129434D01*
X89623762Y-19057901D01*
X89869000Y-19033747D01*
X90114239Y-19057901D01*
G37*
G36*
X49171403Y-20791575D02*
G01*
X49390139Y-20882178D01*
X49399071Y-20885878D01*
X49603966Y-21022785D01*
X49778215Y-21197034D01*
X49912651Y-21398231D01*
X49915123Y-21401931D01*
X50009425Y-21629597D01*
X50057500Y-21871286D01*
X50057500Y-22117714D01*
X50009425Y-22359403D01*
X49916656Y-22583369D01*
X49915122Y-22587071D01*
X49778215Y-22791966D01*
X49603966Y-22966215D01*
X49399071Y-23103122D01*
X49399070Y-23103123D01*
X49399069Y-23103123D01*
X49171403Y-23197425D01*
X48929714Y-23245500D01*
X48683286Y-23245500D01*
X48441597Y-23197425D01*
X48213931Y-23103123D01*
X48213930Y-23103123D01*
X48213929Y-23103122D01*
X48009034Y-22966215D01*
X47834785Y-22791966D01*
X47697878Y-22587071D01*
X47696345Y-22583369D01*
X47603575Y-22359403D01*
X47555500Y-22117714D01*
X47555500Y-21871286D01*
X47603575Y-21629597D01*
X47697877Y-21401931D01*
X47700349Y-21398231D01*
X47834785Y-21197034D01*
X48009034Y-21022785D01*
X48213929Y-20885878D01*
X48222862Y-20882178D01*
X48441597Y-20791575D01*
X48683286Y-20743500D01*
X48929714Y-20743500D01*
X49171403Y-20791575D01*
G37*
G36*
X62858903Y-20791575D02*
G01*
X63077639Y-20882178D01*
X63086571Y-20885878D01*
X63291466Y-21022785D01*
X63465715Y-21197034D01*
X63600151Y-21398231D01*
X63602623Y-21401931D01*
X63696925Y-21629597D01*
X63745000Y-21871286D01*
X63745000Y-22117714D01*
X63696925Y-22359403D01*
X63604156Y-22583369D01*
X63602622Y-22587071D01*
X63465715Y-22791966D01*
X63291466Y-22966215D01*
X63086571Y-23103122D01*
X63086570Y-23103123D01*
X63086569Y-23103123D01*
X62858903Y-23197425D01*
X62617214Y-23245500D01*
X62370786Y-23245500D01*
X62129097Y-23197425D01*
X61901431Y-23103123D01*
X61901430Y-23103123D01*
X61901429Y-23103122D01*
X61696534Y-22966215D01*
X61522285Y-22791966D01*
X61385378Y-22587071D01*
X61383845Y-22583369D01*
X61291075Y-22359403D01*
X61243000Y-22117714D01*
X61243000Y-21871286D01*
X61291075Y-21629597D01*
X61385377Y-21401931D01*
X61387849Y-21398231D01*
X61522285Y-21197034D01*
X61696534Y-21022785D01*
X61901429Y-20885878D01*
X61910362Y-20882178D01*
X62129097Y-20791575D01*
X62370786Y-20743500D01*
X62617214Y-20743500D01*
X62858903Y-20791575D01*
G37*
G36*
X76112931Y-20614801D02*
G01*
X76115333Y-20639187D01*
X76122446Y-20662636D01*
X76133997Y-20684247D01*
X76149542Y-20703189D01*
X76168484Y-20718734D01*
X76190095Y-20730285D01*
X76213544Y-20737398D01*
X76237930Y-20739800D01*
X76304714Y-20739800D01*
X76546403Y-20787875D01*
X76734150Y-20865642D01*
X76774071Y-20882178D01*
X76978966Y-21019085D01*
X77153215Y-21193334D01*
X77165687Y-21212000D01*
X77290123Y-21398231D01*
X77384425Y-21625897D01*
X77432500Y-21867587D01*
X77432500Y-22114013D01*
X77384425Y-22355703D01*
X77290122Y-22583371D01*
X77153215Y-22788266D01*
X76978966Y-22962515D01*
X76774071Y-23099422D01*
X76774070Y-23099423D01*
X76774069Y-23099423D01*
X76546403Y-23193725D01*
X76304714Y-23241800D01*
X76058286Y-23241800D01*
X75816597Y-23193725D01*
X75588931Y-23099423D01*
X75588930Y-23099423D01*
X75588929Y-23099422D01*
X75384034Y-22962515D01*
X75209785Y-22788266D01*
X75072878Y-22583371D01*
X74978575Y-22355703D01*
X74930500Y-22114013D01*
X74930500Y-21867587D01*
X74978575Y-21625897D01*
X75072877Y-21398231D01*
X75197313Y-21212000D01*
X75209785Y-21193334D01*
X75384034Y-21019085D01*
X75555176Y-20904731D01*
X75574117Y-20889186D01*
X75589662Y-20870244D01*
X75601213Y-20848634D01*
X75608326Y-20825185D01*
X75610728Y-20800799D01*
X75608326Y-20776413D01*
X75601213Y-20752964D01*
X75589662Y-20731353D01*
X75574116Y-20712411D01*
X75555174Y-20696866D01*
X75533564Y-20685315D01*
X75510115Y-20678202D01*
X75485729Y-20675800D01*
X74010931Y-20675800D01*
X74010931Y-12573800D01*
X76112931Y-12573800D01*
X76112931Y-20614801D01*
G37*
G36*
X18016156Y-13158794D02*
G01*
X18737140Y-13302206D01*
X19528972Y-13630193D01*
X20241601Y-14106357D01*
X20847643Y-14712399D01*
X21323807Y-15425028D01*
X21651794Y-16216860D01*
X21819000Y-17057464D01*
X21819000Y-17914536D01*
X21651794Y-18755140D01*
X21323807Y-19546972D01*
X20847643Y-20259601D01*
X20241601Y-20865643D01*
X19528972Y-21341807D01*
X18737140Y-21669794D01*
X18016156Y-21813206D01*
X17896537Y-21837000D01*
X17039463Y-21837000D01*
X16919844Y-21813206D01*
X16198860Y-21669794D01*
X15407028Y-21341807D01*
X14694399Y-20865643D01*
X14088357Y-20259601D01*
X13612193Y-19546972D01*
X13284206Y-18755140D01*
X13117000Y-17914536D01*
X13117000Y-17057464D01*
X13284206Y-16216860D01*
X13612193Y-15425028D01*
X14088357Y-14712399D01*
X14694399Y-14106357D01*
X15407028Y-13630193D01*
X16198860Y-13302206D01*
X16919844Y-13158794D01*
X17039463Y-13135000D01*
X17896537Y-13135000D01*
X18016156Y-13158794D01*
G37*
G36*
X95123499Y-13075537D02*
G01*
X95133108Y-13078452D01*
X95141972Y-13083190D01*
X95154507Y-13093477D01*
X97685823Y-15624793D01*
X97696110Y-15637328D01*
X97700848Y-15646192D01*
X97703763Y-15655801D01*
X97705352Y-15671940D01*
X97705352Y-20969660D01*
X97703763Y-20985799D01*
X97700848Y-20995408D01*
X97696110Y-21004272D01*
X97689737Y-21012037D01*
X97681972Y-21018410D01*
X97673108Y-21023148D01*
X97663499Y-21026063D01*
X97647360Y-21027652D01*
X95119640Y-21027652D01*
X95103501Y-21026063D01*
X95093892Y-21023148D01*
X95085028Y-21018410D01*
X95077263Y-21012037D01*
X95070890Y-21004272D01*
X95066152Y-20995408D01*
X95063237Y-20985799D01*
X95061648Y-20969660D01*
X95061648Y-13131940D01*
X95063237Y-13115801D01*
X95066152Y-13106192D01*
X95070890Y-13097328D01*
X95077263Y-13089563D01*
X95085028Y-13083190D01*
X95093892Y-13078452D01*
X95103501Y-13075537D01*
X95113500Y-13074553D01*
X95123499Y-13075537D01*
G37*
G36*
X28045000Y-20699300D02*
G01*
X25403000Y-20699300D01*
X25403000Y-12537300D01*
X28045000Y-12537300D01*
X28045000Y-20699300D01*
G37*
G36*
X39583000Y-20681800D02*
G01*
X37481000Y-20681800D01*
X37481000Y-12579800D01*
X39583000Y-12579800D01*
X39583000Y-20681800D01*
G37*
G36*
X57753000Y-20677800D02*
G01*
X55651000Y-20677800D01*
X55651000Y-12575800D01*
X57753000Y-12575800D01*
X57753000Y-20677800D01*
G37*
G36*
X94318000Y-20669800D02*
G01*
X92216000Y-20669800D01*
X92216000Y-12567800D01*
X94318000Y-12567800D01*
X94318000Y-20669800D01*
G37*
G36*
X62806564Y-14244189D02*
G01*
X62997833Y-14323415D01*
X62997835Y-14323416D01*
X63169973Y-14438435D01*
X63316365Y-14584827D01*
X63409247Y-14723834D01*
X63431385Y-14756967D01*
X63510611Y-14948236D01*
X63551000Y-15151284D01*
X63551000Y-15358316D01*
X63510611Y-15561364D01*
X63467352Y-15665800D01*
X63431384Y-15752635D01*
X63316365Y-15924773D01*
X63169973Y-16071165D01*
X62997835Y-16186184D01*
X62997834Y-16186185D01*
X62997833Y-16186185D01*
X62806564Y-16265411D01*
X62603516Y-16305800D01*
X62396484Y-16305800D01*
X62193436Y-16265411D01*
X62002167Y-16186185D01*
X62002166Y-16186185D01*
X62002165Y-16186184D01*
X61830027Y-16071165D01*
X61683635Y-15924773D01*
X61568616Y-15752635D01*
X61532648Y-15665800D01*
X61489389Y-15561364D01*
X61449000Y-15358316D01*
X61449000Y-15151284D01*
X61489389Y-14948236D01*
X61568615Y-14756967D01*
X61590754Y-14723834D01*
X61683635Y-14584827D01*
X61830027Y-14438435D01*
X62002165Y-14323416D01*
X62002167Y-14323415D01*
X62193436Y-14244189D01*
X62396484Y-14203800D01*
X62603516Y-14203800D01*
X62806564Y-14244189D01*
G37*
M02*
